<svg version="1.1" xmlns="http://www.w3.org/2000/svg" xmlns:xlink="http://www.w3.org/1999/xlink" width="38.06667" height="38.2914"><defs><linearGradient x1="240.00563" y1="166.4764" x2="240.00563" y2="176.08534" gradientUnits="userSpaceOnUse" id="color-1"><stop offset="0" stop-color="#ff00b7"/><stop offset="1" stop-color="#ffc0f2"/></linearGradient><linearGradient x1="240.11863" y1="183.70837" x2="240.11863" y2="193.52782" gradientUnits="userSpaceOnUse" id="color-2"><stop offset="0" stop-color="#ffc0f2"/><stop offset="1" stop-color="#ff00b7"/></linearGradient><linearGradient x1="243.55775" y1="179.99249" x2="253.44552" y2="179.99249" gradientUnits="userSpaceOnUse" id="color-3"><stop offset="0" stop-color="#ffc0f2"/><stop offset="1" stop-color="#ff00b7"/></linearGradient><linearGradient x1="226.376" y1="180.05287" x2="236.29184" y2="180.05287" gradientUnits="userSpaceOnUse" id="color-4"><stop offset="0" stop-color="#ff00b7"/><stop offset="1" stop-color="#ffc0f2"/></linearGradient></defs><g transform="translate(-220.89995,-160.85398)"><g data-paper-data="{&quot;isPaintingLayer&quot;:true}" fill="none" fill-rule="nonzero" stroke="none" stroke-width="none" stroke-linecap="butt" stroke-linejoin="miter" stroke-miterlimit="10" stroke-dasharray="" stroke-dashoffset="0" font-family="none" font-weight="none" font-size="none" text-anchor="none" style="mix-blend-mode: normal"><path d="M238.86813,176.08534v-9.60894h2.275v9.60894z" data-paper-data="{&quot;origPos&quot;:null}" fill="url(#color-1)" stroke="none" stroke-width="0"/><path d="M238.98113,193.52782v-9.81947h2.275v9.81947z" data-paper-data="{&quot;origPos&quot;:null}" fill="url(#color-2)" stroke="none" stroke-width="0"/><path d="M243.55775,178.88783l9.87104,-0.06561l0.01673,2.27494l-9.87104,0.06561z" data-paper-data="{&quot;origRot&quot;:0,&quot;origPos&quot;:null}" fill="url(#color-3)" stroke="none" stroke-width="0"/><path d="M226.376,178.9482l9.89907,-0.06561l0.01677,2.27495l-9.89907,0.06561z" data-paper-data="{&quot;origRot&quot;:0,&quot;origPos&quot;:null}" fill="url(#color-4)" stroke="none" stroke-width="0"/><path d="M243.55521,180.01653c0,2.064 -1.62395,3.73721 -3.62719,3.73721c-2.00324,0 -3.62719,-1.6732 -3.62719,-3.73721c0,-2.064 1.62395,-3.73721 3.62719,-3.73721c2.00324,0 3.62719,1.6732 3.62719,3.73721z" data-paper-data="{&quot;origPos&quot;:null}" fill="none" stroke="#ffbeea" stroke-width="1.5"/><path d="M220.89996,180.04391l5.66667,-1.66667v3.55556z" data-paper-data="{&quot;origPos&quot;:null}" fill="#ff00b7" stroke="none" stroke-width="0"/><path d="M253.29996,181.7328v-3.55555l5.66667,1.66666z" data-paper-data="{&quot;origPos&quot;:null,&quot;index&quot;:null}" fill="#ff00b7" stroke="none" stroke-width="0"/><path d="M239.98509,160.85399l1.69491,5.65828l-3.55551,0.01774z" data-paper-data="{&quot;origPos&quot;:null,&quot;origRot&quot;:0}" fill="#ff00b7" stroke="none" stroke-width="0"/><path d="M238.35526,193.46937l3.55551,0.01774l-1.69491,5.65828z" data-paper-data="{&quot;origPos&quot;:null,&quot;origRot&quot;:0,&quot;index&quot;:null}" fill="#ff00b7" stroke="none" stroke-width="0"/><path d="M240.79644,180.09484c0,0.46599 -0.37776,0.84375 -0.84375,0.84375c-0.46599,0 -0.84375,-0.37776 -0.84375,-0.84375c0,-0.46599 0.37776,-0.84375 0.84375,-0.84375c0.46599,0 0.84375,0.37776 0.84375,0.84375z" data-paper-data="{&quot;origPos&quot;:null}" fill="#ff4cce" stroke="none" stroke-width="0"/></g></g></svg>