<svg version="1.1" xmlns="http://www.w3.org/2000/svg" xmlns:xlink="http://www.w3.org/1999/xlink" width="247.69554" height="192.12971" viewBox="0,0,247.69554,192.12971"><defs><linearGradient x1="207.93609" y1="116.3654" x2="207.93609" y2="136.70099" gradientUnits="userSpaceOnUse" id="color-1"><stop offset="0" stop-color="#ffffff"/><stop offset="1" stop-color="#535353"/></linearGradient><linearGradient x1="177.92035" y1="285.34153" x2="177.92035" y2="305.67712" gradientUnits="userSpaceOnUse" id="color-2"><stop offset="0" stop-color="#ffffff"/><stop offset="1" stop-color="#535353"/></linearGradient></defs><g transform="translate(-120.78968,-114.85741)"><g data-paper-data="{&quot;isPaintingLayer&quot;:true}" fill-rule="nonzero" stroke-linecap="butt" stroke-linejoin="miter" stroke-miterlimit="10" stroke-dasharray="" stroke-dashoffset="0" style="mix-blend-mode: normal"><text transform="translate(121.01974,132.6386) scale(0.46012,0.40466)" font-size="40" xml:space="preserve" data-paper-data="{&quot;origPos&quot;:null}" fill="#ffffff" fill-rule="nonzero" stroke="none" stroke-width="1" stroke-linecap="butt" stroke-linejoin="miter" stroke-miterlimit="10" stroke-dasharray="" stroke-dashoffset="0" font-family="&quot;Microsoft YaHei&quot;, &quot;微软雅黑&quot;, STXihei, &quot;华文细黑&quot;" font-weight="normal" text-anchor="start" style="mix-blend-mode: normal"><tspan x="0" dy="0">      100       点进行一次抽奖</tspan><tspan x="0" dy="46.150000000000006px">              获奖概率：</tspan><tspan x="0" dy="46.150000000000006px">   AK-47-猩红传说         0.1%</tspan><tspan x="0" dy="46.150000000000006px">   寒霜                           0.1%</tspan><tspan x="0" dy="46.150000000000006px">   QBZ95-天使               1.4%</tspan><tspan x="0" dy="46.150000000000006px">   M249                         1.4%</tspan><tspan x="0" dy="46.150000000000006px">   40钻石                          7%</tspan><tspan x="0" dy="46.150000000000006px">   20钻石                        10%</tspan><tspan x="0" dy="46.150000000000006px">   3000火线币                 20%</tspan><tspan x="0" dy="46.150000000000006px">   80       点                     25%</tspan></text><path d="M199.14219,129.28945c0,0 -4.35682,-4.54157 -4.25468,-4.67328c0.23504,-0.30306 -1.66736,2.34884 -2.13989,2.32059c-0.76419,-0.0457 -0.27129,-4.05858 -0.27129,-4.05858c0,0 -0.421,-0.6691 1.3792,-2.23525c0.20124,-0.17507 9.77969,-0.1016 11.87159,-0.11026c0.2426,-0.001 1.2474,-0.00144 1.2474,-0.00144c0,0 -1.49776,3.52441 -1.40931,3.43693c0.02025,-0.02004 -0.63517,0.09149 -0.89454,0.08691c-0.90409,-0.01599 -2.5365,-0.05761 -2.59028,0.15672c-0.14254,0.56811 -0.45901,1.53471 -0.26739,1.34622c0.34331,-0.3377 1.87236,3.07149 2.22324,2.94569c0.54477,-0.19531 1.52251,-3.43484 1.85135,-4.86258c0.23338,-1.01327 -0.19918,-0.28163 0.17053,-0.62228c0.63311,-0.58335 1.42089,-3.55793 1.7735,-3.87284c0.76235,-0.68085 0.47087,-0.83664 0.74502,-1.06266c0.81031,-0.66806 0.79589,-0.02751 1.79135,-0.12181c1.33224,-0.12621 8.71249,0.1188 8.71249,0.1188l4.47176,-1.71493l-4.03729,6.40228c0,0 -7.97721,-0.26253 -8.18549,-0.11069c-0.24841,0.18109 -0.18511,1.45447 -0.26392,1.93729c-0.01669,0.10221 6.49596,0.03919 6.49596,0.03919l-1.67779,4.01582l-5.86158,0.27753l-3.01021,7.77419l-7.86973,-7.41154z" fill="url(#color-1)" stroke="#000000" stroke-width="1.5"/><path d="M169.12645,298.26558c0,0 -4.35682,-4.54157 -4.25468,-4.67328c0.23504,-0.30306 -1.66736,2.34884 -2.13989,2.32059c-0.76419,-0.0457 -0.27129,-4.05858 -0.27129,-4.05858c0,0 -0.421,-0.6691 1.3792,-2.23525c0.20124,-0.17507 9.77969,-0.1016 11.87159,-0.11026c0.2426,-0.001 1.2474,-0.00144 1.2474,-0.00144c0,0 -1.49776,3.52441 -1.40931,3.43693c0.02025,-0.02004 -0.63517,0.09149 -0.89454,0.08691c-0.90409,-0.01599 -2.5365,-0.05761 -2.59028,0.15672c-0.14254,0.56811 -0.45901,1.53471 -0.26739,1.34622c0.34331,-0.3377 1.87236,3.07149 2.22324,2.94569c0.54477,-0.19531 1.52251,-3.43484 1.85135,-4.86258c0.23338,-1.01327 -0.19918,-0.28163 0.17053,-0.62228c0.63311,-0.58335 1.42089,-3.55793 1.7735,-3.87284c0.76235,-0.68085 0.47087,-0.83664 0.74502,-1.06266c0.81031,-0.66806 0.79589,-0.02751 1.79135,-0.12181c1.33224,-0.12621 8.71249,0.1188 8.71249,0.1188l4.47176,-1.71493l-4.03729,6.40228c0,0 -7.97721,-0.26253 -8.18549,-0.11069c-0.24841,0.18109 -0.18511,1.45447 -0.26392,1.93729c-0.01669,0.10221 6.49596,0.03919 6.49596,0.03919l-1.67779,4.01582l-5.86158,0.27753l-3.01021,7.77419l-7.86973,-7.41154z" fill="url(#color-2)" stroke="#000000" stroke-width="1.5"/></g></g></svg>