<svg version="1.1" xmlns="http://www.w3.org/2000/svg" xmlns:xlink="http://www.w3.org/1999/xlink" width="53.00394" height="53.00394" viewBox="0,0,53.00394,53.00394"><defs><radialGradient cx="41.99999" cy="136" r="7.68751" gradientUnits="userSpaceOnUse" id="color-1"><stop offset="0" stop-color="#ff0000"/><stop offset="1" stop-color="#ff0000" stop-opacity="0"/></radialGradient></defs><g transform="translate(-15.49803,-109.49803)"><g data-paper-data="{&quot;isPaintingLayer&quot;:true}" fill-rule="nonzero" stroke-linejoin="miter" stroke-miterlimit="10" stroke-dasharray="" stroke-dashoffset="0" style="mix-blend-mode: normal"><g><path d="M42,162.50197c-14.63663,0 -26.50197,-11.86534 -26.50197,-26.50197c0,-14.63663 11.86534,-26.50197 26.50197,-26.50197c14.63663,0 26.50197,11.86534 26.50197,26.50197c0,14.63663 -11.86534,26.50197 -26.50197,26.50197z" fill-opacity="0.20784" fill="#000000" stroke="none" stroke-width="0" stroke-linecap="butt"/><g><g data-paper-data="{&quot;origPos&quot;:null}" fill="#000000" stroke="none" stroke-linecap="butt"><path d="M22.45833,136.3015v-0.63473h13.72876v0.63473z" data-paper-data="{&quot;origPos&quot;:null}" stroke-width="NaN"/><path d="M47.8129,136.33323v-0.63473h13.72876v0.63473z" data-paper-data="{&quot;origPos&quot;:null}" stroke-width="NaN"/></g><g data-paper-data="{&quot;origPos&quot;:null,&quot;origRot&quot;:0}" fill="#000000" stroke="none" stroke-linecap="butt"><path d="M41.6985,116.45833h0.63473v13.72876h-0.63473z" data-paper-data="{&quot;origPos&quot;:null}" stroke-width="NaN"/><path d="M41.66677,141.8129h0.63473v13.72876h-0.63473z" data-paper-data="{&quot;origPos&quot;:null}" stroke-width="NaN"/></g><path d="M51.56852,136h-19.13703" data-paper-data="{&quot;origPos&quot;:null}" fill="none" stroke="#000000" stroke-width="0.5" stroke-linecap="round"/><path d="M42,145.56851v-19.13703" data-paper-data="{&quot;origPos&quot;:null,&quot;origRot&quot;:0}" fill="none" stroke="#000000" stroke-width="0.5" stroke-linecap="round"/></g><g stroke="none" stroke-linecap="butt"><path d="M34.3125,136c0,-4.24568 3.44182,-7.68751 7.68749,-7.68751c4.24568,0 7.68751,3.44182 7.68751,7.68751c0,4.24568 -3.44182,7.68751 -7.68751,7.68751c-4.24568,0 -7.68749,-3.44182 -7.68749,-7.68751z" data-paper-data="{&quot;origPos&quot;:null}" fill="url(#color-1)" stroke-width="NaN"/><path d="M37.944,136c0,-2.24006 1.81593,-4.05599 4.05599,-4.05599c2.24006,0 4.05599,1.81593 4.05599,4.05599c0,2.24006 -1.81593,4.05599 -4.05599,4.05599c-2.24006,0 -4.05599,-1.81593 -4.05599,-4.05599z" data-paper-data="{&quot;origPos&quot;:null}" fill="#ffffff" stroke-width="NaN"/></g><path d="M63.75,136c0,12.28833 -9.7378,22.25 -21.75,22.25c-12.0122,0 -21.75,-9.96167 -21.75,-22.25c0,-12.28833 9.7378,-22.25 21.75,-22.25c12.0122,0 21.75,9.96167 21.75,22.25z" fill="none" stroke="#000000" stroke-width="0.5" stroke-linecap="butt"/></g></g></g></svg>