<svg version="1.1" xmlns="http://www.w3.org/2000/svg" xmlns:xlink="http://www.w3.org/1999/xlink" width="261" height="97.31619" viewBox="0,0,261,97.31619"><defs><linearGradient x1="210.35936" y1="214.46673" x2="210.35936" y2="238.69483" gradientUnits="userSpaceOnUse" id="color-1"><stop offset="0" stop-color="#ffffff"/><stop offset="1" stop-color="#535353"/></linearGradient></defs><g transform="translate(-110.76974,-142.6886)"><g data-paper-data="{&quot;isPaintingLayer&quot;:true}" fill-rule="nonzero" stroke-linecap="butt" stroke-linejoin="miter" stroke-miterlimit="10" stroke-dasharray="" stroke-dashoffset="0" style="mix-blend-mode: normal"><text transform="translate(111.01974,163.9386) scale(0.5,0.5)" font-size="40" xml:space="preserve" data-paper-data="{&quot;origPos&quot;:null}" fill="#ffffff" fill-rule="nonzero" stroke="none" stroke-width="1" stroke-linecap="butt" stroke-linejoin="miter" stroke-miterlimit="10" stroke-dasharray="" stroke-dashoffset="0" font-family="&quot;Microsoft YaHei&quot;, &quot;微软雅黑&quot;, STXihei, &quot;华文细黑&quot;" font-weight="normal" text-anchor="start" style="mix-blend-mode: normal"><tspan x="0" dy="0">每天登录即可领取大量火线币</tspan><tspan x="0" dy="46.150000000000006px">       记得每天来看看哦</tspan><tspan x="0" dy="46.150000000000006px"> 奖励：火线币*1880~4880</tspan><tspan x="0" dy="46.150000000000006px">                     点*10~50</tspan></text><path d="M199.88218,229.86461c0,0 -5.19077,-5.41089 -5.06908,-5.56781c0.28003,-0.36107 -1.98652,2.79844 -2.54949,2.76478c-0.91047,-0.05445 -0.32322,-4.83545 -0.32322,-4.83545c0,0 -0.50159,-0.79717 1.6432,-2.66311c0.23976,-0.20858 11.65166,-0.12105 14.14398,-0.13137c0.28904,-0.00119 1.48617,-0.00172 1.48617,-0.00172c0,0 -1.78445,4.19903 -1.67907,4.09481c0.02413,-0.02387 -0.75675,0.109 -1.06577,0.10354c-1.07714,-0.01905 -3.02202,-0.06864 -3.08609,0.18672c-0.16982,0.67685 -0.54687,1.82848 -0.31857,1.6039c0.40903,-0.40234 2.23076,3.65941 2.6488,3.50954c0.64905,-0.2327 1.81394,-4.09231 2.20572,-5.79334c0.27805,-1.20722 -0.23731,-0.33554 0.20317,-0.74139c0.7543,-0.69501 1.69287,-4.23897 2.11297,-4.61415c0.90828,-0.81117 0.561,-0.99678 0.88763,-1.26607c0.96542,-0.79594 0.94824,-0.03277 2.13424,-0.14513c1.58725,-0.15037 10.38018,0.14154 10.38018,0.14154l5.32772,-2.04319l-4.81008,7.62776c0,0 -9.50416,-0.31278 -9.7523,-0.13188c-0.29596,0.21575 -0.22054,1.73288 -0.31444,2.30811c-0.01988,0.12177 7.73937,0.04669 7.73937,0.04669l-1.99894,4.7845l-6.98357,0.33065l-3.5864,9.26228l-9.3761,-8.83021z" fill="url(#color-1)" stroke="#000000" stroke-width="1.5"/></g></g></svg>