<svg version="1.1" xmlns="http://www.w3.org/2000/svg" xmlns:xlink="http://www.w3.org/1999/xlink" width="16.2041" height="16.20146" viewBox="0,0,16.2041,16.20146"><g transform="translate(-615.19968,-7.63392)"><g data-paper-data="{&quot;isPaintingLayer&quot;:true}" fill-rule="nonzero" stroke="none" stroke-linecap="butt" stroke-linejoin="miter" stroke-miterlimit="10" stroke-dasharray="" stroke-dashoffset="0" style="mix-blend-mode: normal"><path d="M623.36659,19.5192c2.10154,0 3.80516,-1.70363 3.80516,-3.80516c0,-2.10154 -1.70363,-3.80518 -3.80516,-3.80518c-2.10154,0 -3.80516,1.70365 -3.80516,3.80519c0,2.10155 1.70363,3.80516 3.80516,3.80516z" fill-opacity="0.00392" fill="#000000" stroke-width="1"/><path d="M622.63479,7.65765c0.03523,-0.01066 0.3533,-0.02041 0.70689,-0.02161l0.64289,-0.00212l0.14883,0.07435c0.10257,0.05127 0.17661,0.11173 0.23824,0.1947c0.11789,0.1587 0.12946,0.19997 0.2263,0.81121c0.05232,0.33022 0.06707,0.42865 0.13747,0.91695c0.05211,0.36152 -0.01476,0.29237 0.42847,0.44286c0.36672,0.12449 0.60105,0.22334 0.90132,0.3803c0.27498,0.1437 0.32643,0.16502 0.35172,0.14553c0.01382,-0.01056 0.16077,-0.11863 0.3266,-0.24017c0.16583,-0.12146 0.35798,-0.26277 0.42707,-0.31398c1.08472,-0.80354 1.13712,-0.80442 1.90374,-0.03335c0.76067,0.76505 0.73137,0.92407 -0.44083,2.39602c-0.01703,0.02135 -0.06797,0.0915 -0.11332,0.15589l-0.0824,0.11707l0.13703,0.25863c0.19198,0.36234 0.31988,0.6886 0.48959,1.24914c0.02443,0.0807 0.05277,0.09251 0.30443,0.12717c0.11745,0.01614 0.27571,0.03951 0.35172,0.05193c0.07599,0.01237 0.28513,0.04571 0.46478,0.07409c0.76936,0.12149 0.77903,0.124 0.93331,0.2373c0.22812,0.1675 0.28514,0.37626 0.28514,1.04377c0,0.83138 -0.13353,1.09834 -0.59038,1.18064c-0.16563,0.02976 -0.59094,0.09886 -0.77878,0.12644c-0.09673,0.01413 -0.23802,0.03652 -0.31404,0.04974c-0.07599,0.0132 -0.24496,0.04122 -0.3754,0.06226c-0.26609,0.04284 -0.25876,0.03672 -0.31542,0.26264c-0.07441,0.29677 -0.27339,0.77246 -0.50671,1.21148c-0.08453,0.15895 -0.08506,0.15615 0.06687,0.3602c1.2876,1.72893 1.27855,1.67698 0.43781,2.50586c-0.74496,0.73438 -0.76511,0.73269 -1.98275,-0.16903c-0.73771,-0.54637 -0.63347,-0.50264 -0.87959,-0.36842c-0.09693,0.0528 -0.24955,0.1285 -0.33916,0.16818c-0.08961,0.03968 -0.16863,0.07833 -0.17552,0.08579c-0.01596,0.01734 -0.35461,0.13669 -0.61255,0.21581c-0.24535,0.07538 -0.25617,0.08449 -0.27534,0.23127c-0.00859,0.06552 -0.02721,0.19262 -0.0414,0.28244c-0.01419,0.0898 -0.0366,0.23678 -0.0498,0.3266c-0.02801,0.19061 -0.11652,0.75173 -0.13876,0.8793c-0.10276,0.58965 -0.35014,0.71925 -1.33388,0.69886c-0.57726,-0.012 -0.7079,-0.0505 -0.87726,-0.25852c-0.14434,-0.17717 -0.14853,-0.19324 -0.28935,-1.10608c-0.09609,-0.62278 -0.1544,-0.95629 -0.16977,-0.97044c-0.00987,-0.00911 -0.11972,-0.04753 -0.24409,-0.08542c-0.34054,-0.10383 -0.64445,-0.22849 -0.98774,-0.40522c-0.37086,-0.19092 -0.32966,-0.18857 -0.54529,-0.03222c-0.20299,0.14714 -0.67549,0.49366 -0.98413,0.72172c-0.63541,0.46948 -0.81453,0.43654 -1.52889,-0.2807c-0.71692,-0.71994 -0.69012,-0.92326 0.28264,-2.13843c0.29405,-0.36741 0.36972,-0.50176 0.32798,-0.58264c-0.0199,-0.03875 -0.10509,-0.20312 -0.18917,-0.36535c-0.0841,-0.16223 -0.17698,-0.36571 -0.20652,-0.45223c-0.02946,-0.08648 -0.06337,-0.17989 -0.07537,-0.20752c-0.012,-0.02763 -0.04706,-0.1407 -0.07794,-0.25122c-0.07121,-0.25511 -0.07141,-0.25531 -0.24307,-0.27093c-0.14481,-0.01326 -0.49442,-0.06618 -1.11103,-0.16839c-0.07599,-0.01256 -0.22864,-0.03643 -0.33916,-0.05296c-0.11053,-0.01657 -0.21228,-0.0382 -0.2261,-0.0481c-0.01382,-0.00986 -0.05433,-0.02484 -0.09006,-0.0334c-0.10676,-0.02544 -0.25642,-0.16235 -0.34298,-0.31384l-0.08136,-0.14239l-0.00032,-0.66254l-0.00032,-0.66259l0.07813,-0.14131c0.15394,-0.27842 0.32227,-0.35547 0.9896,-0.45284c0.56939,-0.08315 0.89178,-0.13377 0.9846,-0.15469c0.05795,-0.01305 0.14277,-0.02392 0.18844,-0.02412c0.11967,-0.00056 0.12855,-0.01248 0.20656,-0.27595c0.10038,-0.33871 0.24615,-0.69453 0.41856,-1.02112c0.16612,-0.31461 0.16854,-0.32458 0.10023,-0.41168c-0.02667,-0.03411 -0.09821,-0.12984 -0.15888,-0.21272c-0.06067,-0.08291 -0.20619,-0.28073 -0.32331,-0.43963c-0.56577,-0.76736 -0.62492,-0.8681 -0.62468,-1.06352c0.0004,-0.27303 0.08983,-0.41464 0.55063,-0.8723c0.65801,-0.65343 0.88851,-0.70099 1.42405,-0.29344c0.17579,0.13377 0.73834,0.54784 1.04332,0.76801l0.217,0.15663l0.15984,-0.09378c0.26098,-0.15304 0.66176,-0.32566 1.05088,-0.45247c0.2008,-0.06546 0.36717,-0.11972 0.36968,-0.12057c0.00467,-0.00158 0.11011,-0.6517 0.15903,-0.98049c0.01439,-0.09674 0.03643,-0.23801 0.04904,-0.31403c0.01263,-0.07602 0.0363,-0.22203 0.05264,-0.32452zM623.36659,19.5192c2.10154,0 3.80516,-1.70363 3.80516,-3.80516c0,-2.10154 -1.70363,-3.80518 -3.80516,-3.80518c-2.10154,0 -3.80516,1.70365 -3.80516,3.80519c0,2.10155 1.70363,3.80516 3.80516,3.80516z" fill="#474743" stroke-width="1"/><path d="M620.14684,15.77255c0,-1.77824 1.44152,-3.21977 3.21976,-3.21977c1.77824,0 3.21976,1.44153 3.21976,3.21977c0,1.77824 -1.44152,3.21976 -3.21976,3.21976c-1.77824,0 -3.21976,-1.44152 -3.21976,-3.21976zM623.36659,17.64587c1.05075,0 1.90259,-0.85179 1.90259,-1.90259c0,-1.05078 -0.85182,-1.90259 -1.90259,-1.90259c-1.05075,0 -1.90259,0.85179 -1.90259,1.90259c0,1.05078 0.85182,1.90259 1.90259,1.90259z" fill="#61615e" stroke-width="0"/></g></g></svg>