<svg version="1.1" xmlns="http://www.w3.org/2000/svg" xmlns:xlink="http://www.w3.org/1999/xlink" width="147.70925" height="83.07656" viewBox="0,0,147.70925,83.07656"><g transform="translate(-90.14215,-129.24201)"><g data-paper-data="{&quot;isPaintingLayer&quot;:true}" fill-rule="nonzero" stroke-linejoin="miter" stroke-miterlimit="10" stroke-dasharray="" stroke-dashoffset="0" style="mix-blend-mode: normal"><path d="M170.01975,209.81857v-58h65.33165v58z" fill-opacity="0.349" fill="#000000" stroke-opacity="0.349" stroke="#000000" stroke-width="5" stroke-linecap="butt"/><path d="" fill="#000000" stroke="#ffffff" stroke-width="2.5" stroke-linecap="butt"/><path d="M199.79205,193.63027v-21.66667h24.33333v21.66667z" fill="#000000" stroke="#ffffff" stroke-width="2.5" stroke-linecap="butt"/><path d="M190.21191,184.14323l-2.60851,-3.44881l10.84296,-8.24377l2.52518,3.19881z" data-paper-data="{&quot;origRot&quot;:0}" fill="#000000" stroke="#ffffff" stroke-width="2.5" stroke-linecap="butt"/><path d="M212.87862,202.8099l-2.52517,-3.19881l10.75963,-8.49377l2.44184,3.53214z" data-paper-data="{&quot;origRot&quot;:0}" fill="#000000" stroke="#ffffff" stroke-width="2.5" stroke-linecap="butt"/><path d="M187.12541,203.29694v-21.66667h24.33334v21.66667z" fill="#000000" stroke="#ffffff" stroke-width="2.5" stroke-linecap="butt"/><path d="M190.45081,180.38548l8.66667,-7.08333h7.16667v7z" fill="#000000" stroke="none" stroke-width="0" stroke-linecap="butt"/><path d="M212.61751,185.30215l10.16667,-0.08333l0.16667,8.24638l-10.25,7.83696z" data-paper-data="{&quot;index&quot;:null,&quot;origRot&quot;:0}" fill="#000000" stroke="none" stroke-width="0" stroke-linecap="butt"/><path d="M223.27081,172.19609l-11.42857,9" fill="none" stroke="#ffffff" stroke-width="2.5" stroke-linecap="round"/><text transform="translate(188.41364,197.80323) scale(0.28332,0.41023)" font-size="40" xml:space="preserve" fill="#ff0000" fill-rule="nonzero" stroke="none" stroke-width="1" stroke-linecap="butt" stroke-linejoin="miter" stroke-miterlimit="10" stroke-dasharray="" stroke-dashoffset="0" font-family="Marker" font-weight="normal" text-anchor="start" style="mix-blend-mode: normal"><tspan x="0" dy="0">HOT</tspan></text><text transform="translate(179.8618,178.36267) scale(0.53262,0.53262)" font-size="40" xml:space="preserve" data-paper-data="{&quot;origPos&quot;:null}" fill="#ffffff" fill-rule="nonzero" stroke="none" stroke-width="0" stroke-linecap="butt" stroke-linejoin="miter" stroke-miterlimit="10" stroke-dasharray="" stroke-dashoffset="0" font-family="&quot;Microsoft YaHei&quot;, &quot;微软雅黑&quot;, STXihei, &quot;华文细黑&quot;" font-weight="normal" text-anchor="start" style="mix-blend-mode: normal"><tspan x="0" dy="0">活动</tspan></text><path d="M153.33611,129.24201v43.85157h-63.19396v-43.85157c0,0 63.06148,0 63.19396,0z" fill-opacity="0.349" fill="#000000" stroke="none" stroke-width="1" stroke-linecap="butt"/></g></g></svg>