<svg version="1.1" xmlns="http://www.w3.org/2000/svg" xmlns:xlink="http://www.w3.org/1999/xlink" width="86.53412" height="28.84774" viewBox="0,0,86.53412,28.84774"><g transform="translate(-380.39083,-87.96742)"><g data-paper-data="{&quot;isPaintingLayer&quot;:true}" fill-rule="nonzero" stroke="none" stroke-linecap="butt" stroke-linejoin="miter" stroke-miterlimit="10" stroke-dasharray="" stroke-dashoffset="0" style="mix-blend-mode: normal"><g><path d="M382.23299,116.21743c-2.17689,-0.92577 -1.82046,-0.67573 -1.82046,-2.5c0,-5.10604 0,-15.2928 0,-19c0,-2.62772 -0.25163,-3.07692 2.73069,-4.75c2.98233,-1.67308 2.78156,-1.25 7.96453,-1.25c10.73203,0 50.62296,0 67.81226,0c4.90743,0 3.85008,-0.4021 6.14406,0.75c2.29399,1.1521 1.82046,1.35639 1.82046,3.25c0,3.25725 0,13.77518 0,19.75c0,2.53339 0.139,1.98807 -1.82046,3.25c-1.95946,1.26193 -1.3615,1 -4.77872,1c-9.53068,0 -55.11297,0 -72.81853,0c-4.38021,0 -3.05695,0.42577 -5.23383,-0.5z" fill="#f3f3f3" stroke-width="0"/><text transform="translate(423.65276,109.71743) scale(0.5,0.5)" font-size="40" xml:space="preserve" fill="#a2a2a2" fill-rule="nonzero" stroke="none" stroke-width="1" stroke-linecap="butt" stroke-linejoin="miter" stroke-miterlimit="10" stroke-dasharray="" stroke-dashoffset="0" font-family="Sans Serif" font-weight="normal" text-anchor="start" style="mix-blend-mode: normal"><tspan x="0" dy="0">确定</tspan></text><text transform="translate(382.52775,109.71743) scale(0.5,0.5)" font-size="40" xml:space="preserve" fill="#b6b6b6" fill-rule="nonzero" stroke="none" stroke-width="1" stroke-linecap="butt" stroke-linejoin="miter" stroke-miterlimit="10" stroke-dasharray="" stroke-dashoffset="0" font-family="Sans Serif" font-weight="normal" text-anchor="start" style="mix-blend-mode: normal"><tspan x="0" dy="0">点此</tspan></text></g></g></g></svg>