<svg version="1.1" xmlns="http://www.w3.org/2000/svg" xmlns:xlink="http://www.w3.org/1999/xlink" width="219.61068" height="116.06125" viewBox="0,0,219.61068,116.06125"><g transform="translate(-277.39699,-203.3302)"><g data-paper-data="{&quot;isPaintingLayer&quot;:true}" fill-rule="nonzero" stroke-linejoin="miter" stroke-miterlimit="10" stroke-dasharray="" stroke-dashoffset="0" style="mix-blend-mode: normal"><path d="M341.06017,318.50385v-29.24835z" fill="none" stroke="#555554" stroke-width="0.725" stroke-linecap="round"/><g stroke-linecap="butt"><path d="M290.31913,299.51264c0,0.60826 -0.4055,1.01377 -1.01377,1.01377h-10.6446c-0.50689,0 -1.01377,-0.4055 -1.01377,-1.01377v-10.84734c0,-0.60826 0.50689,-1.01377 1.01377,-1.01377h10.74597c0.60826,0 1.01377,0.4055 1.01377,1.01377z" fill="#070708" stroke="#b1b5b6" stroke-width="0.5"/><text transform="translate(280.68947,297.14207) scale(0.82481,1.01377)" font-size="8.108" xml:space="preserve" fill="#ffffff" fill-rule="nonzero" stroke="none" stroke-width="1" stroke-linecap="butt" stroke-linejoin="miter" stroke-miterlimit="10" stroke-dasharray="" stroke-dashoffset="0" font-family="Sans Serif" font-weight="400" text-anchor="start" style="mix-blend-mode: normal"><tspan x="0" dy="0">M</tspan></text></g><g stroke-linecap="butt"><path d="M290.31913,318.12768c0,0.60826 -0.4055,1.01377 -1.01377,1.01377h-10.6446c-0.50689,0 -1.01377,-0.40552 -1.01377,-1.01377v-10.84733c0,-0.60826 0.50689,-1.01378 1.01377,-1.01378h10.74597c0.60826,0 1.01377,0.40552 1.01377,1.01378z" fill="#070708" stroke="#b1b5b6" stroke-width="0.5"/><text transform="translate(281.94052,315.7571) scale(0.82481,1.01377)" font-size="8.108" xml:space="preserve" fill="#ffffff" fill-rule="nonzero" stroke="none" stroke-width="1" stroke-linecap="butt" stroke-linejoin="miter" stroke-miterlimit="10" stroke-dasharray="" stroke-dashoffset="0" font-family="AdobeSongStd-Light-GBpc-EUC-H" font-weight="400" text-anchor="start" style="mix-blend-mode: normal"><tspan x="0" dy="0">T</tspan></text></g><path d="M496.64517,254.17164v-47.86719z" fill="none" stroke="#555554" stroke-width="0.725" stroke-linecap="round"/><text transform="translate(350.92138,212.57481) scale(1.5201,1.60641)" font-size="4.4252" xml:space="preserve" fill="#ffffff" fill-rule="nonzero" stroke="none" stroke-width="1" stroke-linecap="butt" stroke-linejoin="miter" stroke-miterlimit="10" stroke-dasharray="" stroke-dashoffset="0" font-family="Sans Serif" font-weight="400" text-anchor="start" style="mix-blend-mode: normal"><tspan x="0" dy="0">丢弃</tspan></text><text transform="translate(350.92138,231.18977) scale(1.5201,1.60641)" font-size="4.4252" xml:space="preserve" fill="#ffffff" fill-rule="nonzero" stroke="none" stroke-width="1" stroke-linecap="butt" stroke-linejoin="miter" stroke-miterlimit="10" stroke-dasharray="" stroke-dashoffset="0" font-family="Sans Serif" font-weight="400" text-anchor="start" style="mix-blend-mode: normal"><tspan x="0" dy="0">换弹</tspan></text><text transform="translate(350.92138,249.8048) scale(1.5201,1.60641)" font-size="4.4252" xml:space="preserve" fill="#ffffff" fill-rule="nonzero" stroke="none" stroke-width="1" stroke-linecap="butt" stroke-linejoin="miter" stroke-miterlimit="10" stroke-dasharray="" stroke-dashoffset="0" font-family="Sans Serif" font-weight="400" text-anchor="start" style="mix-blend-mode: normal"><tspan x="0" dy="0">拾取/开启</tspan></text><g stroke-linecap="butt"><path d="M445.90432,215.44131c0,0.60825 -0.40552,1.01377 -1.01378,1.01377h-10.6446c-0.50689,0 -1.01378,-0.4055 -1.01378,-1.01377v-10.84734c0,-0.60825 0.50689,-1.01377 1.01378,-1.01377h10.74597c0.60826,0 1.01378,0.4055 1.01378,1.01377z" fill="#070708" stroke="#b1b5b6" stroke-width="0.5"/><text transform="translate(436.74562,213.07074) scale(0.82481,1.01377)" font-size="8.108" xml:space="preserve" fill="#ffffff" fill-rule="nonzero" stroke="none" stroke-width="1" stroke-linecap="butt" stroke-linejoin="miter" stroke-miterlimit="10" stroke-dasharray="" stroke-dashoffset="0" font-family="AdobeSongStd-Light-GBpc-EUC-H" font-weight="400" text-anchor="start" style="mix-blend-mode: normal"><tspan x="0" dy="0">Q</tspan></text></g><g stroke="#b1b5b6" stroke-width="0.5" stroke-linecap="butt"><path d="M439.80681,253.12072c0,0 -0.0725,-11.06378 -0.05619,-11.06558c5.6186,-0.02178 6.24848,3.92983 6.24848,3.92983v7.13576z" data-paper-data="{&quot;index&quot;:null}" fill="#070708"/><path d="M433.54322,253.12072v-7.13576c0,0 0.62988,-3.95161 6.24847,-3.92983c0.0163,0.0018 -0.05619,11.06558 -0.05619,11.06558z" data-paper-data="{&quot;index&quot;:null}" fill="#6a6a6a"/><path d="M438.71099,247.98739v-3.28865h2.04765v3.28865z" fill="#070708"/></g><g stroke-linecap="butt"><path d="M445.90432,234.0563c0,0.60825 -0.40552,1.01377 -1.01378,1.01377h-10.6446c-0.50689,0 -1.01378,-0.40552 -1.01378,-1.01377v-10.84733c0,-0.60825 0.50689,-1.01378 1.01378,-1.01378h10.74597c0.60826,0 1.01378,0.40552 1.01378,1.01378z" fill="#070708" stroke="#b1b5b6" stroke-width="0.5"/><text transform="translate(437.24202,231.68571) scale(0.82481,1.01377)" font-size="8.108" xml:space="preserve" fill="#ffffff" fill-rule="nonzero" stroke="none" stroke-width="1" stroke-linecap="butt" stroke-linejoin="miter" stroke-miterlimit="10" stroke-dasharray="" stroke-dashoffset="0" font-family="AdobeSongStd-Light-GBpc-EUC-H" font-weight="400" text-anchor="start" style="mix-blend-mode: normal"><tspan x="0" dy="0">R</tspan></text></g><path d="M341.06001,206.30448v47.86718z" fill="none" stroke="#555554" stroke-width="0.725" stroke-linecap="round"/><g stroke-linecap="butt"><path d="M290.31913,215.44131c0,0.60825 -0.4055,1.01377 -1.01377,1.01377h-10.6446c-0.50689,0 -1.01377,-0.4055 -1.01377,-1.01377v-10.84734c0,-0.60825 0.50689,-1.01377 1.01377,-1.01377h10.74597c0.60826,0 1.01377,0.4055 1.01377,1.01377z" fill="#070708" stroke="#b1b5b6" stroke-width="0.5"/><text transform="translate(282.0877,213.07074) scale(0.82481,1.01377)" font-size="8.108" xml:space="preserve" fill="#ffffff" fill-rule="nonzero" stroke="none" stroke-width="1" stroke-linecap="butt" stroke-linejoin="miter" stroke-miterlimit="10" stroke-dasharray="" stroke-dashoffset="0" font-family="AdobeSongStd-Light-GBpc-EUC-H" font-weight="400" text-anchor="start" style="mix-blend-mode: normal"><tspan x="0" dy="0">1</tspan></text></g><g stroke-linecap="butt"><path d="M290.31913,252.67134c0,0.60826 -0.4055,1.01377 -1.01377,1.01377h-10.6446c-0.50689,0 -1.01377,-0.4055 -1.01377,-1.01377v-10.84733c0,-0.60825 0.50689,-1.01377 1.01377,-1.01377h10.74597c0.60826,0 1.01377,0.40552 1.01377,1.01377z" fill="#070708" stroke="#b1b5b6" stroke-width="0.5"/><text transform="translate(281.82356,250.30074) scale(0.82481,1.01377)" font-size="8.108" xml:space="preserve" fill="#ffffff" fill-rule="nonzero" stroke="none" stroke-width="1" stroke-linecap="butt" stroke-linejoin="miter" stroke-miterlimit="10" stroke-dasharray="" stroke-dashoffset="0" font-family="AdobeSongStd-Light-GBpc-EUC-H" font-weight="400" text-anchor="start" style="mix-blend-mode: normal"><tspan x="0" dy="0">X</tspan></text></g><g stroke-linecap="butt"><path d="M290.31913,234.0563c0,0.60825 -0.4055,1.01377 -1.01377,1.01377h-10.6446c-0.50689,0 -1.01377,-0.40552 -1.01377,-1.01377v-10.84733c0,-0.60825 0.50689,-1.01378 1.01377,-1.01378h10.74597c0.60826,0 1.01377,0.40552 1.01377,1.01378z" fill="#070708" stroke="#b1b5b6" stroke-width="0.5"/><text transform="translate(281.82277,231.68571) scale(0.82481,1.01377)" font-size="8.108" xml:space="preserve" fill="#ffffff" fill-rule="nonzero" stroke="none" stroke-width="1" stroke-linecap="butt" stroke-linejoin="miter" stroke-miterlimit="10" stroke-dasharray="" stroke-dashoffset="0" font-family="AdobeSongStd-Light-GBpc-EUC-H" font-weight="400" text-anchor="start" style="mix-blend-mode: normal"><tspan x="0" dy="0">2</tspan></text></g></g></g></svg>