<svg version="1.1" xmlns="http://www.w3.org/2000/svg" xmlns:xlink="http://www.w3.org/1999/xlink" width="31.37863" height="31.2815"><g transform="translate(-224.26664,-164.45363)"><g data-paper-data="{&quot;isPaintingLayer&quot;:true}" fill="none" fill-rule="nonzero" stroke="none" stroke-width="none" stroke-linecap="none" stroke-linejoin="miter" stroke-miterlimit="10" stroke-dasharray="" stroke-dashoffset="0" font-family="none" font-weight="none" font-size="none" text-anchor="none" style="mix-blend-mode: normal"><path d="M242.95606,180.02975c0,1.69315 -1.329,3.06572 -2.9684,3.06572c-1.6394,0 -2.9684,-1.37257 -2.9684,-3.06572c0,-1.69315 1.329,-3.06572 2.9684,-3.06572c1.6394,0 2.9684,1.37257 2.9684,3.06572z" data-paper-data="{&quot;origPos&quot;:null}" fill="none" stroke="#ff0000" stroke-width="1.5" stroke-linecap="butt"/><path d="M240.10194,165.20363v11.19232" data-paper-data="{&quot;origPos&quot;:null}" fill="none" stroke="#ff0000" stroke-width="1.5" stroke-linecap="round"/><path d="M254.89527,179.99695l-11.095,-0.09732" data-paper-data="{&quot;origPos&quot;:null}" fill="none" stroke="#ff0000" stroke-width="1.5" stroke-linecap="round"/><path d="M240.06589,183.3058l-0.02522,11.67933" data-paper-data="{&quot;origPos&quot;:null,&quot;origRot&quot;:0}" fill="none" stroke="#ff0000" stroke-width="1.5" stroke-linecap="round"/><path d="M225.01664,179.99695l11.97092,-0.09732" data-paper-data="{&quot;origPos&quot;:null}" fill="none" stroke="#ff0000" stroke-width="1.5" stroke-linecap="round"/><path d="M238.60521,179.99745c0,-0.69036 0.55964,-1.25 1.25,-1.25c0.69036,0 1.25,0.55964 1.25,1.25c0,0.69036 -0.55964,1.25 -1.25,1.25c-0.69036,0 -1.25,-0.55964 -1.25,-1.25z" fill="#ff0000" stroke="none" stroke-width="0.5" stroke-linecap="butt"/></g></g></svg>