<svg version="1.1" xmlns="http://www.w3.org/2000/svg" xmlns:xlink="http://www.w3.org/1999/xlink" width="95.5" height="68.59181" viewBox="0,0,95.5,68.59181"><g transform="translate(-192.25,-145.70409)"><g data-paper-data="{&quot;isPaintingLayer&quot;:true}" fill-rule="nonzero" stroke-linejoin="miter" stroke-miterlimit="10" stroke-dasharray="" stroke-dashoffset="0" style="mix-blend-mode: normal"><path d="M204.25,168.02366v0c0,0 18.29133,-8.53758 30.88699,-10.2865c1.74407,-0.24216 2.24789,-0.12841 4.00829,-0.16559c1.90781,-0.0403 3.49416,-0.20166 5.38732,0.03772c4.6877,0.59276 31.2174,12.91437 31.2174,12.91437" data-paper-data="{&quot;origPos&quot;:null}" fill="none" stroke="#ff0000" stroke-width="24" stroke-linecap="round"/><path d="M247.11966,194.09589c0,4.52874 -3.60851,8.2 -8.05983,8.2c-4.45132,0 -8.05983,-3.67126 -8.05983,-8.2c0,-4.52874 3.60851,-8.2 8.05983,-8.2c4.45132,0 8.05983,3.67126 8.05983,8.2z" data-paper-data="{&quot;origPos&quot;:null}" fill="#ff0000" stroke="#ff0000" stroke-width="24" stroke-linecap="butt"/><path d="M233.99999,195c0,-2.76142 2.23858,-5 5,-5c2.76142,0 5,2.23858 5,5c0,2.76142 -2.23858,5 -5,5c-2.76142,0 -5,-2.23858 -5,-5z" fill="#ffffff" stroke="none" stroke-width="0" stroke-linecap="butt"/></g></g></svg>