<svg version="1.1" xmlns="http://www.w3.org/2000/svg" xmlns:xlink="http://www.w3.org/1999/xlink" width="379.00199" height="165.50202" viewBox="0,0,379.00199,165.50202"><defs><linearGradient x1="360.46398" y1="234.96558" x2="356.35992" y2="238.78889" gradientUnits="userSpaceOnUse" id="color-1"><stop offset="0" stop-color="#fc8d43"/><stop offset="1" stop-color="#7e481f"/></linearGradient><linearGradient x1="374.59456" y1="254.32883" x2="371.8183" y2="256.91517" gradientUnits="userSpaceOnUse" id="color-2"><stop offset="0" stop-color="#ffdb81"/><stop offset="1" stop-color="#daa92e"/></linearGradient><linearGradient x1="374.59456" y1="254.32883" x2="377.37084" y2="251.74247" gradientUnits="userSpaceOnUse" id="color-3"><stop offset="0" stop-color="#ffdb81"/><stop offset="1" stop-color="#daa92e"/></linearGradient><linearGradient x1="374.88956" y1="253.99388" x2="372.75395" y2="255.9834" gradientUnits="userSpaceOnUse" id="color-4"><stop offset="0" stop-color="#ffde8b"/><stop offset="1" stop-color="#ffde8b" stop-opacity="0"/></linearGradient><linearGradient x1="374.23958" y1="254.5994" x2="376.37519" y2="252.60989" gradientUnits="userSpaceOnUse" id="color-5"><stop offset="0" stop-color="#ffde8b"/><stop offset="1" stop-color="#ffde8b" stop-opacity="0"/></linearGradient><linearGradient x1="373.3073" y1="255.4679" x2="371.92913" y2="256.75176" gradientUnits="userSpaceOnUse" id="color-6"><stop offset="0" stop-color="#6d5f3c"/><stop offset="1" stop-color="#6d5f3c" stop-opacity="0"/></linearGradient><linearGradient x1="373.20652" y1="255.56181" x2="374.58469" y2="254.2779" gradientUnits="userSpaceOnUse" id="color-7"><stop offset="0" stop-color="#6d5f3c"/><stop offset="1" stop-color="#6d5f3c" stop-opacity="0"/></linearGradient><linearGradient x1="364.04305" y1="243.00248" x2="361.26677" y2="245.58886" gradientUnits="userSpaceOnUse" id="color-8"><stop offset="0" stop-color="#ffdb81"/><stop offset="1" stop-color="#daa92e"/></linearGradient><linearGradient x1="364.04305" y1="243.00248" x2="366.81931" y2="240.41615" gradientUnits="userSpaceOnUse" id="color-9"><stop offset="0" stop-color="#ffdb81"/><stop offset="1" stop-color="#daa92e"/></linearGradient><linearGradient x1="364.36467" y1="242.69614" x2="362.22905" y2="244.68565" gradientUnits="userSpaceOnUse" id="color-10"><stop offset="0" stop-color="#ffde8b"/><stop offset="1" stop-color="#ffde8b" stop-opacity="0"/></linearGradient><linearGradient x1="363.71469" y1="243.30163" x2="365.85029" y2="241.31212" gradientUnits="userSpaceOnUse" id="color-11"><stop offset="0" stop-color="#ffde8b"/><stop offset="1" stop-color="#ffde8b" stop-opacity="0"/></linearGradient><linearGradient x1="362.7824" y1="244.17017" x2="361.40423" y2="245.45406" gradientUnits="userSpaceOnUse" id="color-12"><stop offset="0" stop-color="#6d5f3c"/><stop offset="1" stop-color="#6d5f3c" stop-opacity="0"/></linearGradient><linearGradient x1="362.68161" y1="244.26403" x2="364.0598" y2="242.98015" gradientUnits="userSpaceOnUse" id="color-13"><stop offset="0" stop-color="#6d5f3c"/><stop offset="1" stop-color="#6d5f3c" stop-opacity="0"/></linearGradient><linearGradient x1="361.88915" y1="240.57522" x2="359.85726" y2="242.46815" gradientUnits="userSpaceOnUse" id="color-14"><stop offset="0" stop-color="#ffdb81"/><stop offset="1" stop-color="#daa92e"/></linearGradient><linearGradient x1="361.88915" y1="240.57522" x2="363.92109" y2="238.68228" gradientUnits="userSpaceOnUse" id="color-15"><stop offset="0" stop-color="#ffdb81"/><stop offset="1" stop-color="#daa92e"/></linearGradient><linearGradient x1="362.1233" y1="240.34963" x2="360.5603" y2="241.80574" gradientUnits="userSpaceOnUse" id="color-16"><stop offset="0" stop-color="#ffde8b"/><stop offset="1" stop-color="#ffde8b" stop-opacity="0"/></linearGradient><linearGradient x1="361.64762" y1="240.79278" x2="363.21061" y2="239.33672" gradientUnits="userSpaceOnUse" id="color-17"><stop offset="0" stop-color="#ffde8b"/><stop offset="1" stop-color="#ffde8b" stop-opacity="0"/></linearGradient><linearGradient x1="360.96528" y1="241.42846" x2="359.95661" y2="242.36814" gradientUnits="userSpaceOnUse" id="color-18"><stop offset="0" stop-color="#6d5f3c"/><stop offset="1" stop-color="#6d5f3c" stop-opacity="0"/></linearGradient><linearGradient x1="360.89153" y1="241.49718" x2="361.90018" y2="240.55753" gradientUnits="userSpaceOnUse" id="color-19"><stop offset="0" stop-color="#6d5f3c"/><stop offset="1" stop-color="#6d5f3c" stop-opacity="0"/></linearGradient><linearGradient x1="383.40826" y1="263.78972" x2="380.45092" y2="266.54474" gradientUnits="userSpaceOnUse" id="color-20"><stop offset="0" stop-color="#ffdb81"/><stop offset="1" stop-color="#daa92e"/></linearGradient><linearGradient x1="383.40826" y1="263.78972" x2="386.36559" y2="261.03468" gradientUnits="userSpaceOnUse" id="color-21"><stop offset="0" stop-color="#ffdb81"/><stop offset="1" stop-color="#daa92e"/></linearGradient><linearGradient x1="383.75176" y1="263.46432" x2="381.4769" y2="265.5836" gradientUnits="userSpaceOnUse" id="color-22"><stop offset="0" stop-color="#ffde8b"/><stop offset="1" stop-color="#ffde8b" stop-opacity="0"/></linearGradient><linearGradient x1="383.05941" y1="264.10931" x2="385.33426" y2="261.9901" gradientUnits="userSpaceOnUse" id="color-23"><stop offset="0" stop-color="#ffde8b"/><stop offset="1" stop-color="#ffde8b" stop-opacity="0"/></linearGradient><linearGradient x1="382.0663" y1="265.0345" x2="380.59824" y2="266.40209" gradientUnits="userSpaceOnUse" id="color-24"><stop offset="0" stop-color="#6d5f3c"/><stop offset="1" stop-color="#6d5f3c" stop-opacity="0"/></linearGradient><linearGradient x1="381.95896" y1="265.13451" x2="383.42702" y2="263.76687" gradientUnits="userSpaceOnUse" id="color-25"><stop offset="0" stop-color="#6d5f3c"/><stop offset="1" stop-color="#6d5f3c" stop-opacity="0"/></linearGradient><linearGradient x1="381.79137" y1="262.05411" x2="382.60101" y2="262.92321" gradientUnits="userSpaceOnUse" id="color-26"><stop offset="0" stop-color="#72633f" stop-opacity="0"/><stop offset="1" stop-color="#72633f"/></linearGradient><linearGradient x1="384.44933" y1="264.90725" x2="381.81391" y2="267.36242" gradientUnits="userSpaceOnUse" id="color-27"><stop offset="0" stop-color="#ffdb81"/><stop offset="1" stop-color="#daa92e"/></linearGradient><linearGradient x1="384.44933" y1="264.90725" x2="387.0848" y2="262.45207" gradientUnits="userSpaceOnUse" id="color-28"><stop offset="0" stop-color="#ffdb81"/><stop offset="1" stop-color="#daa92e"/></linearGradient><linearGradient x1="384.75706" y1="264.61902" x2="382.72977" y2="266.50759" gradientUnits="userSpaceOnUse" id="color-29"><stop offset="0" stop-color="#ffde8b"/><stop offset="1" stop-color="#ffde8b" stop-opacity="0"/></linearGradient><linearGradient x1="384.14005" y1="265.19379" x2="386.16734" y2="263.30521" gradientUnits="userSpaceOnUse" id="color-30"><stop offset="0" stop-color="#ffde8b"/><stop offset="1" stop-color="#ffde8b" stop-opacity="0"/></linearGradient><linearGradient x1="383.25504" y1="266.01822" x2="381.94679" y2="267.23704" gradientUnits="userSpaceOnUse" id="color-31"><stop offset="0" stop-color="#6d5f3c"/><stop offset="1" stop-color="#6d5f3c" stop-opacity="0"/></linearGradient><linearGradient x1="383.15938" y1="266.10738" x2="384.46766" y2="264.88858" gradientUnits="userSpaceOnUse" id="color-32"><stop offset="0" stop-color="#6d5f3c"/><stop offset="1" stop-color="#6d5f3c" stop-opacity="0"/></linearGradient><linearGradient x1="384.91653" y1="265.44908" x2="381.97931" y2="268.18537" gradientUnits="userSpaceOnUse" id="color-33"><stop offset="0" stop-color="#ffdb81"/><stop offset="1" stop-color="#daa92e"/></linearGradient><linearGradient x1="384.91653" y1="265.44908" x2="387.85376" y2="262.71279" gradientUnits="userSpaceOnUse" id="color-34"><stop offset="0" stop-color="#ffdb81"/><stop offset="1" stop-color="#daa92e"/></linearGradient><linearGradient x1="385.25954" y1="265.12791" x2="383.00014" y2="267.23274" gradientUnits="userSpaceOnUse" id="color-35"><stop offset="0" stop-color="#ffde8b"/><stop offset="1" stop-color="#ffde8b" stop-opacity="0"/></linearGradient><linearGradient x1="384.5719" y1="265.76849" x2="386.83131" y2="263.66364" gradientUnits="userSpaceOnUse" id="color-36"><stop offset="0" stop-color="#ffde8b"/><stop offset="1" stop-color="#ffde8b" stop-opacity="0"/></linearGradient><linearGradient x1="383.58556" y1="266.68737" x2="382.12748" y2="268.04569" gradientUnits="userSpaceOnUse" id="color-37"><stop offset="0" stop-color="#6d5f3c"/><stop offset="1" stop-color="#6d5f3c" stop-opacity="0"/></linearGradient><linearGradient x1="383.47894" y1="266.78668" x2="384.937" y2="265.42839" gradientUnits="userSpaceOnUse" id="color-38"><stop offset="0" stop-color="#6d5f3c"/><stop offset="1" stop-color="#6d5f3c" stop-opacity="0"/></linearGradient><linearGradient x1="357.46173" y1="236.17993" x2="359.27236" y2="234.49316" gradientUnits="userSpaceOnUse" id="color-39"><stop offset="0" stop-color="#ffc59e"/><stop offset="1" stop-color="#ffc59e" stop-opacity="0"/></linearGradient><linearGradient x1="357.82386" y1="235.84256" x2="356.01323" y2="237.52934" gradientUnits="userSpaceOnUse" id="color-40"><stop offset="0" stop-color="#ffc59e"/><stop offset="1" stop-color="#ffc59e" stop-opacity="0"/></linearGradient><linearGradient x1="50.53606" y1="120.96558" x2="54.64012" y2="124.78888" gradientUnits="userSpaceOnUse" id="color-41"><stop offset="0" stop-color="#fc8d43"/><stop offset="1" stop-color="#7e481f"/></linearGradient><linearGradient x1="36.40548" y1="140.3288" x2="39.18174" y2="142.91517" gradientUnits="userSpaceOnUse" id="color-42"><stop offset="0" stop-color="#ffdb81"/><stop offset="1" stop-color="#daa92e"/></linearGradient><linearGradient x1="36.40548" y1="140.3288" x2="33.6292" y2="137.74246" gradientUnits="userSpaceOnUse" id="color-43"><stop offset="0" stop-color="#ffdb81"/><stop offset="1" stop-color="#daa92e"/></linearGradient><linearGradient x1="36.11048" y1="139.99388" x2="38.24607" y2="141.98337" gradientUnits="userSpaceOnUse" id="color-44"><stop offset="0" stop-color="#ffde8b"/><stop offset="1" stop-color="#ffde8b" stop-opacity="0"/></linearGradient><linearGradient x1="36.76046" y1="140.59938" x2="34.62485" y2="138.60987" gradientUnits="userSpaceOnUse" id="color-45"><stop offset="0" stop-color="#ffde8b"/><stop offset="1" stop-color="#ffde8b" stop-opacity="0"/></linearGradient><linearGradient x1="37.69274" y1="141.46788" x2="39.07091" y2="142.75178" gradientUnits="userSpaceOnUse" id="color-46"><stop offset="0" stop-color="#6d5f3c"/><stop offset="1" stop-color="#6d5f3c" stop-opacity="0"/></linearGradient><linearGradient x1="37.79352" y1="141.56178" x2="36.41535" y2="140.27785" gradientUnits="userSpaceOnUse" id="color-47"><stop offset="0" stop-color="#6d5f3c"/><stop offset="1" stop-color="#6d5f3c" stop-opacity="0"/></linearGradient><linearGradient x1="46.95699" y1="129.00248" x2="49.73327" y2="131.58885" gradientUnits="userSpaceOnUse" id="color-48"><stop offset="0" stop-color="#ffdb81"/><stop offset="1" stop-color="#daa92e"/></linearGradient><linearGradient x1="46.95699" y1="129.00248" x2="44.18072" y2="126.41615" gradientUnits="userSpaceOnUse" id="color-49"><stop offset="0" stop-color="#ffdb81"/><stop offset="1" stop-color="#daa92e"/></linearGradient><linearGradient x1="46.63537" y1="128.6961" x2="48.77098" y2="130.68563" gradientUnits="userSpaceOnUse" id="color-50"><stop offset="0" stop-color="#ffde8b"/><stop offset="1" stop-color="#ffde8b" stop-opacity="0"/></linearGradient><linearGradient x1="47.28535" y1="129.30163" x2="45.14975" y2="127.31213" gradientUnits="userSpaceOnUse" id="color-51"><stop offset="0" stop-color="#ffde8b"/><stop offset="1" stop-color="#ffde8b" stop-opacity="0"/></linearGradient><linearGradient x1="48.21764" y1="130.17015" x2="49.59581" y2="131.45405" gradientUnits="userSpaceOnUse" id="color-52"><stop offset="0" stop-color="#6d5f3c"/><stop offset="1" stop-color="#6d5f3c" stop-opacity="0"/></linearGradient><linearGradient x1="48.31843" y1="130.26403" x2="46.94024" y2="128.98012" gradientUnits="userSpaceOnUse" id="color-53"><stop offset="0" stop-color="#6d5f3c"/><stop offset="1" stop-color="#6d5f3c" stop-opacity="0"/></linearGradient><linearGradient x1="49.11087" y1="126.57523" x2="51.14278" y2="128.46812" gradientUnits="userSpaceOnUse" id="color-54"><stop offset="0" stop-color="#ffdb81"/><stop offset="1" stop-color="#daa92e"/></linearGradient><linearGradient x1="49.11087" y1="126.57523" x2="47.07895" y2="124.6823" gradientUnits="userSpaceOnUse" id="color-55"><stop offset="0" stop-color="#ffdb81"/><stop offset="1" stop-color="#daa92e"/></linearGradient><linearGradient x1="48.87674" y1="126.34965" x2="50.43974" y2="127.80573" gradientUnits="userSpaceOnUse" id="color-56"><stop offset="0" stop-color="#ffde8b"/><stop offset="1" stop-color="#ffde8b" stop-opacity="0"/></linearGradient><linearGradient x1="49.35242" y1="126.79281" x2="47.78941" y2="125.33671" gradientUnits="userSpaceOnUse" id="color-57"><stop offset="0" stop-color="#ffde8b"/><stop offset="1" stop-color="#ffde8b" stop-opacity="0"/></linearGradient><linearGradient x1="50.03476" y1="127.42847" x2="51.04343" y2="128.36811" gradientUnits="userSpaceOnUse" id="color-58"><stop offset="0" stop-color="#6d5f3c"/><stop offset="1" stop-color="#6d5f3c" stop-opacity="0"/></linearGradient><linearGradient x1="50.10851" y1="127.49717" x2="49.09986" y2="126.55752" gradientUnits="userSpaceOnUse" id="color-59"><stop offset="0" stop-color="#6d5f3c"/><stop offset="1" stop-color="#6d5f3c" stop-opacity="0"/></linearGradient><linearGradient x1="27.59178" y1="149.78967" x2="30.54912" y2="152.54474" gradientUnits="userSpaceOnUse" id="color-60"><stop offset="0" stop-color="#ffdb81"/><stop offset="1" stop-color="#daa92e"/></linearGradient><linearGradient x1="27.59178" y1="149.78967" x2="24.63445" y2="147.03465" gradientUnits="userSpaceOnUse" id="color-61"><stop offset="0" stop-color="#ffdb81"/><stop offset="1" stop-color="#daa92e"/></linearGradient><linearGradient x1="27.24828" y1="149.46434" x2="29.52314" y2="151.5836" gradientUnits="userSpaceOnUse" id="color-62"><stop offset="0" stop-color="#ffde8b"/><stop offset="1" stop-color="#ffde8b" stop-opacity="0"/></linearGradient><linearGradient x1="27.94063" y1="150.10933" x2="25.66576" y2="147.99007" gradientUnits="userSpaceOnUse" id="color-63"><stop offset="0" stop-color="#ffde8b"/><stop offset="1" stop-color="#ffde8b" stop-opacity="0"/></linearGradient><linearGradient x1="28.93374" y1="151.03447" x2="30.4018" y2="152.40211" gradientUnits="userSpaceOnUse" id="color-64"><stop offset="0" stop-color="#6d5f3c"/><stop offset="1" stop-color="#6d5f3c" stop-opacity="0"/></linearGradient><linearGradient x1="29.04108" y1="151.1345" x2="27.57302" y2="149.76684" gradientUnits="userSpaceOnUse" id="color-65"><stop offset="0" stop-color="#6d5f3c"/><stop offset="1" stop-color="#6d5f3c" stop-opacity="0"/></linearGradient><linearGradient x1="29.20866" y1="148.05408" x2="28.39901" y2="148.92318" gradientUnits="userSpaceOnUse" id="color-66"><stop offset="0" stop-color="#72633f" stop-opacity="0"/><stop offset="1" stop-color="#72633f"/></linearGradient><linearGradient x1="26.55069" y1="150.90724" x2="29.18613" y2="153.36244" gradientUnits="userSpaceOnUse" id="color-67"><stop offset="0" stop-color="#ffdb81"/><stop offset="1" stop-color="#daa92e"/></linearGradient><linearGradient x1="26.55069" y1="150.90724" x2="23.91523" y2="148.45209" gradientUnits="userSpaceOnUse" id="color-68"><stop offset="0" stop-color="#ffdb81"/><stop offset="1" stop-color="#daa92e"/></linearGradient><linearGradient x1="26.24298" y1="150.61901" x2="28.27026" y2="152.50761" gradientUnits="userSpaceOnUse" id="color-69"><stop offset="0" stop-color="#ffde8b"/><stop offset="1" stop-color="#ffde8b" stop-opacity="0"/></linearGradient><linearGradient x1="26.85999" y1="151.19379" x2="24.8327" y2="149.30516" gradientUnits="userSpaceOnUse" id="color-70"><stop offset="0" stop-color="#ffde8b"/><stop offset="1" stop-color="#ffde8b" stop-opacity="0"/></linearGradient><linearGradient x1="27.745" y1="152.01824" x2="29.05325" y2="153.23704" gradientUnits="userSpaceOnUse" id="color-71"><stop offset="0" stop-color="#6d5f3c"/><stop offset="1" stop-color="#6d5f3c" stop-opacity="0"/></linearGradient><linearGradient x1="27.84066" y1="152.10737" x2="26.53238" y2="150.8886" gradientUnits="userSpaceOnUse" id="color-72"><stop offset="0" stop-color="#6d5f3c"/><stop offset="1" stop-color="#6d5f3c" stop-opacity="0"/></linearGradient><linearGradient x1="26.08351" y1="151.44905" x2="29.02073" y2="154.18536" gradientUnits="userSpaceOnUse" id="color-73"><stop offset="0" stop-color="#ffdb81"/><stop offset="1" stop-color="#daa92e"/></linearGradient><linearGradient x1="26.08351" y1="151.44905" x2="23.14628" y2="148.71276" gradientUnits="userSpaceOnUse" id="color-74"><stop offset="0" stop-color="#ffdb81"/><stop offset="1" stop-color="#daa92e"/></linearGradient><linearGradient x1="25.7405" y1="151.12789" x2="27.9999" y2="153.23274" gradientUnits="userSpaceOnUse" id="color-75"><stop offset="0" stop-color="#ffde8b"/><stop offset="1" stop-color="#ffde8b" stop-opacity="0"/></linearGradient><linearGradient x1="26.42814" y1="151.76847" x2="24.16873" y2="149.66366" gradientUnits="userSpaceOnUse" id="color-76"><stop offset="0" stop-color="#ffde8b"/><stop offset="1" stop-color="#ffde8b" stop-opacity="0"/></linearGradient><linearGradient x1="27.41448" y1="152.68739" x2="28.87256" y2="154.04569" gradientUnits="userSpaceOnUse" id="color-77"><stop offset="0" stop-color="#6d5f3c"/><stop offset="1" stop-color="#6d5f3c" stop-opacity="0"/></linearGradient><linearGradient x1="27.5211" y1="152.7867" x2="26.06304" y2="151.42839" gradientUnits="userSpaceOnUse" id="color-78"><stop offset="0" stop-color="#6d5f3c"/><stop offset="1" stop-color="#6d5f3c" stop-opacity="0"/></linearGradient><linearGradient x1="53.53831" y1="122.17992" x2="51.72768" y2="120.49316" gradientUnits="userSpaceOnUse" id="color-79"><stop offset="0" stop-color="#ffc59e"/><stop offset="1" stop-color="#ffc59e" stop-opacity="0"/></linearGradient><linearGradient x1="53.17618" y1="121.84256" x2="54.98681" y2="123.52934" gradientUnits="userSpaceOnUse" id="color-80"><stop offset="0" stop-color="#ffc59e"/><stop offset="1" stop-color="#ffc59e" stop-opacity="0"/></linearGradient></defs><g transform="translate(-15.49803,-109.49803)"><g data-paper-data="{&quot;isPaintingLayer&quot;:true}" fill-rule="nonzero" stroke-width="0" stroke-linecap="butt" stroke-linejoin="miter" stroke-miterlimit="10" stroke-dasharray="" stroke-dashoffset="0" style="mix-blend-mode: normal"><path d="M42,162.50197c-14.63663,0 -26.50197,-11.86534 -26.50197,-26.50197c0,-14.63663 11.86534,-26.50197 26.50197,-26.50197c14.63663,0 26.50197,11.86534 26.50197,26.50197c0,14.63663 -11.86534,26.50197 -26.50197,26.50197z" fill-opacity="0.20784" fill="#000000" stroke="none"/><path d="M394.50001,249.50005c0,14.08326 -11.41674,25.5 -25.5,25.5c-14.08326,0 -25.5,-11.41674 -25.5,-25.5c0,-14.08326 11.41674,-25.5 25.5,-25.5c14.08326,0 25.5,11.41674 25.5,25.5z" fill-opacity="0.20784" fill="#000000" stroke="none"/><g data-paper-data="{&quot;origRot&quot;:0}"><path d="M358.27158,240.84093c-1.05577,-1.1333 -4.81623,-7.01197 -3.68293,-8.06776c1.1333,-1.05577 6.73121,3.11115 7.787,4.24444c1.05578,1.13331 0.99293,2.9079 -0.14038,3.96369c-1.13331,1.05578 -2.90792,0.99293 -3.96369,-0.14037z" data-paper-data="{&quot;origPos&quot;:null}" fill="url(#color-1)" stroke="#888888"/><g data-paper-data="{&quot;origPos&quot;:null}" stroke="#888888"><g data-paper-data="{&quot;origPos&quot;:null}"><path d="M362.20377,246.59467l2.77628,-2.58636l19.22902,20.64103l-2.77628,2.58636z" data-paper-data="{&quot;origPos&quot;:null}" fill="url(#color-2)"/><path d="M386.98533,262.06296l-2.77628,2.58636l-19.22902,-20.64103l2.77628,-2.58636z" data-paper-data="{&quot;origPos&quot;:null,&quot;index&quot;:null}" fill="url(#color-3)"/></g><g data-paper-data="{&quot;origPos&quot;:null}"><path d="M363.13946,245.66285l2.13558,-1.9895l19.22901,20.64102l-2.13559,1.98951z" data-paper-data="{&quot;origPos&quot;:null}" fill="url(#color-4)"/><path d="M385.98969,262.93039l-2.13559,1.9895l-19.22901,-20.64102l2.13559,-1.98951z" data-paper-data="{&quot;origPos&quot;:null,&quot;index&quot;:null}" fill="url(#color-5)"/></g><g data-paper-data="{&quot;origPos&quot;:null}"><path d="M362.31462,246.43129l1.37818,-1.2839l19.22901,20.64102l-1.37817,1.2839z" data-paper-data="{&quot;origPos&quot;:null}" fill="url(#color-6)"/><path d="M384.19919,264.59837l-1.37818,1.2839l-19.22901,-20.64102l1.37817,-1.2839z" data-paper-data="{&quot;origPos&quot;:null,&quot;index&quot;:null}" fill="url(#color-7)"/></g></g><g data-paper-data="{&quot;origPos&quot;:null}" stroke="#888888"><g data-paper-data="{&quot;origPos&quot;:null}"><path d="M360.96979,243.69691l1.99167,-1.85543l2.16318,2.32202l-2.77628,2.58637z" data-paper-data="{&quot;origPos&quot;:null}" fill="url(#color-8)"/><path d="M367.90091,241.57714l-2.77628,2.58636l-2.16317,-2.32201l2.11239,-1.96788z" data-paper-data="{&quot;origPos&quot;:null,&quot;index&quot;:null}" fill="url(#color-9)"/></g><g data-paper-data="{&quot;origPos&quot;:null}"><path d="M361.14748,243.52463l2.13559,-1.98951l2.16317,2.32202l-2.13559,1.9895z" data-paper-data="{&quot;origPos&quot;:null}" fill="url(#color-10)"/><path d="M366.93186,242.47313l-2.1356,1.9895l-2.16316,-2.32201l2.13559,-1.9895z" data-paper-data="{&quot;origPos&quot;:null,&quot;index&quot;:null}" fill="url(#color-11)"/></g><g data-paper-data="{&quot;origPos&quot;:null}"><path d="M360.9779,243.68261l0.72291,-0.67346l2.16317,2.32201l-1.44714,1.34815z" data-paper-data="{&quot;origPos&quot;:null}" fill="url(#color-12)"/><path d="M365.14138,244.14116l-1.37818,1.2839l-2.16317,-2.32201l1.37818,-1.2839z" data-paper-data="{&quot;origPos&quot;:null,&quot;index&quot;:null}" fill="url(#color-13)"/></g></g><g data-paper-data="{&quot;origPos&quot;:null}" stroke="#888888"><g data-paper-data="{&quot;origPos&quot;:null}"><path d="M358.66339,241.18661l2.03191,-1.89293l2.38773,2.56305l-2.03192,1.89292z" data-paper-data="{&quot;origPos&quot;:null}" fill="url(#color-14)"/><path d="M365.11496,239.96385l-2.03192,1.89292l-2.38772,-2.56306l2.03191,-1.89291z" data-paper-data="{&quot;origPos&quot;:null,&quot;index&quot;:null}" fill="url(#color-15)"/></g><g data-paper-data="{&quot;origPos&quot;:null}"><path d="M359.36641,240.5242l1.56301,-1.45609l2.38772,2.56306l-1.56301,1.45609z" data-paper-data="{&quot;origPos&quot;:null}" fill="url(#color-16)"/><path d="M364.40449,240.61825l-1.563,1.45609l-2.38772,-2.56306l1.563,-1.45609z" data-paper-data="{&quot;origPos&quot;:null,&quot;index&quot;:null}" fill="url(#color-17)"/></g><g data-paper-data="{&quot;origPos&quot;:null}"><path d="M358.76274,241.08661l1.00867,-0.93967l2.38772,2.56306l-1.00866,0.93966z" data-paper-data="{&quot;origPos&quot;:null}" fill="url(#color-18)"/><path d="M363.09403,241.83904l-1.00866,0.93966l-2.38772,-2.56306l1.00866,-0.93966z" data-paper-data="{&quot;origPos&quot;:null,&quot;index&quot;:null}" fill="url(#color-19)"/></g></g><g data-paper-data="{&quot;origPos&quot;:null}" stroke="#888888"><g data-paper-data="{&quot;origPos&quot;:null}"><path d="M379.59388,265.62478l2.95735,-2.75503l1.71408,1.83994l-2.95735,2.75503z" data-paper-data="{&quot;origPos&quot;:null}" fill="url(#color-20)"/><path d="M387.22264,261.95466l-2.95735,2.75505l-1.71408,-1.83994l2.95735,-2.75505z" data-paper-data="{&quot;origPos&quot;:null,&quot;index&quot;:null}" fill="url(#color-21)"/></g><g data-paper-data="{&quot;origPos&quot;:null}"><path d="M380.61985,264.66362l2.27487,-2.11926l1.71408,1.83994l-2.27487,2.11926z" data-paper-data="{&quot;origPos&quot;:null}" fill="url(#color-22)"/><path d="M386.19131,262.91006l-2.27488,2.11925l-1.71408,-1.83993l2.27487,-2.11926z" data-paper-data="{&quot;origPos&quot;:null,&quot;index&quot;:null}" fill="url(#color-23)"/></g><g data-paper-data="{&quot;origPos&quot;:null}"><path d="M379.7412,265.48215l1.46805,-1.36763l1.71408,1.83994l-1.46805,1.36763z" data-paper-data="{&quot;origPos&quot;:null}" fill="url(#color-24)"/><path d="M384.28403,264.68681l-1.46805,1.36763l-1.71406,-1.83994l1.46805,-1.36763z" data-paper-data="{&quot;origPos&quot;:null,&quot;index&quot;:null}" fill="url(#color-25)"/></g></g><path d="M379.03923,264.61796l5.50428,-5.12774l0.80964,0.86909l-5.50428,5.12775z" data-paper-data="{&quot;origPos&quot;:null}" fill="url(#color-26)" stroke="none"/><g data-paper-data="{&quot;origPos&quot;:null}" stroke="#888888"><g data-paper-data="{&quot;origPos&quot;:null}"><path d="M381.55567,267.0852l2.63545,-2.45516l0.51648,0.5544l-2.63545,2.45516z" data-paper-data="{&quot;origPos&quot;:null}" fill="url(#color-27)"/><path d="M387.34304,262.72927l-2.63545,2.45516l-0.51648,-0.5544l2.63545,-2.45516z" data-paper-data="{&quot;origPos&quot;:null,&quot;index&quot;:null}" fill="url(#color-28)"/></g><g data-paper-data="{&quot;origPos&quot;:null}"><path d="M382.47153,266.23037l2.02726,-1.88859l0.51647,0.55439l-2.02727,1.88858z" data-paper-data="{&quot;origPos&quot;:null}" fill="url(#color-29)"/><path d="M386.42559,263.58243l-2.02728,1.88859l-0.51647,-0.55439l2.02727,-1.8886z" data-paper-data="{&quot;origPos&quot;:null,&quot;index&quot;:null}" fill="url(#color-30)"/></g><g data-paper-data="{&quot;origPos&quot;:null}"><path d="M381.68854,266.95982l1.30827,-1.21878l0.51648,0.5544l-1.30828,1.21878z" data-paper-data="{&quot;origPos&quot;:null}" fill="url(#color-31)"/><path d="M384.7259,265.1658l-1.30827,1.21877l-0.51647,-0.5544l1.30827,-1.21877z" data-paper-data="{&quot;origPos&quot;:null,&quot;index&quot;:null}" fill="url(#color-32)"/></g></g><g data-paper-data="{&quot;origPos&quot;:null}" stroke="#888888"><g data-paper-data="{&quot;origPos&quot;:null}"><path d="M381.72107,267.90815l2.93722,-2.73629l0.51647,0.5544l-2.93722,2.73628z" data-paper-data="{&quot;origPos&quot;:null}" fill="url(#color-33)"/><path d="M388.11198,262.98994l-2.93722,2.73629l-0.51646,-0.55439l2.93722,-2.73629z" data-paper-data="{&quot;origPos&quot;:null,&quot;index&quot;:null}" fill="url(#color-34)"/></g><g data-paper-data="{&quot;origPos&quot;:null}"><path d="M382.74191,266.95554l2.25939,-2.10484l0.51647,0.55439l-2.25939,2.10484z" data-paper-data="{&quot;origPos&quot;:null}" fill="url(#color-35)"/><path d="M387.08955,263.94086l-2.25941,2.10485l-0.51647,-0.5544l2.25941,-2.10484z" data-paper-data="{&quot;origPos&quot;:null,&quot;index&quot;:null}" fill="url(#color-36)"/></g><g data-paper-data="{&quot;origPos&quot;:null}"><path d="M381.86925,267.76849l1.45806,-1.35832l0.51648,0.5544l-1.45806,1.35832z" data-paper-data="{&quot;origPos&quot;:null}" fill="url(#color-37)"/><path d="M385.19526,265.70556l-1.45806,1.35832l-0.51647,-0.55439l1.45806,-1.35832z" data-paper-data="{&quot;origPos&quot;:null,&quot;index&quot;:null}" fill="url(#color-38)"/></g></g><g data-paper-data="{&quot;origPos&quot;:null}" stroke="none"><path d="M359.1149,234.32417c1.60586,1.03459 3.19359,3.4281 3.19359,3.4281l-1.81062,1.68675l-6.07231,-6.51822c0,0 0.46044,-1.3211 4.68935,1.40336z" data-paper-data="{&quot;origPos&quot;:null,&quot;index&quot;:null}" fill="url(#color-39)"/><path d="M360.86,239.10168l-1.81061,1.68675c0,0 -2.15893,-1.88744 -3.10032,-3.4248c-2.64869,-4.32549 -1.16138,-4.78018 -1.16138,-4.78018z" data-paper-data="{&quot;index&quot;:null,&quot;origPos&quot;:null}" fill="url(#color-40)"/></g></g><g data-paper-data="{&quot;origRot&quot;:0,&quot;index&quot;:null}"><path d="M48.76477,126.9813c-1.13331,-1.05579 -1.19616,-2.83038 -0.14038,-3.96369c1.05579,-1.13329 6.6537,-5.30021 7.787,-4.24444c1.1333,1.05579 -2.62716,6.93446 -3.68293,8.06776c-1.05577,1.1333 -2.83038,1.19615 -3.96369,0.14037z" data-paper-data="{&quot;origPos&quot;:null}" fill="url(#color-41)" stroke="#888888"/><g data-paper-data="{&quot;origPos&quot;:null}" stroke="#888888"><g data-paper-data="{&quot;origPos&quot;:null}"><path d="M29.56725,153.23568l-2.77628,-2.58636l19.22902,-20.64103l2.77628,2.58636z" data-paper-data="{&quot;origPos&quot;:null}" fill="url(#color-42)"/><path d="M43.24373,127.42194l2.77628,2.58636l-19.22902,20.64103l-2.77628,-2.58636z" data-paper-data="{&quot;origPos&quot;:null,&quot;index&quot;:null}" fill="url(#color-43)"/></g><g data-paper-data="{&quot;origPos&quot;:null}"><path d="M28.63158,152.30388l-2.13559,-1.98951l19.22901,-20.64102l2.13558,1.9895z" data-paper-data="{&quot;origPos&quot;:null}" fill="url(#color-44)"/><path d="M44.23936,128.28931l2.13559,1.98951l-19.22901,20.64102l-2.13559,-1.9895z" data-paper-data="{&quot;origPos&quot;:null,&quot;index&quot;:null}" fill="url(#color-45)"/></g><g data-paper-data="{&quot;origPos&quot;:null}"><path d="M29.4564,153.07227l-1.37817,-1.2839l19.22901,-20.64102l1.37818,1.2839z" data-paper-data="{&quot;origPos&quot;:null}" fill="url(#color-46)"/><path d="M46.02987,129.95738l1.37817,1.2839l-19.22901,20.64102l-1.37818,-1.2839z" data-paper-data="{&quot;origPos&quot;:null,&quot;index&quot;:null}" fill="url(#color-47)"/></g></g><g data-paper-data="{&quot;origPos&quot;:null}" stroke="#888888"><g data-paper-data="{&quot;origPos&quot;:null}"><path d="M48.65168,132.74982l-2.77628,-2.58637l2.16318,-2.32202l1.99167,1.85543z" data-paper-data="{&quot;origPos&quot;:null}" fill="url(#color-48)"/><path d="M45.92619,125.8736l2.11239,1.96788l-2.16317,2.32201l-2.77628,-2.58636z" data-paper-data="{&quot;origPos&quot;:null,&quot;index&quot;:null}" fill="url(#color-49)"/></g><g data-paper-data="{&quot;origPos&quot;:null}"><path d="M47.68939,131.84664l-2.13559,-1.9895l2.16317,-2.32202l2.13559,1.98951z" data-paper-data="{&quot;origPos&quot;:null}" fill="url(#color-50)"/><path d="M46.23134,126.15111l2.13559,1.9895l-2.16316,2.32201l-2.1356,-1.9895z" data-paper-data="{&quot;origPos&quot;:null,&quot;index&quot;:null}" fill="url(#color-51)"/></g><g data-paper-data="{&quot;origPos&quot;:null}"><path d="M48.5832,132.67926l-1.44714,-1.34815l2.16317,-2.32201l0.72291,0.67346z" data-paper-data="{&quot;origPos&quot;:null}" fill="url(#color-52)"/><path d="M48.02183,127.81914l1.37818,1.2839l-2.16317,2.32201l-1.37818,-1.2839z" data-paper-data="{&quot;origPos&quot;:null,&quot;index&quot;:null}" fill="url(#color-53)"/></g></g><g data-paper-data="{&quot;origPos&quot;:null}" stroke="#888888"><g data-paper-data="{&quot;origPos&quot;:null}"><path d="M49.94893,129.74964l-2.03192,-1.89292l2.38773,-2.56305l2.03191,1.89293z" data-paper-data="{&quot;origPos&quot;:null}" fill="url(#color-54)"/><path d="M48.27281,123.4008l2.03191,1.89291l-2.38772,2.56306l-2.03192,-1.89292z" data-paper-data="{&quot;origPos&quot;:null,&quot;index&quot;:null}" fill="url(#color-55)"/></g><g data-paper-data="{&quot;origPos&quot;:null}"><path d="M49.24589,129.08722l-1.56301,-1.45609l2.38772,-2.56306l1.56301,1.45609z" data-paper-data="{&quot;origPos&quot;:null}" fill="url(#color-56)"/><path d="M48.98327,124.05518l1.563,1.45609l-2.38772,2.56306l-1.563,-1.45609z" data-paper-data="{&quot;origPos&quot;:null,&quot;index&quot;:null}" fill="url(#color-57)"/></g><g data-paper-data="{&quot;origPos&quot;:null}"><path d="M49.84957,129.64963l-1.00866,-0.93966l2.38772,-2.56306l1.00867,0.93967z" data-paper-data="{&quot;origPos&quot;:null}" fill="url(#color-58)"/><path d="M50.29371,125.27598l1.00866,0.93966l-2.38772,2.56306l-1.00866,-0.93966z" data-paper-data="{&quot;origPos&quot;:null,&quot;index&quot;:null}" fill="url(#color-59)"/></g></g><g data-paper-data="{&quot;origPos&quot;:null}" stroke="#888888"><g data-paper-data="{&quot;origPos&quot;:null}"><path d="M29.69208,153.4647l-2.95735,-2.75503l1.71408,-1.83994l2.95735,2.75503z" data-paper-data="{&quot;origPos&quot;:null}" fill="url(#color-60)"/><path d="M25.49148,146.11471l2.95735,2.75505l-1.71408,1.83994l-2.95735,-2.75505z" data-paper-data="{&quot;origPos&quot;:null,&quot;index&quot;:null}" fill="url(#color-61)"/></g><g data-paper-data="{&quot;origPos&quot;:null}"><path d="M28.66611,152.50356l-2.27487,-2.11926l1.71408,-1.83994l2.27487,2.11926z" data-paper-data="{&quot;origPos&quot;:null}" fill="url(#color-62)"/><path d="M26.52282,147.07011l2.27487,2.11926l-1.71408,1.83993l-2.27488,-2.11925z" data-paper-data="{&quot;origPos&quot;:null,&quot;index&quot;:null}" fill="url(#color-63)"/></g><g data-paper-data="{&quot;origPos&quot;:null}"><path d="M29.54476,153.32207l-1.46805,-1.36763l1.71408,-1.83994l1.46805,1.36763z" data-paper-data="{&quot;origPos&quot;:null}" fill="url(#color-64)"/><path d="M28.43007,148.84686l1.46805,1.36763l-1.71406,1.83994l-1.46805,-1.36763z" data-paper-data="{&quot;origPos&quot;:null,&quot;index&quot;:null}" fill="url(#color-65)"/></g></g><path d="M31.15116,151.48704l-5.50428,-5.12775l0.80964,-0.86909l5.50428,5.12774z" data-paper-data="{&quot;origPos&quot;:null}" fill="url(#color-66)" stroke="none"/><g data-paper-data="{&quot;origPos&quot;:null}" stroke="#888888"><g data-paper-data="{&quot;origPos&quot;:null}"><path d="M28.92789,153.63962l-2.63545,-2.45516l0.51648,-0.5544l2.63545,2.45516z" data-paper-data="{&quot;origPos&quot;:null}" fill="url(#color-67)"/><path d="M24.17348,148.17487l2.63545,2.45516l-0.51648,0.5544l-2.63545,-2.45516z" data-paper-data="{&quot;origPos&quot;:null,&quot;index&quot;:null}" fill="url(#color-68)"/></g><g data-paper-data="{&quot;origPos&quot;:null}"><path d="M28.01204,152.78474l-2.02727,-1.88858l0.51647,-0.55439l2.02726,1.88859z" data-paper-data="{&quot;origPos&quot;:null}" fill="url(#color-69)"/><path d="M25.09093,149.02801l2.02727,1.8886l-0.51647,0.55439l-2.02728,-1.88859z" data-paper-data="{&quot;origPos&quot;:null,&quot;index&quot;:null}" fill="url(#color-70)"/></g><g data-paper-data="{&quot;origPos&quot;:null}"><path d="M28.79503,153.51421l-1.30828,-1.21878l0.51648,-0.5544l1.30827,1.21878z" data-paper-data="{&quot;origPos&quot;:null}" fill="url(#color-71)"/><path d="M26.79061,150.6114l1.30827,1.21877l-0.51647,0.5544l-1.30827,-1.21877z" data-paper-data="{&quot;origPos&quot;:null,&quot;index&quot;:null}" fill="url(#color-72)"/></g></g><g data-paper-data="{&quot;origPos&quot;:null}" stroke="#888888"><g data-paper-data="{&quot;origPos&quot;:null}"><path d="M28.7625,154.46254l-2.93722,-2.73628l0.51647,-0.5544l2.93722,2.73629z" data-paper-data="{&quot;origPos&quot;:null}" fill="url(#color-73)"/><path d="M23.40452,148.43554l2.93722,2.73629l-0.51646,0.55439l-2.93722,-2.73629z" data-paper-data="{&quot;origPos&quot;:null,&quot;index&quot;:null}" fill="url(#color-74)"/></g><g data-paper-data="{&quot;origPos&quot;:null}"><path d="M27.74166,153.50996l-2.25939,-2.10484l0.51647,-0.55439l2.25939,2.10484z" data-paper-data="{&quot;origPos&quot;:null}" fill="url(#color-75)"/><path d="M24.42696,149.38646l2.25941,2.10484l-0.51647,0.5544l-2.25941,-2.10485z" data-paper-data="{&quot;origPos&quot;:null,&quot;index&quot;:null}" fill="url(#color-76)"/></g><g data-paper-data="{&quot;origPos&quot;:null}"><path d="M28.61431,154.32291l-1.45806,-1.35832l0.51648,-0.5544l1.45806,1.35832z" data-paper-data="{&quot;origPos&quot;:null}" fill="url(#color-77)"/><path d="M26.32125,151.15121l1.45806,1.35832l-0.51647,0.55439l-1.45806,-1.35832z" data-paper-data="{&quot;origPos&quot;:null,&quot;index&quot;:null}" fill="url(#color-78)"/></g></g><g data-paper-data="{&quot;origPos&quot;:null}" stroke="none"><path d="M51.88513,120.32415c4.22891,-2.72446 4.68935,-1.40336 4.68935,-1.40336l-6.07231,6.51822l-1.81062,-1.68675c0,0 1.58773,-2.39351 3.19359,-3.4281z" data-paper-data="{&quot;origPos&quot;:null,&quot;index&quot;:null}" fill="url(#color-79)"/><path d="M56.21235,118.58346c0,0 1.48731,0.45469 -1.16138,4.78018c-0.94139,1.53736 -3.10032,3.4248 -3.10032,3.4248l-1.81061,-1.68675z" data-paper-data="{&quot;index&quot;:null,&quot;origPos&quot;:null}" fill="url(#color-80)"/></g></g></g></g></svg>