<svg version="1.1" xmlns="http://www.w3.org/2000/svg" xmlns:xlink="http://www.w3.org/1999/xlink" width="65.0872" height="63" viewBox="0,0,65.0872,63"><g transform="translate(-166.24804,-148.8399)"><g data-paper-data="{&quot;isPaintingLayer&quot;:true}" fill-rule="nonzero" stroke-linecap="butt" stroke-linejoin="miter" stroke-miterlimit="10" stroke-dasharray="" stroke-dashoffset="0" style="mix-blend-mode: normal"><path d="M168.74805,209.3399v-58h60.0872v58z" fill-opacity="0.349" fill="#000000" stroke-opacity="0.349" stroke="#000000" stroke-width="5"/><g><path d="M187.75782,203.71108v-30.70346h22.52587v30.70346z" fill="none" stroke="#ffffff" stroke-width="2.5"/><path d="M210.10947,179.05164c0.08091,1.25871 -0.65928,1.80745 -1.26127,2.04488c-1.11276,0.93263 -1.74413,1.52184 -3.43183,2.08399c-0.50568,0.16843 -1.03517,-0.43084 -1.56242,-0.34759c-3.62968,0.57311 -4.50336,1.80357 -7.90722,-0.99129c-2.13523,-1.7532 0.74547,-0.74311 0.63339,-0.79268c-2.09728,-0.92762 -3.42,-0.02931 -5.56876,1.09497c0,0 -1.88427,0.98589 -2.88921,-0.86266c-1.00494,-1.84855 0.87933,-2.83444 0.87933,-2.83444c2.13148,-1.11524 6.31592,-3.47034 8.67914,-1.44644c0.75052,0.64275 1.29766,1.48976 1.8477,2.30467c0.20751,0.30743 0.05313,0.90226 0.40477,1.03245c0.2766,0.1024 -0.24581,-0.7804 0.03556,-0.86943c0.47979,-0.15181 0.95338,0.37924 1.45717,0.3971c0.18432,0.00654 -0.52458,-0.21526 -0.41406,-0.36012c0.23152,-0.30344 0.67195,-0.41049 1.0524,-0.47652c1.18782,-0.20613 2.48709,0.38009 3.61864,-0.02991c0.18849,-0.0683 -0.5446,-0.20307 -0.46022,-0.38198c0.19297,-0.40915 0.7016,-0.58241 1.0524,-0.87361l1.56883,-0.6504c0,0 2.13127,-0.13186 2.26568,1.95902z" fill="#ffffff" stroke="none" stroke-width="0.5"/><path d="M210.1709,188.32452c0.08091,1.25871 -0.65928,1.80746 -1.26127,2.04488c-1.11276,0.93263 -1.74413,1.52184 -3.43183,2.08399c-0.50568,0.16844 -1.03516,-0.43084 -1.56242,-0.34759c-3.62968,0.57311 -4.50336,1.80357 -7.90722,-0.99129c-2.13523,-1.7532 0.74548,-0.74311 0.63339,-0.79269c-2.09728,-0.92761 -3.42001,-0.02931 -5.56877,1.09498c0,0 -1.88427,0.98589 -2.88921,-0.86266c-1.00494,-1.84855 0.87933,-2.83445 0.87933,-2.83445c2.13149,-1.11524 6.31592,-3.47034 8.67914,-1.44644c0.75052,0.64275 1.29766,1.48976 1.84771,2.30467c0.20751,0.30743 0.05313,0.90227 0.40477,1.03245c0.2766,0.10241 -0.24581,-0.7804 0.03556,-0.86943c0.47979,-0.15181 0.95338,0.37924 1.45717,0.3971c0.18432,0.00653 -0.5246,-0.21526 -0.41406,-0.36012c0.23152,-0.30344 0.67195,-0.41049 1.0524,-0.47652c1.18782,-0.20613 2.48709,0.38009 3.61864,-0.02991c0.18849,-0.0683 -0.5446,-0.20307 -0.46021,-0.38198c0.19297,-0.40915 0.7016,-0.58241 1.0524,-0.87361l1.56882,-0.6504c0,0 2.13128,-0.13186 2.26568,1.95901z" fill="#ffffff" stroke="none" stroke-width="0.5"/><path d="M210.23232,197.27974c0.08091,1.25871 -0.65928,1.80746 -1.26127,2.04488c-1.11276,0.93263 -1.74413,1.52184 -3.43183,2.08399c-0.50568,0.16844 -1.03516,-0.43084 -1.56242,-0.34759c-3.62968,0.57311 -4.50336,1.80357 -7.90722,-0.99129c-2.13523,-1.7532 0.74548,-0.74311 0.63339,-0.79269c-2.09728,-0.92761 -3.42001,-0.02931 -5.56877,1.09498c0,0 -1.88427,0.98589 -2.88921,-0.86266c-1.00494,-1.84855 0.87933,-2.83445 0.87933,-2.83445c2.13149,-1.11524 6.31592,-3.47034 8.67914,-1.44644c0.75052,0.64275 1.29766,1.48976 1.84771,2.30467c0.20751,0.30743 0.05313,0.90227 0.40477,1.03245c0.2766,0.10241 -0.24581,-0.7804 0.03556,-0.86943c0.47979,-0.15181 0.95338,0.37924 1.45717,0.3971c0.18432,0.00653 -0.5246,-0.21526 -0.41406,-0.36012c0.23152,-0.30344 0.67195,-0.41049 1.0524,-0.47652c1.18782,-0.20613 2.48709,0.38009 3.61864,-0.02991c0.18849,-0.0683 -0.5446,-0.20307 -0.46021,-0.38198c0.19297,-0.40915 0.7016,-0.58241 1.0524,-0.87361l1.56882,-0.6504c0,0 2.13128,-0.13186 2.26568,1.95901z" fill="#ffffff" stroke="none" stroke-width="0.5"/></g><text transform="translate(172.06832,188.63498) scale(0.66955,0.66955)" font-size="40" xml:space="preserve" fill="#ff0000" fill-rule="nonzero" stroke="none" stroke-width="1" stroke-linecap="butt" stroke-linejoin="miter" stroke-miterlimit="10" stroke-dasharray="" stroke-dashoffset="0" font-family="&quot;Microsoft YaHei&quot;, &quot;微软雅黑&quot;, STXihei, &quot;华文细黑&quot;" font-weight="normal" text-anchor="start" style="mix-blend-mode: normal"><tspan x="0" dy="0">关闭</tspan></text></g></g></svg>