<svg version="1.1" xmlns="http://www.w3.org/2000/svg" xmlns:xlink="http://www.w3.org/1999/xlink" width="206.12506" height="87.81279" viewBox="0,0,206.12506,87.81279"><defs><linearGradient x1="176.32519" y1="198.54799" x2="176.32519" y2="233.40465" gradientUnits="userSpaceOnUse" id="color-1"><stop offset="0" stop-color="#ffffff"/><stop offset="1" stop-color="#535353"/></linearGradient></defs><g transform="translate(-37.39469,-177.43861)"><g data-paper-data="{&quot;isPaintingLayer&quot;:true}" fill-rule="nonzero" stroke-linecap="butt" stroke-linejoin="miter" stroke-miterlimit="10" stroke-dasharray="" stroke-dashoffset="0" style="mix-blend-mode: normal"><path d="M39.8947,262.7514v-82.81279h191.14042c1.94536,1.55467 3.97321,2.94848 6.22805,4.78963c1.31656,1.07502 2.53349,2.23412 3.75659,3.35174v74.67142z" data-paper-data="{&quot;origPos&quot;:null}" fill="#000000" stroke="#4e445e" stroke-width="5"/><text transform="translate(62.41648,254.17399) scale(0.54558,0.54558)" font-size="40" xml:space="preserve" fill="#d200ff" fill-rule="nonzero" stroke="none" stroke-width="1" stroke-linecap="butt" stroke-linejoin="miter" stroke-miterlimit="10" stroke-dasharray="" stroke-dashoffset="0" font-family="&quot;Microsoft YaHei&quot;, &quot;微软雅黑&quot;, STXihei, &quot;华文细黑&quot;" font-weight="normal" text-anchor="start" style="mix-blend-mode: normal"><tspan x="0" dy="0">（仅限S1赛季）</tspan></text><text transform="translate(76.5496,230.65839) scale(0.96085,0.96085)" font-size="40" xml:space="preserve" fill="#d200ff" fill-rule="nonzero" stroke="none" stroke-width="1" stroke-linecap="butt" stroke-linejoin="miter" stroke-miterlimit="10" stroke-dasharray="" stroke-dashoffset="0" font-family="&quot;Microsoft YaHei&quot;, &quot;微软雅黑&quot;, STXihei, &quot;华文细黑&quot;" font-weight="normal" text-anchor="start" style="mix-blend-mode: normal"><tspan x="0" dy="0">500</tspan></text><path d="M161.25181,220.70072c0,0 -7.46789,-7.78458 -7.29282,-8.01034c0.40288,-0.51947 -2.85798,4.02608 -3.66792,3.97765c-1.30988,-0.07834 -0.46501,-6.9567 -0.46501,-6.9567c0,0 -0.72163,-1.14688 2.36405,-3.83138c0.34494,-0.30008 16.76309,-0.17415 20.34876,-0.189c0.41584,-0.00171 2.13813,-0.00247 2.13813,-0.00247c0,0 -2.56727,6.04109 -2.41566,5.89115c0.03472,-0.03434 -1.08873,0.15682 -1.53331,0.14896c-1.54967,-0.02741 -4.34774,-0.09875 -4.43992,0.26863c-0.24432,0.97378 -0.78677,2.63061 -0.45832,2.30751c0.58847,-0.57884 3.20937,5.26475 3.81079,5.04913c0.93378,-0.33478 2.60969,-5.88755 3.17334,-8.3348c0.40003,-1.73681 -0.34141,-0.48274 0.2923,-1.06663c1.0852,-0.9999 2.43551,-6.09855 3.0399,-6.63832c1.30673,-1.16702 0.8071,-1.43405 1.27702,-1.82148c1.38894,-1.14511 1.36422,-0.04715 3.0705,-0.2088c2.28356,-0.21634 14.93383,0.20363 14.93383,0.20363l7.66492,-2.93951l-6.9202,10.97396c0,0 -13.67351,-0.44999 -14.03051,-0.18973c-0.42579,0.3104 -0.31729,2.49307 -0.45238,3.32065c-0.0286,0.17519 11.13453,0.06717 11.13453,0.06717l-2.87585,6.8834l-10.04717,0.4757l-5.15971,13.32552l-13.48927,-12.70391z" fill="url(#color-1)" stroke="#000000" stroke-width="1.5"/></g></g></svg>