<svg version="1.1" xmlns="http://www.w3.org/2000/svg" xmlns:xlink="http://www.w3.org/1999/xlink" width="474.50002" height="332.4386"><g transform="translate(-3.75,-0.75)"><g data-paper-data="{&quot;isPaintingLayer&quot;:true}" fill="none" fill-rule="nonzero" stroke="none" stroke-width="none" stroke-linecap="none" stroke-linejoin="miter" stroke-miterlimit="10" stroke-dasharray="" stroke-dashoffset="0" font-family="none" font-weight="none" font-size="none" text-anchor="none" style="mix-blend-mode: normal"><path d="M4,332.9386v-310h84.7214v310z" data-paper-data="{&quot;origPos&quot;:null}" fill="#333333" stroke="#000000" stroke-width="0.5" stroke-linecap="butt"/><path d="M401.3181,332.9386v-310h76.68192v310z" data-paper-data="{&quot;origPos&quot;:null}" fill="#333333" stroke="#000000" stroke-width="0.5" stroke-linecap="butt"/><path d="M4.01974,65.81094v-64.81094h473.98026v64.81094z" data-paper-data="{&quot;origPos&quot;:null}" fill="#333333" stroke="#000000" stroke-width="0.5" stroke-linecap="butt"/><path d="M40.01976,332.9386v-42.87234h410v42.87234z" data-paper-data="{&quot;origPos&quot;:null}" fill="#333333" stroke="#000000" stroke-width="0.5" stroke-linecap="butt"/><path d="M4.38237,71.35239v-48.0922h83.94659v48.0922z" data-paper-data="{&quot;origPos&quot;:null}" fill="#333333" stroke="none" stroke-width="0" stroke-linecap="butt"/><path d="M401.68071,70.2531v-47.32861h76.08846v47.32861z" data-paper-data="{&quot;origPos&quot;:null}" fill="#333333" stroke="none" stroke-width="0" stroke-linecap="butt"/><path d="M401.52672,332.69827v-43.23759h63.24862v43.23759z" data-paper-data="{&quot;origPos&quot;:null}" fill="#333333" stroke="none" stroke-width="0" stroke-linecap="butt"/><path d="M32.55389,332.66669v-43.64573h55.92311v43.64573z" data-paper-data="{&quot;origPos&quot;:null}" fill="#333333" stroke="none" stroke-width="0" stroke-linecap="butt"/><path d="M54.55323,40.26619c0,4.14214 -3.58172,7.5 -8,7.5c-4.41828,0 -8,-3.35786 -8,-7.5c0,-4.14214 3.58172,-7.5 8,-7.5c4.41828,0 8,3.35786 8,7.5z" data-paper-data="{&quot;origPos&quot;:null}" fill="none" stroke="#f4ff00" stroke-width="2.5" stroke-linecap="butt"/><path d="M59.05323,306.26619c0,4.14213 -3.58172,7.5 -8,7.5c-4.41828,0 -8,-3.35787 -8,-7.5c0,-4.14213 3.58172,-7.5 8,-7.5c4.41828,0 8,3.35787 8,7.5z" data-paper-data="{&quot;origPos&quot;:null}" fill="none" stroke="#f4ff00" stroke-width="2.5" stroke-linecap="butt"/><path d="M449.55323,38.26619c0,4.14214 -3.58172,7.5 -8,7.5c-4.41828,0 -8,-3.35786 -8,-7.5c0,-4.14214 3.58172,-7.5 8,-7.5c4.41828,0 8,3.35786 8,7.5z" data-paper-data="{&quot;origPos&quot;:null}" fill="none" stroke="#f4ff00" stroke-width="2.5" stroke-linecap="butt"/><path d="M451.55323,307.26619c0,4.14213 -3.58172,7.5 -8,7.5c-4.41828,0 -8,-3.35787 -8,-7.5c0,-4.14213 3.58172,-7.5 8,-7.5c4.41828,0 8,3.35787 8,7.5z" data-paper-data="{&quot;origPos&quot;:null}" fill="none" stroke="#f4ff00" stroke-width="2.5" stroke-linecap="butt"/><path d="M441.01003,45.76311c0,0 9.66666,18.70685 9.66666,28.33334c0,10.40701 -3.33333,13.92632 -9.66666,23c-5.80759,8.32046 -10,16.1865 -10,26.33334c0,11.18753 10,28.33333 10,28.33333" data-paper-data="{&quot;origPos&quot;:null}" fill="none" stroke="#f4ff00" stroke-width="2.5" stroke-linecap="round"/><path d="M46.01003,49.76311c0,0 9.66667,18.70685 9.66667,28.33334c0,10.40701 -3.33333,13.92633 -9.66667,23c-5.80759,8.32046 -10,16.1865 -10,26.33334c0,11.18753 10,28.33333 10,28.33333" data-paper-data="{&quot;origPos&quot;:null}" fill="none" stroke="#f4ff00" stroke-width="2.5" stroke-linecap="round"/><path d="M48.01003,119.76311c0,0 9.66667,18.70685 9.66667,28.33334c0,10.40701 -3.33333,13.92632 -9.66667,23c-5.80759,8.32046 -10,16.1865 -10,26.33334c0,11.18753 10,28.33333 10,28.33333" data-paper-data="{&quot;origPos&quot;:null}" fill="none" stroke="#f4ff00" stroke-width="2.5" stroke-linecap="round"/><path d="M51.01003,190.76311c0,0 9.66667,18.70685 9.66667,28.33334c0,10.40701 -3.33333,13.92632 -9.66667,23c-5.80759,8.32046 -10,16.1865 -10,26.33334c0,11.18754 10,28.33333 10,28.33333" data-paper-data="{&quot;origPos&quot;:null}" fill="none" stroke="#f4ff00" stroke-width="2.5" stroke-linecap="round"/><path d="M442.01003,121.76311c0,0 9.66666,18.70685 9.66666,28.33334c0,10.40701 -3.33333,13.92632 -9.66666,23c-5.80759,8.32046 -10,16.1865 -10,26.33334c0,11.18753 10,28.33333 10,28.33333" data-paper-data="{&quot;origPos&quot;:null}" fill="none" stroke="#f4ff00" stroke-width="2.5" stroke-linecap="round"/><path d="M443.01003,193.76311c0,0 9.66666,18.70685 9.66666,28.33334c0,10.40701 -3.33333,13.92632 -9.66666,23c-5.80759,8.32046 -10,16.1865 -10,26.33334c0,11.18753 10,28.33333 10,28.33333" data-paper-data="{&quot;origPos&quot;:null}" fill="none" stroke="#f4ff00" stroke-width="2.5" stroke-linecap="round"/></g></g></svg>