<svg version="1.1" xmlns="http://www.w3.org/2000/svg" xmlns:xlink="http://www.w3.org/1999/xlink" width="51" height="51" viewBox="0,0,51,51"><g transform="translate(-397.75001,-276.50001)"><g data-paper-data="{&quot;isPaintingLayer&quot;:true}" fill-rule="nonzero" stroke="none" stroke-linecap="butt" stroke-linejoin="miter" stroke-miterlimit="10" stroke-dasharray="" stroke-dashoffset="0" style="mix-blend-mode: normal"><g><path d="M448.75001,302.00001c0,14.08326 -11.41674,25.5 -25.5,25.5c-14.08326,0 -25.5,-11.41674 -25.5,-25.5c0,-14.08326 11.41674,-25.5 25.5,-25.5c14.08326,0 25.5,11.41674 25.5,25.5z" fill-opacity="0.20784" fill="#000000" stroke-width="0"/><path d="M433.35022,308.63662c-0.72573,-0.4147 -0.39371,-1.82336 0.1496,-2.50172c-0.20989,-0.33361 -0.15075,-0.91225 -0.15921,-1.24008c-0.01323,-0.51308 -0.17097,-1.00603 -0.10987,-1.57063c0.09693,-0.89567 0.76352,-2.03929 0.58878,-2.913c-0.00952,-0.04314 -0.01453,-0.08797 -0.01453,-0.13397c0,-0.06813 0.01101,-0.1337 0.03134,-0.19501c-0.10074,-0.52038 0.08183,-1.21392 0.31614,-1.8975c-0.06025,-0.10425 -0.10097,-0.2204 -0.11528,-0.34546c-0.06284,-0.54918 0.54292,-1.1055 0.34566,-1.62187c-0.16678,-0.43658 -1.13063,-1.06199 -1.517,-1.36392c-0.89265,-0.69756 -2.39867,-0.93693 -3.50584,-1.23361l-0.00527,0.00132h-0.01159l-0.7092,0.10131l-0.10528,-0.01089l-0.10268,0.02567h-0.07179l-0.57652,0.09609l-0.02422,-0.00194l-0.14861,0.05334l-0.61081,0.06108l-0.42492,0.14164l-0.01752,0.00135l-0.01504,0.00909l-0.41476,0.12762l0.03016,0.13571l-0.05629,0.08444l-0.00469,0.22028l-0.05234,0.1919l0.12807,0.1921l0.01206,0.03377l0.02535,0.02535l0.09809,0.16348l0.03535,0.05302l0.0916,0.12214l0.05187,0.12319l0.07688,0.08969l0.02024,0.01156l0.01024,0.04097l0.01832,0.03665l0.05629,0.25332l0.04369,0.10377l0.01136,0.02129l0.0035,0.01397l0.00172,0.00407l-0.00044,0.00102l0.03393,0.13572v0.09545l0.00983,0.01639l0.21278,0.31917l0.04041,0.11314l0.07476,0.09405l0.04745,0.10439l0.35501,0.07889l0.0774,0.0387l0.04825,0.04135l0.03877,0.00215l0.1004,0.11713l0.03285,0.02816l0.11026,0.02205l0.10144,0.15941l0.14346,0.12297l0.00323,0.05805l0.11287,0.09674l0.00558,0.10049l0.03249,0.04499l0.03956,0.02374l0.58047,0.58047l0.09314,0.15523l0.12801,0.12801l0.1813,0.30217l0.093,0.11625l0.10783,0.23527l0.06831,0.10735l0.02954,0.03447l0.0279,0.05581l0.01318,0.02072l0.0387,0.11609l0.00486,0.06314l0.0654,0.12262l0.025,0.1l0.05954,0.17861l0.01813,0.23569l0.05733,0.22933v0.20779l0.01134,0.04226l-0.01134,0.01872v0.06097l0.00916,0.01374l-0.00916,0.04123v0.07967l-0.03035,0.12141l0.01302,0.16923l-0.07678,0.08581l-0.0897,0.35881l-0.04143,0.02367l-0.03741,0.07482l0.00155,0.02249l-0.25589,0.28148l-0.24757,0.28883l-0.02251,0.00125l-0.15067,0.10045l-0.17184,0.1432l-0.20793,0.10038l-0.04193,0.04193l-0.09546,0.05727l-0.04994,0.03607l-0.03052,0.01221l-0.07785,0.04671l-0.23991,0.17327l-0.14661,0.05864l-0.00959,0.00576l-0.00285,-0.00078l-0.03443,0.01377l-0.04381,0.00597l-0.0373,0.02374l-0.11609,0.0387l-0.03581,0.00276c0.1156,0.30013 0.20669,0.59801 0.2775,0.82916c0.39333,1.28399 -0.35382,3.25025 -0.9804,4.35047c-0.11803,0.20726 -0.76293,0.98872 -0.75106,1.20383c0.02822,0.51114 0.07039,0.91118 -0.12652,1.39014c-0.15696,0.38178 -0.55933,0.62526 -0.84369,0.94577c0.24717,0.11087 0.44523,0.31167 0.55255,0.56075c0.38665,0.24341 0.78759,0.48177 1.03544,0.78403c0.419,0.2995 0.7382,0.52977 0.74746,0.54218c0.5328,0.713 0.20765,1.53142 0.53252,2.28065c0.02376,0.05479 0.05864,0.11471 0.10099,0.17844c1.43403,0.99471 1.53976,1.37448 2.1303,3.49912c0.17479,0.62887 0.58741,2.15483 0.11729,2.62495c-0.61004,0.61004 -1.50205,0.48995 -1.59629,-0.42568c-0.0251,-0.24388 0.2232,-0.77104 -0.01935,-0.73526c-1.01568,0.14983 -1.31618,-1.40844 -1.43822,-2.39521c-0.52935,-0.19422 -0.88814,-1.01018 -1.13675,-1.79737c-0.31943,-0.21533 -0.59579,-0.44698 -0.68126,-0.64102c-0.08226,0.01574 -0.16518,0.02721 -0.24888,0.03298c-0.54539,0.03761 -1.26019,-1.09971 -1.69076,-1.41071c-0.05731,-0.04139 -0.11345,-0.08355 -0.16842,-0.12646c-0.06932,0.67587 -0.154,1.343 -0.15016,1.92241c0.00578,0.87242 0.76549,1.77996 0.85135,2.67397c0.04622,0.48126 0.02522,1.84231 -0.7022,1.8019c-1.70712,-0.09484 -1.16308,-0.76308 -1.561,-1.86931c-0.11647,-0.32379 -0.21144,-0.63562 -0.28862,-0.9389c-0.81689,0.34604 -1.84053,-1.01503 -2.60874,-1.47601c-0.26629,-0.15979 -1.08981,-0.6089 -1.28244,-0.91296c-0.02039,-0.0036 -0.04079,-0.00766 -0.0612,-0.0122c-0.66993,-0.14887 -1.46426,-1.07938 -1.89347,-1.59832c-1.36455,-1.6498 -4.34629,-1.6103 -3.74618,-4.58281c0.43124,-2.13605 5.21603,-4.75193 6.97024,-5.90555c0.43022,-0.28293 0.71705,-0.74274 1.059,-1.12608l-0.24005,-0.45009l-0.01548,-0.06192l-0.03862,-0.05082l-0.07678,-0.17915l-0.18084,-0.3014l-0.01679,-0.05516l-0.03752,-0.04378l-0.07515,-0.1503l-0.1814,-0.27211l-0.00257,-0.0072l-0.00561,-0.0052l-0.49683,-0.7618l-0.27005,-0.27005l-0.17185,-0.12275l-0.0114,-0.01338l-0.01619,-0.00682l-0.46438,-0.34828l-0.06674,-0.08214l-0.09076,-0.05446l-0.15479,-0.15479l-0.02275,-0.03792l-0.03652,-0.02494l-0.30958,-0.34828l-0.03845,-0.07356l-0.71494,-0.71494l-0.03498,-0.0583l-0.05489,-0.04011l-0.19349,-0.23219l-0.00969,-0.02006l-0.01144,-0.00524l-0.19349,-0.15479l-0.1501,-0.197l-0.17828,-0.17191l-0.19349,-0.30958l-0.05403,-0.1666l-0.09403,-0.14776l-0.02503,-0.0751l-0.06135,-0.15337l-0.02612,-0.19157l-0.00359,-0.00564l-0.0387,-0.11609l-0.00953,-0.1239l-0.00492,-0.01968l-0.04623,-0.11348l-0.0387,-0.27089l0.01089,-0.10528l-0.02567,-0.10268v-0.65786l0.04975,-0.19899l0.00683,-0.205l0.0774,-0.27089l0.03826,-0.06631l0.01034,-0.07585l0.06135,-0.15337l0.06373,-0.19119l0.11803,-0.18547v-0.47175l0.06734,-0.26935l0.04315,-0.31932l0.04485,-0.03269l0.02848,-0.1139l0.26856,-0.15346l-0.12491,-0.21651l-0.04929,-0.17251l-0.00083,-0.00181l0.00018,-0.00046l-0.01868,-0.06537l-0.04617,-0.1385l-0.03968,0.00882l-0.3278,0.08195h-0.04097l-0.04123,0.00916l-0.01374,-0.00916h-0.29103l-0.17562,-0.04391h-0.18103l-0.15479,-0.0387l-0.08926,-0.0476l-0.10023,-0.01367l-0.19349,-0.0774l-0.02307,-0.01666l-0.02803,-0.0049l-0.34828,-0.15479l-0.16851,-0.13165l-0.19126,-0.09563l-0.22152,-0.18987l-0.21797,-0.1557l-0.13184,-0.15477l-0.16172,-0.12321l-0.15479,-0.19349l-0.02711,-0.05916l-0.04815,-0.04377l-0.15479,-0.23219l-0.05173,-0.14486l-0.09006,-0.1247l-0.05468,-0.1367l-0.04583,-0.09166l-0.01434,-0.00819l-0.01024,-0.04097l-0.01832,-0.03665l-0.04939,-0.22225l-0.03039,-0.04777l-0.0774,-0.23219l-0.00895,-0.1163l-0.04651,-0.10697l-0.0387,-0.23219l0.0098,-0.12251l-0.02981,-0.11924v-0.65786l0.02981,-0.11924l-0.0098,-0.12251l0.0387,-0.23219l0.04651,-0.10697l0.00895,-0.1163l0.0774,-0.23219l0.05682,-0.0893l0.02296,-0.10332l0.11609,-0.23219l0.15384,-0.17948l0.02996,-0.04993l-0.00054,-0.00789l0.01067,-0.01174l0.02233,-0.05303l0.05571,-0.07428l0.0035,-0.00583l0.0035,-0.0035l0.05339,-0.07119l0.19324,-0.15701l0.16748,-0.18423l0.23219,-0.15479l0.08751,-0.03125l0.07055,-0.06047l0.0774,-0.0387l0.06091,-0.01353l0.05059,-0.03653l0.19349,-0.0774l0.1348,-0.01838l0.12295,-0.05824l0.15918,-0.03183l0.03885,-0.00971l0.00993,-0.01092l0.11609,-0.0774l0.08751,-0.03125l0.07055,-0.06047l0.15479,-0.0774l0.19021,-0.04227l0.0662,-0.06907h0.24463l0.23881,-0.05307l0.0796,0.05307h0.12283l0.01974,-0.00908l0.02306,0.00908h0.02922l0.15479,0.0387l0.24243,0.1293l0.25564,0.1007l0.27089,0.19349l0.13184,0.15477l0.16172,0.12321l0.14685,0.18356l0.15217,0.12364l0.05339,0.07119l0.08089,0.08089l0.0426,0.07101l0.06587,0.05018l0.15479,0.19349l0.04178,0.09115l0.0709,0.0709l0.02296,0.03826l0.06548,0.06548l0.07536,0.12559l0.10838,0.09852l0.0774,0.11609l0.05173,0.14486l0.09006,0.1247l0.0774,0.19349l0.01601,0.11743l0.06138,0.15346l0.01367,0.10023l0.0476,0.08926l0.0387,0.15479v0.05994l0.0239,0.05497l0.0387,0.23219l-0.0098,0.12251l0.02981,0.11924v0.39857l0.02392,0.16743l-0.01089,0.10528l0.02567,0.10268v0.39219h0.45122l0.07493,-0.0259l0.05051,0.0259h0.01218l0.28875,0.07219h0.07278l0.21537,-0.04786l0.0796,0.05307h0.19485l0.15479,0.0387l0.35098,0.18719l0.11441,0.00636l0.08631,0.1007l0.01777,0.00948l0.00262,0.00066h1.8188l0.17562,0.04391h0.18103l0.43043,0.10761l0.23648,0.0473l0.14251,-0.03563l0.17893,-0.08947l0.34828,-0.0774l0.16189,0.00426l0.15711,-0.03928h1.19964l0.0244,0.0061l0.02459,-0.00528l1.13645,0.03788h0.71076l0.09015,0.02254l0.09225,-0.01118l0.59458,0.07432l0.44709,0.04065c0.08915,-0.03168 0.18513,-0.04893 0.28515,-0.04893c0.13461,0 0.26192,0.03124 0.37508,0.08686c0.01682,-0.0161 0.03368,-0.03216 0.0506,-0.04816c0.13745,-0.13002 0.49056,0.09865 0.81269,0.34473l0.03153,0.00901l0.03616,-0.00546l0.03253,0.02508l0.11025,0.0315l0.07667,0.04424l0.332,0.083l0.06459,0.11303c1.04375,0.4083 2.02336,0.89845 2.96159,1.69223c0.21862,0.18496 0.40774,0.43742 0.5202,0.69776c0.187,0.04619 0.37127,0.06849 0.55124,0.06072c0.74915,-0.03236 1.00192,-1.40783 1.09646,-1.9392c0.05789,-0.32536 0.5096,-1.14954 0.47583,-1.3948c-0.13368,-0.97075 -0.10126,-3.25527 1.09334,-3.75302c0.21441,-0.08934 0.72277,0.22659 0.99477,0.19879c1.59725,-0.16325 2.64633,0.43025 0.91283,1.64489c-0.27347,0.19162 0.01648,0.70567 -0.1605,0.98884c-0.24717,0.39548 -0.98166,1.08141 -1.09509,1.50999c-0.13255,0.50085 -0.16292,0.96397 -0.3461,1.44885c-0.09289,0.24587 -0.58485,0.64353 -0.33198,0.7152c0.63849,0.18097 1.47479,-0.06597 2.1645,0.10646c0.09762,0.0244 0.54434,0.68846 0.50191,0.7836c-0.57854,1.29733 -1.16132,0.43715 -2.15381,1.04815c-0.17596,0.10833 0.11847,0.41481 0.07074,0.61586c-0.09013,0.37965 -0.23648,0.6508 -0.471,0.9565c-0.05924,0.07723 1.24562,0.56101 1.42855,0.71407c0.66376,0.55539 2.56724,1.89387 1.67422,2.96325c-0.61046,0.73102 -2.56167,-0.50769 -3.29001,-0.9313c-0.26094,-0.15176 -0.47065,-0.22599 -0.7714,-0.31737c-0.16584,-0.05039 -0.40596,-0.39773 -0.46413,-0.23445c-0.08836,0.248 -0.12736,0.5883 -0.17519,0.93072c0.31173,0.29857 0.08236,0.87512 -0.00516,1.24637c-0.33441,1.41842 -0.20811,1.9535 -0.93257,3.22129c0.01327,0.05042 0.02033,0.10336 0.02033,0.15795c0,0.06528 -0.0101,0.1282 -0.02883,0.18728c-0.05643,0.21045 -0.19005,0.43243 -0.35677,0.61345c0.04338,0.31879 0.09403,0.63571 0.11471,0.94068c0.00968,0.14266 -0.01202,0.28781 -0.07095,0.41103c0.11838,0.42165 -0.1216,1.14852 -0.29439,1.37892c0.00059,0.00244 0.00116,0.00489 0.00171,0.00734c0.16473,0.65892 0.05428,1.73057 -0.9038,1.18309z" fill="#d6d6d6" stroke-width="0.5"/></g></g></g></svg>