<svg version="1.1" xmlns="http://www.w3.org/2000/svg" xmlns:xlink="http://www.w3.org/1999/xlink" width="374.5" height="278.5" viewBox="0,0,374.5,278.5"><defs><radialGradient cx="244.02192" cy="176.33916" r="187" gradientUnits="userSpaceOnUse" id="color-1"><stop offset="0" stop-color="#bfbfbf"/><stop offset="1" stop-color="#4d4d4d"/></radialGradient><linearGradient x1="240.00003" y1="107.97319" x2="240.00003" y2="252.02664" gradientUnits="userSpaceOnUse" id="color-2"><stop offset="0" stop-color="#ffffff"/><stop offset="1" stop-color="#535353"/></linearGradient><linearGradient x1="222.40339" y1="221.13673" x2="329.95415" y2="221.13673" gradientTransform="translate(-165.43144,-176.0267) scale(0.74383,0.74383)" gradientUnits="userSpaceOnUse" id="color-3"><stop offset="0" stop-color="#ffffff"/><stop offset="1" stop-color="#ffffff" stop-opacity="0"/></linearGradient><linearGradient x1="161.55495" y1="222.67155" x2="221.63684" y2="222.67155" gradientTransform="translate(-170.0469,-245.91282) scale(1.05255,1.05255)" gradientUnits="userSpaceOnUse" id="color-4"><stop offset="0" stop-color="#f04d4d"/><stop offset="1" stop-color="#e1e354"/></linearGradient></defs><g transform="translate(-52.75,-40.75)"><g data-paper-data="{&quot;isPaintingLayer&quot;:true}" fill-rule="nonzero" stroke-linecap="butt" stroke-linejoin="miter" stroke-miterlimit="10" stroke-dasharray="" stroke-dashoffset="0" style="mix-blend-mode: normal"><path d="M53,319v-278h374v278z" fill="url(#color-1)" stroke="#000000" stroke-width="0.5"/><path d="M177.70573,199.52469c0,0 -30.86288,-32.17161 -30.13934,-33.10461c1.66498,-2.14682 -11.81126,16.63874 -15.15858,16.43862c-5.41338,-0.32373 -1.92176,-28.75019 -1.92176,-28.75019c0,0 -2.98228,-4.73978 9.77,-15.83408c1.42554,-1.24016 69.27745,-0.71971 84.09609,-0.78106c1.71854,-0.00709 8.83634,-0.01021 8.83634,-0.01021c0,0 -10.60983,24.96626 -9.98328,24.34655c0.14344,-0.14196 -4.49942,0.64809 -6.33675,0.61565c-6.4044,-0.11327 -17.96808,-0.40809 -18.34905,1.11017c-1.00973,4.02438 -3.25154,10.87159 -1.89414,9.53637c2.43194,-2.3922 13.26343,21.75784 15.74901,20.8667c3.85904,-1.38355 10.78517,-24.33175 13.11462,-34.44559c1.65321,-7.17781 -1.41096,-1.99502 1.208,-4.40811c4.48483,-4.13234 10.06531,-25.2037 12.56314,-27.43446c5.40033,-4.82301 3.33555,-5.9266 5.27759,-7.52768c5.74009,-4.73241 5.63793,-0.19487 12.68959,-0.86287c9.43734,-0.89404 61.71762,0.84156 61.71762,0.84156l31.67709,-12.14823l-28.5994,45.35253c0,0 -56.50903,-1.8597 -57.98445,-0.78411c-1.75969,1.2828 -1.31128,10.30319 -1.86956,13.72339c-0.11823,0.72403 46.01614,0.27761 46.01614,0.27761l-11.88514,28.4473l-41.52231,1.96597l-21.32376,55.07087l-55.74766,-52.50194z" fill="url(#color-2)" stroke="#000000" stroke-width="5"/><text transform="translate(222.40437,236.64853) scale(1.34439,1.34439)" font-size="40" xml:space="preserve" fill="url(#color-3)" fill-rule="nonzero" stroke="none" stroke-width="1" stroke-linecap="butt" stroke-linejoin="miter" stroke-miterlimit="10" stroke-dasharray="" stroke-dashoffset="0" font-family="Sans Serif" font-weight="normal" text-anchor="start" style="mix-blend-mode: normal"><tspan x="0" dy="0">联机</tspan></text><text transform="translate(161.55646,233.6344) scale(0.95007,0.95007)" font-size="40" xml:space="preserve" fill="url(#color-4)" fill-rule="nonzero" stroke="none" stroke-width="1" stroke-linecap="butt" stroke-linejoin="miter" stroke-miterlimit="10" stroke-dasharray="" stroke-dashoffset="0" font-family="Sans Serif" font-weight="normal" text-anchor="start" style="mix-blend-mode: normal"><tspan x="0" dy="0">VIP</tspan></text></g></g></svg>