<svg version="1.1" xmlns="http://www.w3.org/2000/svg" xmlns:xlink="http://www.w3.org/1999/xlink" width="126.00001" height="102.183" viewBox="0,0,126.00001,102.183"><g transform="translate(-176.99999,-128.9085)"><g data-paper-data="{&quot;isPaintingLayer&quot;:true}" fill-rule="nonzero" stroke="#ffcc00" stroke-width="24" stroke-linejoin="miter" stroke-miterlimit="10" stroke-dasharray="" stroke-dashoffset="0" style="mix-blend-mode: normal"><path d="M206.25,184.81927v0c0,0 18.29133,-8.53758 30.88699,-10.2865c1.74407,-0.24216 2.24789,-0.12841 4.00829,-0.16559c1.90781,-0.0403 3.49416,-0.20166 5.38732,0.03772c4.6877,0.59276 31.2174,12.91437 31.2174,12.91437" data-paper-data="{&quot;origPos&quot;:null}" fill="none" stroke-linecap="round"/><path d="M249.11966,210.8915c0,4.52874 -3.60851,8.2 -8.05983,8.2c-4.45132,0 -8.05983,-3.67126 -8.05983,-8.2c0,-4.52874 3.60851,-8.2 8.05983,-8.2c4.45132,0 8.05983,3.67126 8.05983,8.2z" data-paper-data="{&quot;origPos&quot;:null}" fill="#ffcc00" stroke-linecap="butt"/><path d="M189,156.5665c0,0 35.14354,-14.18604 44.06256,-15.42445c2.48804,-0.34546 3.92006,-0.18318 6.43141,-0.23623c2.72163,-0.05749 4.27139,-0.28769 6.97213,0.05382c6.68735,0.84562 44.53391,15.60687 44.53391,15.60687" data-paper-data="{&quot;origPos&quot;:null}" fill="none" stroke-linecap="round"/></g></g></svg>