<svg version="1.1" xmlns="http://www.w3.org/2000/svg" xmlns:xlink="http://www.w3.org/1999/xlink" width="206.12505" height="87.81279" viewBox="0,0,206.12505,87.81279"><defs><linearGradient x1="159.72958" y1="202.84247" x2="159.72958" y2="240.25549" gradientUnits="userSpaceOnUse" id="color-1"><stop offset="0" stop-color="#ffffff"/><stop offset="1" stop-color="#535353"/></linearGradient></defs><g transform="translate(-37.3947,-177.4386)"><g data-paper-data="{&quot;isPaintingLayer&quot;:true}" fill-rule="nonzero" stroke-linecap="butt" stroke-linejoin="miter" stroke-miterlimit="10" stroke-dasharray="" stroke-dashoffset="0" style="mix-blend-mode: normal"><path d="M39.8947,262.75139v-82.81279h194.46969c3.20213,2.37943 3.44623,4.60102 6.65536,7.02171v75.79108z" data-paper-data="{&quot;origPos&quot;:null}" fill="#000000" stroke="#ffe000" stroke-width="5"/><text transform="translate(48.75526,235.31116) scale(0.96323,0.96323)" font-size="40" xml:space="preserve" fill="#ffe000" fill-rule="nonzero" stroke="none" stroke-width="1" stroke-linecap="butt" stroke-linejoin="miter" stroke-miterlimit="10" stroke-dasharray="" stroke-dashoffset="0" font-family="&quot;Microsoft YaHei&quot;, &quot;微软雅黑&quot;, STXihei, &quot;华文细黑&quot;" font-weight="normal" text-anchor="start" style="mix-blend-mode: normal"><tspan x="0" dy="0">300       点</tspan></text><path d="M143.55073,226.61987c0,0 -8.01558,-8.35549 -7.82767,-8.59781c0.43242,-0.55756 -3.06758,4.32135 -3.93692,4.26937c-1.40595,-0.08408 -0.49912,-7.4669 -0.49912,-7.4669c0,0 -0.77455,-1.23099 2.53743,-4.11237c0.37024,-0.32209 17.99249,-0.18693 21.84112,-0.20286c0.44634,-0.00184 2.29494,-0.00266 2.29494,-0.00266c0,0 -2.75555,6.48414 -2.59282,6.3232c0.03726,-0.03686 -1.16857,0.16832 -1.64576,0.15989c-1.66332,-0.02942 -4.6666,-0.10599 -4.76554,0.28833c-0.26224,1.04519 -0.84448,2.82354 -0.49194,2.47674c0.63162,-0.62129 3.44474,5.65086 4.09028,5.41943c1.00226,-0.35934 2.80108,-6.31934 3.40607,-8.94607c0.42936,-1.86419 -0.36645,-0.51814 0.31373,-1.14485c1.16479,-1.07323 2.61413,-6.54581 3.26285,-7.12517c1.40257,-1.25261 0.8663,-1.53923 1.37068,-1.95506c1.4908,-1.22909 1.46427,-0.0506 3.29569,-0.22411c2.45103,-0.2322 16.02907,0.21857 16.02907,0.21857l8.22706,-3.15509l-7.42772,11.77878c0,0 -14.67632,-0.48299 -15.0595,-0.20365c-0.45702,0.33316 -0.34056,2.67591 -0.48556,3.56418c-0.0307,0.18804 11.95113,0.0721 11.95113,0.0721l-3.08676,7.38822l-10.78402,0.51059l-5.53812,14.30281l-14.47857,-13.6356z" fill="url(#color-1)" stroke="#000000" stroke-width="1.5"/></g></g></svg>