<svg version="1.1" xmlns="http://www.w3.org/2000/svg" xmlns:xlink="http://www.w3.org/1999/xlink" width="175.91963" height="130.15655" viewBox="0,0,175.91963,130.15655"><g transform="translate(-152.04018,-70.91757)"><g data-paper-data="{&quot;isPaintingLayer&quot;:true}" fill="none" fill-rule="nonzero" stroke="#5cff00" stroke-width="24" stroke-linecap="none" stroke-linejoin="miter" stroke-miterlimit="10" stroke-dasharray="" stroke-dashoffset="0" font-family="none" font-weight="none" font-size="none" text-anchor="none" style="mix-blend-mode: normal"><path d="M189.04018,128.04913c0,0 35.14354,-14.18604 44.06256,-15.42445c2.48804,-0.34546 3.92006,-0.18318 6.43141,-0.23623c2.72163,-0.05749 4.27139,-0.28769 6.97213,0.05382c6.68735,0.84562 44.53391,15.60687 44.53391,15.60687" data-paper-data="{&quot;origPos&quot;:null}" fill="none" stroke-linecap="round"/><path d="M205.29018,153.8019v0c0,0 18.29133,-8.53758 30.88699,-10.2865c1.74407,-0.24216 2.24789,-0.12841 4.00829,-0.16559c1.90781,-0.0403 3.49416,-0.20166 5.38732,0.03772c4.6877,0.59276 31.2174,12.91437 31.2174,12.91437" data-paper-data="{&quot;origPos&quot;:null}" fill="none" stroke-linecap="round"/><path d="M249.12565,179.87413c0,5.08102 -4.04857,9.2 -9.04273,9.2c-4.99417,0 -9.04273,-4.11898 -9.04273,-9.2c0,-5.08102 4.04857,-9.2 9.04273,-9.2c4.99417,0 9.04273,4.11898 9.04273,9.2z" data-paper-data="{&quot;origPos&quot;:null}" fill="#5cff00" stroke-linecap="butt"/><path d="M164.04018,105.77685c0,0 52.34307,-21.1288 65.62713,-22.9733c3.70571,-0.51453 5.83857,-0.27283 9.57899,-0.35184c4.05362,-0.08563 6.36184,-0.42849 10.38435,0.08016c9.96019,1.25947 66.32916,23.245 66.32916,23.245" data-paper-data="{&quot;origPos&quot;:null}" fill="none" stroke-linecap="round"/></g></g></svg>