<svg version="1.1" xmlns="http://www.w3.org/2000/svg" xmlns:xlink="http://www.w3.org/1999/xlink" width="38.06667" height="38.2914"><defs><linearGradient x1="240.00561" y1="166.54306" x2="240.00561" y2="176.08533" gradientUnits="userSpaceOnUse" id="color-1"><stop offset="0" stop-color="#ff0000"/><stop offset="1" stop-color="#feff00"/></linearGradient><linearGradient x1="240.11861" y1="183.70835" x2="240.11861" y2="193.46116" gradientUnits="userSpaceOnUse" id="color-2"><stop offset="0" stop-color="#feff00"/><stop offset="1" stop-color="#ff0000"/></linearGradient><linearGradient x1="243.55773" y1="179.99248" x2="253.37884" y2="179.99248" gradientUnits="userSpaceOnUse" id="color-3"><stop offset="0" stop-color="#feff00"/><stop offset="1" stop-color="#ff0000"/></linearGradient><linearGradient x1="226.57598" y1="180.05286" x2="236.29182" y2="180.05286" gradientUnits="userSpaceOnUse" id="color-4"><stop offset="0" stop-color="#ff0000"/><stop offset="1" stop-color="#feff00"/></linearGradient></defs><g transform="translate(-220.89994,-160.85398)"><g data-paper-data="{&quot;isPaintingLayer&quot;:true}" fill="none" fill-rule="nonzero" stroke="none" stroke-width="none" stroke-linecap="butt" stroke-linejoin="miter" stroke-miterlimit="10" stroke-dasharray="" stroke-dashoffset="0" font-family="none" font-weight="none" font-size="none" text-anchor="none" style="mix-blend-mode: normal"><path d="M238.86811,176.08533v-9.54227h2.275v9.54227z" data-paper-data="{&quot;origPos&quot;:null}" fill="url(#color-1)" stroke="none" stroke-width="0"/><path d="M238.98111,193.46116v-9.7528h2.275v9.7528z" data-paper-data="{&quot;origPos&quot;:null}" fill="url(#color-2)" stroke="none" stroke-width="0"/><path d="M243.55773,178.88782l9.80449,-0.06561l0.01662,2.27494l-9.80449,0.06561z" data-paper-data="{&quot;origRot&quot;:0,&quot;origPos&quot;:null}" fill="url(#color-3)" stroke="none" stroke-width="0"/><path d="M226.57598,178.94819l9.69941,-0.06561l0.01643,2.27495l-9.69941,0.06561z" data-paper-data="{&quot;origRot&quot;:0,&quot;origPos&quot;:null}" fill="url(#color-4)" stroke="none" stroke-width="0"/><path d="M243.55519,180.06467c0,2.0374 -1.59197,3.68905 -3.55576,3.68905c-1.96379,0 -3.55576,-1.65164 -3.55576,-3.68905c0,-2.0374 1.59197,-3.68905 3.55576,-3.68905c1.96379,0 3.55576,1.65164 3.55576,3.68905z" data-paper-data="{&quot;origPos&quot;:null}" fill="none" stroke="#fff600" stroke-width="1.5"/><path d="M220.89994,180.0439l5.66667,-1.66667v3.55556z" data-paper-data="{&quot;origPos&quot;:null}" fill="#ff0000" stroke="none" stroke-width="0"/><path d="M253.29994,181.73279v-3.55555l5.66667,1.66666z" data-paper-data="{&quot;origPos&quot;:null,&quot;index&quot;:null}" fill="#ff0000" stroke="none" stroke-width="0"/><path d="M239.98507,160.85398l1.69491,5.65828l-3.55551,0.01774z" data-paper-data="{&quot;origPos&quot;:null,&quot;origRot&quot;:0}" fill="#ff0000" stroke="none" stroke-width="0"/><path d="M238.35524,193.46936l3.55551,0.01774l-1.69491,5.65828z" data-paper-data="{&quot;origPos&quot;:null,&quot;origRot&quot;:0,&quot;index&quot;:null}" fill="#ff0000" stroke="none" stroke-width="0"/><path d="M240.98394,180.00109c0,0.51777 -0.41973,0.9375 -0.9375,0.9375c-0.51777,0 -0.9375,-0.41973 -0.9375,-0.9375c0,-0.51777 0.41973,-0.9375 0.9375,-0.9375c0.51777,0 0.9375,0.41973 0.9375,0.9375z" data-paper-data="{&quot;origPos&quot;:null}" fill="#ff4b00" stroke="none" stroke-width="0"/></g></g></svg>