<svg version="1.1" xmlns="http://www.w3.org/2000/svg" xmlns:xlink="http://www.w3.org/1999/xlink" width="282.92815" height="163.17139" viewBox="0,0,282.92815,163.17139"><g transform="translate(-98.53592,-98.36195)"><g data-paper-data="{&quot;isPaintingLayer&quot;:true}" fill-rule="nonzero" stroke-linecap="butt" stroke-linejoin="miter" stroke-miterlimit="10" stroke-dasharray="" stroke-dashoffset="0" style="mix-blend-mode: normal"><text transform="translate(98.53592,111.87169) scale(0.31418,0.31418)" font-size="40" xml:space="preserve" fill="#fcfcfc" fill-rule="nonzero" stroke="#eeeef1" stroke-width="0" stroke-linecap="butt" stroke-linejoin="miter" stroke-miterlimit="10" stroke-dasharray="" stroke-dashoffset="0" font-family="Sans Serif" font-weight="normal" text-anchor="start" style="mix-blend-mode: normal"><tspan x="0" dy="0">按键指南</tspan></text><g fill="none"><g stroke="#b1b6b9" stroke-width="0.4"><g><path d="M317.47028,225.20154c2.2,12.3 1.9,21.7 1.7,24.7c0,0 -7.1,-6 -8.9,-19.5c-2.7,-19.6 0.9,-27.2 0.9,-27.1c2,7.8 5.1,15.4 6.3,21.9z"/><path d="M378.17028,203.30154c0,-0.1 3.6,7.4 0.9,27.1c-1.8,13.5 -8.9,19.5 -8.9,19.5c-0.3,-3 -0.5,-12.3 1.7,-24.7c1.2,-6.5 4.3,-14.1 6.3,-21.9z"/></g><path d="M378.97028,194.70154c-1.2,10.8 -6.4,21.6 -8.1,30.6c-2.7,15 -1.5,25.7 -1.5,25.7v0c0,0 -5.6,5.4 -10.1,7.2c-6.1,2.5 -11.3,2.6 -13.2,2.6h-2.6c-1.7,0.1 -7.1,0 -13.5,-2.6c-4.4,-1.8 -10.1,-7.2 -10.1,-7.2c0,0 1.2,-10.7 -1.5,-25.7c-1.7,-9 -6.9,-19.8 -8.1,-30.6c-1.3,-11.4 -2,-25.3 -1.7,-34.3c0,-3.6 1.6,-18.6 7.7,-23.9c9.6,-8.2 27.7,-6.9 27.7,-6.9v13.5c-3.2,0.3 -5.8,3.1 -5.8,6.5v11.2c0,3.4 2.5,6.1 5.8,6.5v24.3h1.3v-24.3c3.3,-0.3 5.9,-3.1 5.9,-6.5v-11.1v0c0,-3.4 -2.6,-6.2 -5.9,-6.5v-13.6c0,0 22.3,-1.2 29.2,8.5c5,6.9 6.2,17.9 6.3,22.3c0.2,9 -0.4,22.8 -1.8,34.3z"/><path d="M344.77027,166.40154c-3.1,0 -5.6,-2.6 -5.6,-5.7v-11c0,-3.1 2.5,-5.7 5.6,-5.7c3.1,0 5.6,2.6 5.6,5.7v0.7v10.3c0,3.1 -2.5,5.7 -5.6,5.7z"/></g><path d="M307.8893,261.53333v-132.69667h73.57477v132.69668z" stroke="none" stroke-width="NaN"/></g></g></g></svg>