<svg version="1.1" xmlns="http://www.w3.org/2000/svg" xmlns:xlink="http://www.w3.org/1999/xlink" width="554.99663" height="506.02852" viewBox="0,0,554.99663,506.02852"><defs><radialGradient cx="240.00002" cy="180" r="253.01426" gradientUnits="userSpaceOnUse" id="color-1"><stop offset="0" stop-color="#34946a" stop-opacity="0.33725"/><stop offset="1" stop-color="#34946a" stop-opacity="0"/></radialGradient><radialGradient cx="240.06895" cy="180.05173" r="96.34233" gradientTransform="translate(-41.44444,-56.85333) scale(0.24919,0.24919)" gradientUnits="userSpaceOnUse" id="color-2"><stop offset="0" stop-color="#5a5a5a"/><stop offset="1" stop-color="#000000"/></radialGradient></defs><g transform="translate(37.49831,73.01426)"><g data-paper-data="{&quot;isPaintingLayer&quot;:true}" fill-rule="nonzero" stroke-linejoin="miter" stroke-miterlimit="10" stroke-dasharray="" stroke-dashoffset="0" style="mix-blend-mode: normal"><path d="M-37.49831,379.40321v-397.80642h554.99663v397.80642z" fill="#000000" stroke="none" stroke-width="0" stroke-linecap="butt"/><path d="M252.9629,93.4933c7.5303,1.29091 10.43485,2.09773 10.43485,2.74317c0,0.21515 -0.26894,1.29091 -0.64546,2.42046c-0.64546,2.20529 -1.50606,2.79697 -1.50606,1.12955c0,-0.59167 -0.53788,-1.29091 -1.18333,-1.61364l-1.23712,-0.59167h1.23712c1.39849,-0.05379 1.66743,-1.12955 0.26894,-1.12955c-0.53788,0 -1.88258,0.32273 -3.06591,0.75303l-2.04394,0.69924l2.74317,1.775c2.47423,1.61364 3.44243,2.6894 2.36667,2.6894c-0.26894,0 -2.85076,-0.48409 -5.8091,-1.02197c-2.95834,-0.59167 -5.48637,-0.96818 -5.59393,-0.80682c-0.37652,0.37652 0.32273,0.80682 2.20529,1.29091c0.96818,0.26894 2.85076,0.86061 4.19546,1.3447c1.3447,0.48409 3.81893,1.02197 5.54016,1.18333c3.01211,0.32273 3.06591,0.26894 3.06591,-1.07576c0,-0.69924 0.80682,-2.52803 1.82879,-3.92652c1.50606,-2.20529 2.04394,-2.63561 3.44243,-2.58182c1.72121,0.10758 16.88939,7.20757 17.53484,8.22954c0.4303,0.69924 -1.23712,3.65758 -2.90455,5.16363c-1.07576,1.02197 -1.18333,0.96818 -6.45454,-1.61364c-2.95834,-1.45227 -5.54016,-2.47423 -5.75531,-2.20529c-0.86061,0.80682 0.91439,2.20529 6.50833,5.10984l5.75531,3.01211l0.91439,-1.29091c0.48409,-0.69924 1.93637,-2.36667 3.1197,-3.71137c2.15152,-2.36667 2.25909,-2.42046 3.87273,-1.775c0.91439,0.37652 2.04394,1.12955 2.58182,1.72121c0.80682,0.91439 0.86061,1.07576 0,2.36667c-1.07576,1.61364 -0.91439,1.61364 -3.54999,0.26894c-1.18333,-0.59167 -2.25909,-1.07576 -2.42046,-1.07576c-0.59167,0 -0.21515,2.04394 0.53788,2.6894c0.96818,0.80682 1.07576,2.90455 0.10758,3.65758c-0.37652,0.32273 -2.36667,0.64546 -4.41061,0.75303c-3.06591,0.10758 -3.76514,0.32273 -3.92652,1.07576c-0.16136,0.75303 0.16136,0.96818 1.39849,0.96818c0.91439,0 2.95834,0.91439 5.00228,2.20529c1.88258,1.23712 3.06591,1.82879 2.6894,1.3447c-0.64546,-0.80682 -0.53788,-1.12955 1.07576,-2.79697c1.12955,-1.12955 1.775,-2.31288 1.66743,-2.95834c-0.21515,-1.12955 1.93637,-5.21743 3.33485,-6.34696c0.69924,-0.59167 1.29091,-0.26894 3.65758,2.09773l2.79697,2.79697l-1.45227,1.07576c-2.52803,1.88258 -2.74317,2.85076 -0.91439,4.67955c1.45227,1.39849 1.55985,1.775 0.96818,2.6894c-0.59167,0.96818 -0.48409,1.29091 0.69924,2.52803l1.39849,1.3447l1.99015,-1.3447c1.07576,-0.69924 2.85076,-1.61364 3.98031,-1.99015c1.88258,-0.64546 1.99015,-0.59167 3.60379,1.29091c1.61364,1.88258 7.79924,12.69394 7.79924,13.66211c0,0.69924 -2.47423,1.775 -4.08787,1.775c-1.18333,0 -1.23712,-0.10758 -0.69924,-1.12955c0.64546,-1.29091 -0.32273,-4.57196 -2.15152,-6.88484l-1.02197,-1.29091l-0.59167,1.12955c-0.48409,0.91439 -0.37652,1.66743 0.48409,3.81893c0.59167,1.50606 0.96818,2.74317 0.80682,2.74317c-0.10758,0 -1.07576,-1.3447 -2.15152,-2.95834c-1.02197,-1.61364 -2.09773,-2.95834 -2.36667,-2.95834c-0.26894,0 -0.86061,0.59167 -1.3447,1.29091c-0.80682,1.23712 -0.75303,1.50606 0.80682,4.4644c2.20529,4.24925 3.44243,5.48637 4.67955,4.57196c1.45227,-1.02197 3.22728,-1.66743 5.54016,-2.04394l2.09773,-0.37652l1.29091,2.95834c1.55985,3.4962 5.91666,17.05075 5.59393,17.37348c-0.48409,0.53788 -5.16363,1.50606 -5.91666,1.23712c-0.4303,-0.16136 -1.29091,-2.25909 -1.99015,-4.78711c-1.61364,-5.75531 -2.47423,-7.47651 -3.87273,-7.47651c-1.3447,0 -1.3447,0.37652 0.80682,8.28333c1.50606,5.64772 2.09773,6.77727 3.44243,6.77727c0.64546,0 0.48409,0.26894 -0.4303,0.91439c-2.95834,2.04394 -3.01211,3.65758 -0.05379,3.17349c2.04394,-0.32273 2.09773,-0.26894 2.95834,1.82879c0.96818,2.47423 1.07576,4.08787 0.32273,4.57196c-0.32273,0.21515 -0.53788,-0.32273 -0.53788,-1.18333c0,-0.86061 -0.32273,-2.04394 -0.75303,-2.63561c-1.55985,-2.09773 -2.20529,-0.16136 -2.36667,7.63787c-0.21515,8.17575 0,8.82121 3.06591,8.82121c2.85076,0.05379 6.50833,1.82879 6.50833,3.22728c0,3.17349 -4.73334,18.82575 -5.8091,19.20227c-0.80682,0.32273 -5.48637,-1.3447 -5.48637,-1.99015c0,-0.21515 0.53788,-0.80682 1.23712,-1.23712c1.93637,-1.23712 4.78711,-8.49848 4.57196,-11.56439l-0.16136,-2.52803l-1.02197,1.82879c-0.69924,1.3447 -1.07576,1.61364 -1.39849,1.07576c-0.37652,-0.53788 -0.86061,-0.59167 -1.93637,-0.21515c-1.18333,0.48409 -1.72121,1.39849 -3.4962,6.45454l-2.09773,5.91666l1.3447,1.18333c0.80682,0.69924 1.82879,1.23712 2.36667,1.23712c0.48409,0 1.82879,0.96818 3.01211,2.15152l2.09773,2.15152l-1.29091,2.25909c-2.20529,4.08787 -9.78939,15.4909 -10.27348,15.4909c-0.59167,0 -4.24925,-3.22728 -4.24925,-3.76514c0,-0.21515 0.59167,-0.53788 1.3447,-0.64546c1.12955,-0.21515 1.23712,-0.16136 0.75303,0.75303c-0.4303,0.80682 -0.26894,1.07576 0.91439,1.61364c1.29091,0.59167 1.55985,0.53788 2.6894,-0.91439c0.69924,-0.91439 1.66743,-2.85076 2.09773,-4.41061c1.07576,-3.71137 1.02197,-4.30302 -0.26894,-3.1197c-0.86061,0.75303 -0.69924,0.10758 0.80682,-3.1197c1.02197,-2.20529 1.88258,-4.57196 1.88258,-5.21743c0,-1.39849 -1.45227,-2.95834 -3.22728,-3.38864c-1.12955,-0.26894 -1.50606,-0.05379 -2.31288,1.29091c-0.48409,0.91439 -0.91439,2.15152 -0.91439,2.74317c0,1.02197 0.26894,1.07576 2.42046,0.80682c2.42046,-0.26894 2.47423,-0.21515 1.72121,0.86061c-0.59167,0.91439 -1.23712,1.12955 -2.95834,1.02197l-2.15152,-0.16136l-3.54999,5.32499c-1.93637,2.90455 -3.54999,5.59393 -3.54999,5.91666c0,0.32273 0.91439,1.29091 2.04394,2.15152c1.12955,0.91439 2.47423,2.47423 3.01211,3.4962c0.96818,1.72121 0.96818,1.88258 0.05379,3.28105c-0.53788,0.80682 -4.14167,4.14167 -8.01439,7.36893c-7.74545,6.45454 -7.42272,6.34696 -9.84318,2.20529l-1.45227,-2.42046l1.775,-1.55985c2.04394,-1.82879 2.95834,-1.61364 1.23712,0.26894c-1.18333,1.29091 -1.61364,3.06591 -0.69924,3.06591c0.26894,0 0.91439,0.4303 1.45227,0.91439c0.86061,0.86061 0.96818,0.86061 1.88258,-0.32273c0.59167,-0.69924 1.02197,-1.55985 1.02197,-1.93637c0,-0.32273 0.48409,-1.07576 1.07576,-1.61364c1.07576,-0.96818 1.45227,-1.93637 0.69924,-1.82879c-1.3447,0.21515 -1.18333,-0.26894 0.64546,-1.82879c2.42046,-2.09773 2.31288,-3.06591 -0.53788,-4.57196c-1.66743,-0.80682 -1.82879,-1.07576 -1.18333,-1.61364c0.59167,-0.53788 1.12955,-0.48409 2.31288,0.16136c1.99015,1.02197 2.52803,1.02197 3.98031,-0.16136c0.91439,-0.69924 1.12955,-1.29091 0.86061,-2.15152c-0.37652,-1.07576 -0.75303,-1.18333 -3.87273,-1.18333c-3.65758,0 -4.08787,-0.32273 -2.36667,-1.88258c0.59167,-0.53788 1.07576,-1.50606 1.07576,-2.20529c0,-0.69924 0.48409,-1.50606 1.02197,-1.82879c1.45227,-0.75303 1.61364,-0.69924 1.29091,0.53788c-0.37652,1.39849 0.32273,1.3447 2.52803,-0.16136c1.88258,-1.29091 2.90455,-3.60379 3.4962,-7.9606c0.26894,-2.04394 0.69924,-2.85076 1.93637,-3.76514c1.82879,-1.29091 1.93637,-2.20529 0.48409,-3.60379l-1.12955,-1.02197l1.29091,-1.55985c1.66743,-2.04394 1.99015,-3.4962 1.3447,-6.13181c-0.59167,-2.36667 -1.18333,-2.63561 -2.6894,-1.23712c-1.29091,1.12955 -1.93637,0.48409 -0.75303,-0.86061c0.75303,-0.86061 0.80682,-1.02197 0.10758,-1.29091c-1.3447,-0.53788 -2.15152,-3.92652 -1.39849,-5.8091c0.37652,-0.91439 0.96818,-1.50606 1.3447,-1.3447c0.37652,0.10758 1.775,-0.91439 3.1197,-2.25909c2.63561,-2.74317 3.98031,-5.91666 3.17349,-7.47651c-0.26894,-0.53788 -0.64546,-1.99015 -0.86061,-3.22728c-0.26894,-1.93637 -0.16136,-2.36667 0.75303,-2.85076c0.59167,-0.32273 1.07576,-1.07576 1.07576,-1.66743c0,-0.86061 -0.26894,-0.96818 -1.45227,-0.69924c-4.30302,0.96818 -5.48637,2.20529 -5.54016,5.86287c-0.05379,1.50606 -1.02197,3.4962 -1.82879,3.4962c-0.16136,0 -0.32273,-0.48409 -0.32273,-1.07576c0,-0.59167 0.37652,-1.07576 0.80682,-1.07576c0.59167,0 0.80682,-0.59167 0.80682,-2.31288c0,-1.23712 0.37652,-2.85076 0.86061,-3.4962c0.53788,-0.75303 0.75303,-1.775 0.53788,-2.52803c-0.32273,-1.23712 -0.26894,-1.29091 1.02197,-0.69924c0.96818,0.4303 1.55985,0.4303 1.93637,0.05379c0.80682,-0.80682 0.16136,-1.775 -1.07576,-1.775c-0.53788,0 -1.29091,-0.37652 -1.66743,-0.80682c-0.96818,-1.18333 -2.04394,-0.96818 -2.25909,0.37652c-0.26894,2.15152 -1.775,1.50606 -1.775,-0.80682c0,-1.88258 -0.48409,-2.63561 -0.91439,-1.39849c-0.37652,1.12955 -2.58182,-0.75303 -4.24925,-3.71137c-1.55985,-2.6894 -3.44243,-4.35681 -4.14167,-3.65758c-0.37652,0.4303 1.39849,6.07802 2.04394,6.50833c0.32273,0.21515 0.53788,1.23712 0.53788,2.36667c0,1.50606 0.32273,2.25909 1.12955,2.79697c0.69924,0.48409 1.18333,1.55985 1.39849,3.01211c0.26894,1.99015 0.10758,2.42046 -0.96818,3.33485c-1.18333,0.91439 -1.29091,1.55985 -1.45227,5.91666c-0.21515,4.78711 -0.91439,6.6159 -1.29091,3.1197l-0.16136,-1.72121l-0.96818,2.09773c-0.48409,1.18333 -1.12955,1.93637 -1.3447,1.72121c-0.21515,-0.21515 -0.37652,-3.38864 -0.37652,-6.93863c0,-6.88484 -1.55985,-16.08257 -3.33485,-19.47121c-4.19546,-8.12197 -5.10984,-10.16591 -5.37878,-12.20985c-0.37652,-2.74317 -2.47423,-5.75531 -7.10001,-10.38106c-1.82879,-1.775 -3.28105,-3.60379 -3.28105,-4.14167c0,-0.53788 -0.80682,-1.45227 -1.72121,-2.04394c-2.47423,-1.50606 -3.4962,-1.3447 -1.66743,0.21515c2.90455,2.52803 0.53788,2.31288 -7.63787,-0.75303c-7.04621,-2.58182 -26.30226,-4.24925 -29.95984,-2.58182c-0.96818,0.48409 -4.08787,1.39849 -6.88484,2.04394c-2.79697,0.69924 -5.48637,1.50606 -5.91666,1.88258c-1.50606,1.18333 -8.71363,5.10984 -10.00454,5.43257c-0.69924,0.16136 -1.29091,0.64546 -1.29091,0.96818c0,0.37652 -2.04394,2.63561 -4.51819,5.10984c-3.92652,3.81893 -4.73334,4.35681 -5.91666,4.03408c-1.07576,-0.26894 -1.50606,-0.10758 -1.775,0.64546c-0.26894,0.59167 -1.12955,2.20529 -1.99015,3.60379c-2.15152,3.65758 -1.45227,3.65758 1.07576,0c2.09773,-3.06591 3.44243,-4.14167 3.44243,-2.74317c0,0.37652 -1.45227,3.22728 -3.22728,6.34696c-1.775,3.1197 -3.22728,6.13181 -3.22728,6.72348c0,0.59167 -0.59167,3.28105 -1.3447,6.02425c-1.07576,4.14167 -1.29091,6.02425 -1.18333,11.13409c0.05379,4.30302 -0.10758,6.40075 -0.53788,6.83107c-1.07576,1.07576 -1.39849,-0.64546 -1.12955,-6.50833c0.10758,-2.95834 0,-5.37878 -0.16136,-5.37878c-1.61364,0 -0.96818,11.40303 0.69924,12.58636c0.86061,0.64546 0.91439,0.75303 0.16136,1.02197c-0.53788,0.26894 -0.80682,1.02197 -0.75303,2.63561c0.05379,1.99015 0.10758,2.09773 0.4303,0.75303c0.59167,-2.6894 1.61364,-2.25909 3.22728,1.39849c2.31288,5.10984 3.06591,7.85303 2.31288,8.60606c-0.96818,0.96818 -0.80682,1.29091 0.96818,2.04394c0.86061,0.37652 1.93637,1.18333 2.36667,1.88258c0.48409,0.69924 1.50606,1.39849 2.36667,1.61364c0.86061,0.16136 2.09773,0.91439 2.6894,1.61364c0.64546,0.69924 2.15152,1.55985 3.38864,1.88258c1.45227,0.37652 2.31288,0.96818 2.47423,1.66743c0.26894,1.02197 1.12955,1.3447 3.92652,1.66743c0.80682,0.10758 1.39849,0.59167 1.61364,1.3447l0.26894,1.18333l2.20529,-0.96818l2.20529,-1.02197l2.31288,1.99015c1.61364,1.39849 2.25909,2.25909 1.99015,2.90455c-0.37652,1.07576 -4.19546,3.06591 -5.86287,3.06591c-1.775,0 -3.65758,0.59167 -3.65758,1.12955c0,0.21515 1.23712,0.86061 2.79697,1.39849c2.04394,0.69924 2.90455,1.3447 3.33485,2.42046c0.53788,1.39849 1.93637,2.52803 1.93637,1.55985c0,-0.26894 -0.32273,-0.59167 -0.64546,-0.75303c-0.53788,-0.16136 -0.53788,-0.4303 -0.10758,-0.86061c0.48409,-0.48409 1.775,-0.4303 5.64772,0.26894c3.28105,0.59167 8.06818,0.91439 13.66211,0.91439c7.42272,0.05379 9.35909,-0.10758 13.98485,-1.29091c11.24166,-2.74317 23.66665,-11.40303 29.95984,-20.86969c1.50606,-2.25909 3.1197,-4.57196 3.65758,-5.16363c0.48409,-0.59167 1.55985,-3.38864 2.36667,-6.1856c1.82879,-6.40075 2.52803,-7.5303 4.62575,-7.5303c1.55985,0 1.61364,0.10758 1.61364,2.25909c0.05379,2.25909 0.05379,2.31288 0.80682,0.96818c0.4303,-0.75303 0.75303,-1.72121 0.80682,-2.20529c0,-0.69924 0.53788,-0.91439 2.15152,-0.91439c2.04394,-0.05379 2.15152,0.05379 2.15152,1.55985c0,0.86061 -0.26894,1.55985 -0.59167,1.55985c-0.4303,0 -0.48409,0.75303 -0.26894,2.31288c0.21515,1.29091 0.10758,3.54999 -0.26894,5.00228c-0.32273,1.45227 -0.69924,3.92652 -0.75303,5.48637c-0.10758,2.31288 -0.4303,3.17349 -1.61364,4.41061c-0.80682,0.86061 -2.25909,1.72121 -3.17349,1.93637c-2.36667,0.48409 -3.01211,1.18333 -3.01211,3.17349c0,1.39849 0.21515,1.66743 1.23712,1.66743c0.64546,-0.05379 1.61364,-0.53788 2.09773,-1.12955c1.07576,-1.23712 1.29091,-0.32273 0.4303,1.39849c-0.37652,0.59167 -0.37652,1.02197 -0.05379,1.02197c0.26894,0 0.64546,-0.32273 0.75303,-0.69924c0.21515,-0.4303 0.32273,-0.37652 0.32273,0.21515c0.05379,0.4303 -0.53788,1.39849 -1.23712,2.04394c-1.12955,1.07576 -1.3447,1.12955 -1.775,0.37652c-0.4303,-0.75303 -0.64546,-0.69924 -1.775,0.48409c-1.18333,1.29091 -0.86061,1.99015 0.37652,0.75303c0.37652,-0.37652 0.69924,-0.37652 0.91439,0c0.48409,0.75303 -2.15152,2.42046 -3.17349,1.99015c-1.3447,-0.48409 -2.79697,0.37652 -4.51819,2.74317c-1.50606,2.09773 -1.55985,2.20529 -0.53788,2.47423c0.91439,0.26894 1.02197,0.48409 0.53788,1.29091c-0.69924,1.3447 -4.57196,4.78711 -7.90681,7.04621l-2.63561,1.82879l3.38864,-0.37652c2.25909,-0.26894 3.33485,-0.21515 3.33485,0.21515c0,0.32273 -0.26894,0.59167 -0.64546,0.59167c-1.72121,0 0.69924,1.02197 3.17349,1.3447c2.47423,0.32273 2.79697,0.26894 3.1197,-0.80682c0.48409,-1.45227 -0.4303,-2.52803 -2.52803,-2.95834l-1.61364,-0.37652l1.23712,-1.29091c0.96818,-1.02197 1.29091,-1.12955 1.775,-0.53788c0.32273,0.4303 1.45227,0.91439 2.52803,1.07576c2.47423,0.4303 3.98031,1.55985 3.54999,2.63561c-0.59167,1.50606 -4.73334,4.14167 -6.56213,4.14167c-0.91439,0 -2.95834,0.37652 -4.4644,0.80682c-1.775,0.53788 -3.1197,0.69924 -3.71137,0.37652c-1.45227,-0.69924 -3.06591,-0.05379 -4.67955,1.88258l-1.39849,1.66743l4.14167,-0.21515c3.28105,-0.16136 4.57196,-0.48409 6.1856,-1.55985c2.36667,-1.55985 3.1197,-1.66743 3.1197,-0.48409c0,0.4303 0.64546,1.66743 1.39849,2.63561c0.96818,1.3447 1.39849,2.58182 1.45227,4.41061l0.10758,2.58182l-4.03408,1.99015c-2.20529,1.12955 -4.24925,2.04394 -4.57196,2.04394c-0.4303,-0.05379 2.04394,-2.47423 4.4644,-4.41061c1.23712,-0.96818 0.21515,-1.12955 -1.93637,-0.26894c-1.12955,0.48409 -3.60379,1.12955 -5.48637,1.45227c-5.00228,0.91439 -7.36893,1.99015 -7.9606,3.65758l-0.53788,1.45227l-0.59167,-1.50606c-1.23712,-3.1197 -0.96818,-3.38864 5.59393,-5.97045c4.57196,-1.72121 6.34696,-3.01211 4.24925,-3.01211c-0.53788,0 -2.47423,0.64546 -4.41061,1.39849c-1.93637,0.75303 -5.48637,1.775 -7.9606,2.25909c-4.51819,0.91439 -5.59393,1.50606 -3.33485,1.82879c1.55985,0.21515 2.58182,2.25909 2.58182,5.05605c0,3.44243 -1.23712,4.62575 -5.64772,5.10984c-2.04394,0.26894 -3.76514,0.37652 -3.87273,0.26894c-0.16136,-0.10758 0.80682,-0.53788 2.04394,-0.96818c4.62575,-1.55985 2.52803,-2.52803 -5.70151,-2.74317c-5.05605,-0.16136 -6.50833,0.32273 -7.15378,2.31288c-0.32273,0.86061 -0.86061,1.61364 -1.12955,1.61364c-0.80682,0 -0.75303,-6.29319 0,-6.77727c0.32273,-0.16136 2.85076,-0.53788 5.64772,-0.75303c2.79697,-0.21515 5.21743,-0.53788 5.48637,-0.75303c0.21515,-0.26894 -0.80682,-0.32273 -2.31288,-0.16136c-1.45227,0.21515 -4.51819,0.48409 -6.77727,0.64546l-4.08787,0.32273l-0.64546,2.79697c-0.32273,1.55985 -1.07576,3.60379 -1.66743,4.51819c-0.91439,1.55985 -1.23712,1.66743 -3.06591,1.45227c-3.06591,-0.48409 -15.32955,-3.98031 -16.67423,-4.8409c-1.02197,-0.64546 -1.07576,-0.91439 -0.64546,-3.01211c0.32273,-1.23712 0.80682,-2.58182 1.12955,-2.95834c0.4303,-0.53788 0.32273,-0.69924 -0.48409,-0.69924c-0.64546,0 -1.66743,0.96818 -2.74317,2.58182c-3.33485,5.21743 -2.85076,5.16363 -11.45682,0.91439c-4.14167,-2.09773 -8.17575,-4.30302 -8.98257,-4.94849l-1.45227,-1.18333l1.29091,-2.42046c1.61364,-3.06591 2.42046,-3.1197 8.01439,-0.59167c2.20529,1.07576 3.98031,1.775 3.81893,1.66743c-0.37652,-0.37652 -11.94091,-7.31515 -12.15606,-7.31515c-0.10758,0 -1.39849,0.96818 -2.90455,2.15152c-1.50606,1.18333 -3.22728,2.15152 -3.81893,2.15152c-1.12955,0 -6.88484,-4.57196 -6.88484,-5.48637c0,-0.26894 0.53788,-0.4303 1.23712,-0.32273c1.02197,0.16136 1.18333,-0.05379 0.96818,-1.45227c-0.05379,-0.86061 -0.86061,-2.42046 -1.72121,-3.38864c-1.12955,-1.29091 -1.55985,-2.31288 -1.55985,-3.87273c0,-1.12955 -0.16136,-2.52803 -0.37652,-3.06591c-0.21515,-0.64546 0.37652,-0.32273 1.72121,0.91439c1.99015,1.82879 1.99015,1.775 -0.59167,-1.55985c-1.45227,-1.93637 -2.79697,-3.71137 -2.95834,-3.98031c-0.21515,-0.26894 -1.02197,0 -1.88258,0.59167c-0.86061,0.64546 -2.74317,1.45227 -4.14167,1.82879c-2.42046,0.64546 -2.6894,0.59167 -3.38864,-0.37652c-0.4303,-0.53788 -0.75303,-1.3447 -0.75303,-1.775c0,-0.64546 0.21515,-0.64546 1.07576,0.16136c1.07576,0.96818 2.6894,0.75303 2.6894,-0.37652c0,-0.37652 -0.86061,-2.04394 -1.88258,-3.65758c-1.02197,-1.61364 -1.88258,-3.28105 -1.88258,-3.76514c0,-0.48409 -0.48409,-2.31288 -1.07576,-4.03408c-1.02197,-2.95834 -1.02197,-3.22728 -0.16136,-4.51819l0.86061,-1.3447l2.31288,4.78711c1.23712,2.6894 2.31288,4.57196 2.31288,4.24925c0.05379,-0.32273 -0.75303,-2.42046 -1.72121,-4.57196c-1.02197,-2.20529 -2.09773,-4.8409 -2.47423,-5.91666c-0.96818,-3.06591 -2.25909,-3.92652 -5.16363,-3.4962c-5.91666,0.80682 -7.04621,0.86061 -7.63787,0.48409c-0.80682,-0.59167 -2.20529,-8.98257 -2.6894,-16.19014l-0.32273,-5.48637h3.28105c1.82879,0 3.33485,0.05379 3.38864,0.10758c0,0.10758 0.32273,2.90455 0.69924,6.23939c0.37652,3.33485 0.86061,6.1856 1.02197,6.34696c0.16136,0.21515 1.07576,0 2.04394,-0.37652l1.66743,-0.75303l-0.26894,-6.1856c-0.26894,-5.8091 -0.37652,-6.23939 -1.72121,-7.36893c-1.07576,-0.91439 -2.09773,-1.23712 -4.08787,-1.23712c-2.79697,0 -6.40075,-1.18333 -6.40075,-2.09773c0,-1.23712 1.66743,-9.14394 2.52803,-11.88712l0.91439,-2.95834l0.32273,2.42046l0.32273,2.42046l0.69924,-3.92652c0.59167,-2.95834 0.64546,-4.19546 0.16136,-5.21743c-0.53788,-1.18333 -0.48409,-1.3447 0.48409,-1.3447c0.59167,0 1.88258,0.37652 2.90455,0.75303c2.25909,0.96818 2.25909,1.39849 0.80682,7.85303c-1.3447,5.8091 -1.3447,5.91666 0.21515,5.91666c2.42046,0 3.65758,-1.66743 3.81893,-4.89469c0.05379,-1.61364 0.4303,-4.19546 0.80682,-5.75531c1.02197,-3.92652 0.4303,-5.32499 -2.79697,-6.56213c-2.85076,-1.07576 -5.75531,-3.17349 -5.75531,-4.19546c-0.10758,-1.93637 4.24925,-9.52045 10.21969,-18.01893c0.4303,-0.64546 3.1197,0.80682 4.73334,2.52803c1.50606,1.61364 1.12955,2.52803 -0.59167,1.45227c-1.07576,-0.64546 -1.29091,-0.59167 -2.31288,0.69924c-1.23712,1.50606 -2.20529,1.88258 -1.72121,0.59167c0.21515,-0.4303 0.10758,-0.91439 -0.16136,-1.07576c-0.75303,-0.48409 -2.47423,0.80682 -3.4962,2.58182c-0.91439,1.55985 -0.91439,1.66743 0,2.36667c0.59167,0.37652 1.18333,0.69924 1.45227,0.69924c0.91439,0 0.37652,1.775 -1.07576,3.17349c-1.29091,1.3447 -3.17349,6.29319 -2.58182,6.88484c0.16136,0.16136 0.86061,-0.96818 1.61364,-2.42046c1.55985,-3.06591 2.31288,-3.71137 3.17349,-2.85076c0.32273,0.32273 1.3447,0.59167 2.31288,0.59167c1.61364,0 1.88258,-0.32273 4.8409,-5.48637c1.775,-3.06591 3.33485,-5.91666 3.4962,-6.34696c0.53788,-1.29091 -0.37652,-3.01211 -2.04394,-4.03408c-0.86061,-0.48409 -2.15152,-1.72121 -2.79697,-2.74317c-1.18333,-1.66743 -1.23712,-1.99015 -0.53788,-3.22728c0.91439,-1.72121 11.61818,-12.04848 13.55455,-13.07044c1.12955,-0.59167 1.55985,-0.64546 2.25909,-0.05379c1.02197,0.86061 0.86061,1.07576 -3.4962,4.57196c-3.60379,2.85076 -6.88484,6.50833 -6.34696,6.99242c0.32273,0.37652 6.29319,-3.87273 9.03636,-6.40075c3.81893,-3.4962 3.06591,-1.66743 -1.29091,3.1197c-2.25909,2.47423 -4.08787,4.73334 -4.08787,5.05605c0,0.26894 0.59167,0.69924 1.39849,0.86061c1.3447,0.37652 3.4962,-0.75303 5.05605,-2.63561c0.37652,-0.4303 1.07576,-0.80682 1.55985,-0.80682c0.48409,0 1.93637,-0.53788 3.28105,-1.12955c2.25909,-1.07576 2.36667,-1.18333 1.23712,-1.66743c-1.12955,-0.53788 -1.12955,-0.64546 -0.32273,-1.88258c0.80682,-1.18333 0.80682,-1.39849 -0.21515,-2.74317c-1.72121,-2.36667 -2.85076,-4.78711 -2.85076,-6.23939c0,-1.12955 0.80682,-1.775 5.54016,-4.30302c6.6159,-3.54999 12.47879,-5.91666 13.50076,-5.54016c0.4303,0.16136 1.12955,1.3447 1.45227,2.58182c0.69924,2.15152 0.64546,2.25909 -0.75303,3.44243c-0.80682,0.64546 -3.38864,2.09773 -5.75531,3.22728c-3.33485,1.61364 -4.14167,2.25909 -3.65758,2.79697c0.32273,0.37652 0.80682,0.69924 1.18333,0.69924c0.53788,0 10.75757,-4.30302 12.69394,-5.32499c0.86061,-0.48409 0.96818,-2.63561 0.26894,-4.78711c-0.37652,-1.18333 -0.37652,-1.18333 1.18333,-0.26894c0.91439,0.48409 1.61364,1.18333 1.61364,1.45227c-0.05379,3.22728 0.21515,3.98031 1.66743,4.51819c3.17349,1.29091 5.16363,1.29091 6.66969,0.16136c0.75303,-0.64546 2.15152,-1.29091 3.06591,-1.45227c1.18333,-0.26894 1.66743,-0.64546 1.66743,-1.39849c0,-1.23712 -1.45227,-1.88258 -2.31288,-1.02197c-0.32273,0.32273 -1.61364,0.59167 -2.90455,0.59167c-2.04394,0 -2.42046,-0.16136 -2.90455,-1.45227c-0.86061,-2.36667 -0.37652,-3.06591 2.74317,-4.08787c1.61364,-0.53788 3.22728,-1.23712 3.4962,-1.55985c0.75303,-0.75303 -7.63787,-0.05379 -10.91894,0.96818c-3.28105,0.96818 -3.33485,0.96818 -3.33485,-0.48409c0,-1.88258 0.64546,-2.42046 3.33485,-3.01211c3.71137,-0.86061 13.71591,-2.20529 16.13637,-2.20529h2.04394v2.90455c0,1.775 -0.26894,3.1197 -0.75303,3.4962c-0.37652,0.32273 -3.17349,0.91439 -6.1856,1.29091c-2.95834,0.4303 -5.59393,0.91439 -5.8091,1.07576c-0.21515,0.21515 0.05379,0.80682 0.53788,1.29091c0.80682,0.80682 1.23712,0.80682 6.13181,0c2.90455,-0.53788 6.29319,-0.91439 7.47651,-0.91439c2.6894,0 3.65758,-0.96818 3.22728,-3.06591c-0.37652,-1.55985 0.75303,-5.59393 1.88258,-6.99242c0.80682,-0.96818 1.775,-0.91439 10.48863,0.64546zM243.92653,95.59102c-1.82879,-0.32273 -2.04394,-0.21515 -2.04394,0.80682c0,1.29091 0,1.29091 3.4962,0.32273c1.50606,-0.37652 2.20529,-0.75303 1.61364,-0.75303c-0.59167,-0.05379 -1.99015,-0.21515 -3.06591,-0.37652zM266.62501,99.94785c0,0.16136 0.21515,0.80682 0.53788,1.3447c0.37652,0.69924 0.32273,1.12955 -0.26894,1.61364c-0.37652,0.32273 -0.59167,0.96818 -0.4303,1.39849c0.4303,1.18333 -0.86061,2.36667 -2.74317,2.36667c-1.50606,0.05379 -1.55985,0.10758 -0.75303,0.75303c0.69924,0.53788 1.55985,0.53788 3.65758,0.10758c2.95834,-0.59167 3.06591,-0.69924 1.93637,-2.20529c-0.69924,-0.96818 -0.59167,-1.12955 0.80682,-1.99015c0.86061,-0.53788 2.09773,-0.96818 2.79697,-1.02197c0.91439,0 0.69924,-0.26894 -0.96818,-1.02197c-2.79697,-1.23712 -4.57196,-1.775 -4.57196,-1.3447zM205.84471,105.27284c-3.38864,0.75303 -9.78939,3.87273 -12.31742,6.02425l-1.72121,1.45227l1.3447,1.39849c0.75303,0.80682 1.66743,2.20529 1.99015,3.17349c0.64546,1.88258 1.45227,2.09773 4.19546,1.12955c2.36667,-0.80682 2.09773,-1.50606 -0.48409,-1.18333c-2.31288,0.32273 -2.47423,0.16136 -1.50606,-1.39849c0.48409,-0.80682 0.4303,-1.50606 -0.21515,-3.22728c-0.86061,-2.15152 -0.86061,-2.25909 0.26894,-3.01211c0.64546,-0.4303 3.38864,-1.50606 6.02425,-2.42046c2.6894,-0.96818 5.21743,-1.93637 5.64772,-2.20529c1.07576,-0.59167 0.37652,-0.53788 -3.22728,0.26894zM300.02727,115.81526h-1.29091c-1.61364,0 -1.775,0.21515 -3.1197,3.17349c-0.59167,1.3447 -1.45227,2.85076 -1.88258,3.33485c-0.75303,0.80682 -0.69924,1.02197 0.4303,1.775c1.72121,1.23712 1.88258,1.12955 2.25909,-1.66743c0.21515,-1.66743 0.91439,-3.28105 1.99015,-4.57196zM276.19925,120.11828c-0.69924,0 -1.88258,0.59167 -2.58182,1.3447c-1.12955,1.23712 -1.18333,1.3447 -0.26894,1.66743c1.12955,0.4303 2.31288,-0.16136 3.38864,-1.82879c0.75303,-1.12955 0.69924,-1.18333 -0.53788,-1.18333zM282.16971,121.19404c-0.26894,0 -0.37652,0.21515 -0.21515,0.53788c0.16136,0.26894 0.4303,0.53788 0.59167,0.53788c0.10758,0 0.21515,-0.26894 0.21515,-0.53788c0,-0.32273 -0.26894,-0.53788 -0.59167,-0.53788zM278.45833,121.73192c-0.80682,0 -0.64546,0.53788 0.69924,2.36667c0.69924,0.91439 2.31288,3.4962 3.60379,5.70151c2.95834,5.10984 3.98031,6.29319 7.04621,7.79924c1.3447,0.69924 2.74317,1.66743 3.1197,2.09773c0.4303,0.48409 1.18333,0.86061 1.72121,0.86061c1.45227,0 1.88258,2.36667 0.75303,4.08787c-0.86061,1.3447 -0.86061,1.3447 0.21515,0.75303c1.50606,-0.75303 2.04394,-3.06591 1.07576,-4.78711c-0.4303,-0.80682 -2.15152,-2.04394 -4.08787,-3.01211c-4.19546,-2.04394 -6.83107,-4.51819 -8.76742,-8.33712c-0.80682,-1.61364 -2.25909,-3.98031 -3.17349,-5.27122c-0.91439,-1.23712 -1.93637,-2.25909 -2.20529,-2.25909zM297.82196,123.82965c-0.96818,1.82879 -0.59167,3.33485 1.55985,6.56213c1.18333,1.72121 2.20529,3.44243 2.36667,3.81893c0.10758,0.37652 0.4303,0.53788 0.64546,0.32273c0.21515,-0.21515 0,-1.02197 -0.48409,-1.72121c-0.48409,-0.75303 -0.86061,-1.66743 -0.86061,-1.99015c0,-0.37652 -0.37652,-0.91439 -0.86061,-1.29091c-0.59167,-0.4303 -0.91439,-1.55985 -0.96818,-3.65758c-0.05379,-3.22728 -0.4303,-3.76514 -1.39849,-2.04394zM269.31441,124.9592c0,1.18333 -0.53788,2.15152 -1.93637,3.44243l-1.93637,1.82879l1.66743,0.37652c1.93637,0.4303 2.52803,0.26894 2.31288,-0.64546c-0.05379,-0.32273 0.48409,-1.50606 1.23712,-2.63561c1.29091,-1.88258 1.29091,-2.04394 0.48409,-3.01211c-1.29091,-1.39849 -1.82879,-1.18333 -1.82879,0.64546zM275.23107,125.01299c0,1.02197 6.77727,10.16591 7.5303,10.16591c0.86061,0 0.59167,-1.775 -0.4303,-3.22728c-1.775,-2.58182 -7.10001,-7.74545 -7.10001,-6.93863zM240.32274,126.89555c-1.18333,0.37652 -0.37652,0.80682 2.90455,1.55985c2.36667,0.59167 2.95834,0.59167 2.95834,0.05379c0,-1.775 -3.06591,-2.58182 -5.86287,-1.61364zM177.87502,129.04707c-1.23712,1.93637 -1.23712,1.99015 -0.26894,3.81893c0.59167,1.02197 1.45227,2.09773 2.04394,2.42046c1.775,0.91439 2.09773,-0.16136 1.29091,-3.81893c-1.07576,-4.51819 -1.55985,-4.89469 -3.06591,-2.42046zM276.30681,133.3501c4.03408,5.8091 5.37878,7.31515 5.37878,6.02425c0,-0.48409 -1.775,-3.28105 -3.98031,-6.23939c-6.23939,-8.39091 -7.26136,-8.28333 -1.39849,0.21515zM289.21592,127.27208c-1.02197,0 -1.61364,0.26894 -1.61364,0.75303c0,0.91439 2.74317,0.75303 3.06591,-0.16136c0.10758,-0.32273 -0.48409,-0.59167 -1.45227,-0.59167zM198.63715,129.26222c-0.86061,0.26894 -1.72121,0.37652 -1.93637,0.26894c-0.21515,-0.10758 -1.29091,0.96818 -2.36667,2.42046c-1.3447,1.775 -2.47423,2.6894 -3.22728,2.6894c-1.12955,0 -3.44243,1.29091 -4.19546,2.36667c-0.26894,0.32273 -0.4303,1.45227 -0.37652,2.47423c0,1.02197 -0.16136,2.47423 -0.37652,3.22728c-0.32273,1.02197 0.26894,0.59167 2.58182,-1.72121c1.66743,-1.72121 3.1197,-3.4962 3.33485,-3.98031c0.16136,-0.48409 0.80682,-0.96818 1.39849,-1.12955c0.86061,-0.21515 0.96818,-0.48409 0.53788,-1.02197c-0.69924,-0.80682 0.16136,-2.85076 1.23712,-2.95834c1.88258,-0.16136 4.4644,0.21515 4.73334,0.69924c0.21515,0.26894 0.48409,-0.05379 0.69924,-0.80682c0.16136,-0.75303 0.48409,-1.72121 0.64546,-2.20529c0.37652,-0.96818 -0.26894,-1.02197 -2.6894,-0.32273zM256.24394,128.72434c-0.91439,0.05379 1.72121,2.15152 2.63561,2.15152c1.23712,0 0.86061,-1.07576 -0.64546,-1.61364c-0.75303,-0.32273 -1.66743,-0.53788 -1.99015,-0.53788zM293.73408,128.77813c-0.59167,0 -0.75303,0.16136 -0.32273,0.32273c0.37652,0.16136 0.86061,0.10758 1.02197,-0.05379c0.21515,-0.16136 -0.10758,-0.32273 -0.69924,-0.26894zM308.20303,128.83193c-0.37652,-0.10758 -0.69924,0.10758 -0.69924,0.53788c0,1.12955 1.55985,3.1197 2.47423,3.1197c1.02197,0 0.96818,-0.53788 -0.16136,-1.39849c-0.53788,-0.37652 -0.96818,-0.96818 -0.96818,-1.3447c0,-0.37652 -0.32273,-0.75303 -0.64546,-0.91439zM182.76974,129.36981c-0.4303,-0.16136 -0.64546,0.05379 -0.48409,0.48409c0.10758,0.37652 0.53788,0.80682 0.91439,0.91439c0.4303,0.16136 0.64546,-0.05379 0.48409,-0.48409c-0.10758,-0.37652 -0.53788,-0.80682 -0.91439,-0.91439zM230.8023,129.31601c-0.59167,0 -0.75303,0.16136 -0.32273,0.32273c0.37652,0.16136 0.86061,0.10758 1.02197,-0.05379c0.21515,-0.16136 -0.10758,-0.32273 -0.69924,-0.26894zM228.43563,129.90769c-0.75303,0 -1.02197,0.10758 -0.64546,0.26894c0.32273,0.10758 0.96818,0.10758 1.3447,0c0.32273,-0.16136 0.05379,-0.26894 -0.69924,-0.26894zM274.85454,134.21071c-1.88258,-2.47423 -3.38864,-4.24925 -3.38864,-4.03408c0,0.86061 6.29319,9.14394 6.66969,8.71363c0.05379,-0.10758 -1.39849,-2.20529 -3.28105,-4.67955zM289.75378,130.33798c-0.59167,0.4303 -0.4303,0.48409 0.64546,0.21515c1.775,-0.37652 3.1197,1.45227 1.99015,2.79697c-0.96818,1.18333 -1.775,0.91439 -3.54999,-1.12955c-0.91439,-1.02197 -1.99015,-1.88258 -2.31288,-1.88258c-0.69924,0 1.55985,2.90455 3.38864,4.30302c1.29091,1.02197 7.31515,1.88258 6.34696,0.91439c-0.96818,-0.96818 -0.64546,-1.50606 0.75303,-1.12955c1.02197,0.26894 1.3447,0.10758 1.3447,-0.53788c0,-0.48409 -0.4303,-0.86061 -1.07576,-0.86061c-1.29091,0 -1.3447,-0.4303 -0.16136,-1.72121c0.69924,-0.80682 0.75303,-0.96818 0.05379,-0.96818c-0.4303,0 -1.23712,0.37652 -1.82879,0.80682c-1.29091,0.96818 -2.36667,1.02197 -2.36667,0.05379c0,-0.4303 -0.37652,-0.91439 -0.86061,-1.07576c-1.12955,-0.4303 -1.39849,-0.37652 -2.36667,0.21515zM214.98867,134.42586c-1.61364,1.18333 -1.66743,1.3447 -0.53788,1.02197c2.15152,-0.64546 4.8409,-1.775 4.8409,-2.09773c0,-0.80682 -2.63561,-0.10758 -4.30302,1.07576zM284.69773,139.1054c-0.96818,2.63561 -1.12955,3.81893 -0.32273,3.33485c0.32273,-0.16136 0.53788,-0.86061 0.53788,-1.50606c0,-0.64546 0.37652,-1.66743 0.80682,-2.20529c0.4303,-0.59167 0.80682,-1.23712 0.80682,-1.50606c0,-1.23712 -1.02197,-0.16136 -1.82879,1.88258zM298.09091,138.24479c1.66743,3.92652 1.61364,4.78711 -0.4303,7.58409c-1.93637,2.58182 -2.79697,4.89469 -1.3447,3.44243c0.96818,-0.96818 1.99015,-0.75303 1.66743,0.37652c-0.16136,0.53788 0.10758,1.72121 0.59167,2.63561c0.48409,0.91439 0.86061,2.09773 0.86061,2.58182c0,0.75303 -0.32273,0.64546 -1.61364,-0.59167c-0.86061,-0.86061 -1.61364,-1.99015 -1.61364,-2.52803c0,-0.80682 -0.16136,-0.91439 -1.02197,-0.4303c-0.59167,0.26894 -2.04394,0.53788 -3.28105,0.53788c-2.09773,0 -2.15152,0.05379 -1.82879,1.45227c0.69924,2.90455 1.18333,3.65758 2.90455,4.67955l1.72121,0.96818l-1.93637,-2.85076c-1.07576,-1.61364 -1.93637,-3.06591 -1.93637,-3.28105c0,-0.21515 0.86061,0 1.82879,0.48409c1.55985,0.69924 1.99015,1.3447 2.58182,3.4962c0.59167,2.47423 1.3447,3.33485 4.14167,5.00228c0.86061,0.48409 0.64546,0 -1.66743,-3.17349c-2.15152,-2.95834 -1.99015,-3.87273 0.37652,-2.36667c1.3447,0.86061 2.04394,1.88258 2.47423,3.33485c0.53788,2.04394 3.44243,5.59393 4.08787,5.00228c0.16136,-0.16136 -0.59167,-1.39849 -1.66743,-2.6894c-2.20529,-2.6894 -2.58182,-3.98031 -0.80682,-3.06591c2.20529,1.18333 2.09773,0.16136 -0.32273,-2.90455c-1.3447,-1.72121 -2.31288,-3.28105 -2.20529,-3.44243c0.16136,-0.10758 1.12955,0.26894 2.15152,0.91439c1.29091,0.80682 2.09773,1.88258 2.58182,3.38864c0.4303,1.29091 1.50606,2.79697 2.47423,3.54999c2.15152,1.66743 2.15152,1.3447 0.10758,-1.23712c-1.99015,-2.47423 -2.04394,-3.17349 -0.26894,-2.74317c1.82879,0.48409 1.72121,-0.37652 -0.53788,-2.85076c-1.02197,-1.12955 -1.88258,-2.36667 -1.88258,-2.6894c0,-0.75303 0.16136,-0.75303 1.88258,0.05379c1.02197,0.4303 1.55985,1.3447 2.15152,3.38864c0.80682,2.6894 1.12955,3.01211 4.19546,4.4644c0.26894,0.10758 -0.26894,-0.80682 -1.18333,-2.04394c-1.93637,-2.6894 -2.09773,-3.44243 -0.59167,-2.95834c1.55985,0.48409 1.3447,-0.05379 -1.07576,-3.33485c-2.42046,-3.17349 -2.95834,-3.4962 -2.47423,-1.50606c0.48409,1.93637 -0.16136,1.66743 -2.36667,-0.91439c-1.39849,-1.61364 -2.20529,-2.15152 -2.90455,-1.88258c-0.80682,0.32273 -0.80682,0.48409 -0.10758,1.55985c0.4303,0.69924 0.96818,2.20529 1.18333,3.38864l0.37652,2.15152l-1.72121,-1.61364c-1.23712,-1.12955 -1.66743,-1.99015 -1.50606,-2.85076c0.16136,-0.86061 0,-1.18333 -0.80682,-1.18333c-0.91439,0 -0.96818,-0.10758 -0.16136,-1.61364c0.4303,-0.86061 0.80682,-2.42046 0.80682,-3.4962c0,-1.07576 -0.37652,-2.63561 -0.80682,-3.4962c-0.91439,-1.72121 -1.72121,-2.25909 -1.07576,-0.69924zM304.27651,138.94405c0.64546,0.86061 1.39849,1.61364 1.66743,1.61364c0.69924,0 0.59167,-0.21515 -0.86061,-1.82879c-1.775,-1.88258 -2.20529,-1.775 -0.80682,0.21515zM193.36594,139.15919c-0.4303,-0.37652 -2.6894,2.36667 -2.47423,3.01211c0.10758,0.32273 0.75303,-0.16136 1.45227,-1.07576c0.64546,-0.91439 1.12955,-1.775 1.02197,-1.93637zM206.59775,140.01979c-0.32273,0 -1.66743,0.96818 -2.95834,2.15152c-1.29091,1.12955 -2.09773,2.09773 -1.775,2.15152c0.32273,0 1.66743,-0.96818 2.95834,-2.15152c1.29091,-1.12955 2.09773,-2.09773 1.775,-2.15152zM303.73863,142.44025c-1.55985,-1.99015 -1.61364,-1.99015 -1.61364,-0.64546c0,1.3447 2.31288,3.60379 2.95834,2.95834c0.16136,-0.16136 -0.4303,-1.18333 -1.3447,-2.31288zM287.8712,141.09555c-0.69924,0 -2.42046,2.25909 -2.42046,3.17349c0,1.39849 2.20529,4.4644 3.76514,5.27122c1.55985,0.80682 4.94849,0.69924 5.21743,-0.16136c0.10758,-0.37652 -0.80682,-0.69924 -2.25909,-0.86061c-3.60379,-0.4303 -4.67955,-1.61364 -4.35681,-4.8409c0.16136,-1.39849 0.21515,-2.58182 0.05379,-2.58182zM289.43107,143.08571c-0.32273,1.07576 -0.10758,1.66743 0.86061,2.42046c0.64546,0.53788 1.50606,0.96818 1.93637,0.96818c1.18333,0 0.86061,-0.53788 -0.59167,-1.07576c-0.75303,-0.26894 -1.3447,-0.75303 -1.3447,-1.07576c0,-0.26894 0.59167,-0.53788 1.3447,-0.53788h1.3447l-1.07576,-1.07576c-1.45227,-1.45227 -2.04394,-1.3447 -2.47423,0.37652zM193.74245,143.24707c-0.53788,0 -0.80682,0.32273 -0.69924,0.86061c0.21515,1.12955 1.18333,1.23712 1.39849,0.05379c0.10758,-0.53788 -0.16136,-0.91439 -0.69924,-0.91439zM314.06588,145.66753c-0.96818,0.69924 -1.99015,1.3447 -2.31288,1.45227c-0.32273,0.10758 -0.26894,0.80682 0.10758,1.93637c0.48409,1.3447 0.80682,1.66743 1.50606,1.39849c0.48409,-0.21515 1.45227,-0.37652 2.15152,-0.4303c1.39849,-0.05379 1.61364,0.21515 3.65758,4.73334c1.18333,2.63561 2.31288,3.1197 2.36667,1.02197c0.05379,-1.02197 0.48409,-0.21515 1.39849,2.63561c1.02197,3.33485 1.50606,4.19546 2.36667,4.19546c0.53788,0 1.02197,-0.21515 1.02197,-0.48409c0,-1.82879 -3.17349,-8.875 -5.10984,-11.34924c-1.23712,-1.61364 -2.6894,-3.76514 -3.17349,-4.73334c-1.02197,-1.99015 -1.55985,-2.04394 -3.98031,-0.37652zM186.48108,146.47433c-0.69924,0.4303 -0.64546,0.53788 0.16136,0.53788c0.48409,0 0.91439,-0.26894 0.91439,-0.53788c0,-0.64546 -0.05379,-0.64546 -1.07576,0zM189.86973,147.81903c-0.37652,1.12955 0.16136,4.57196 0.91439,5.32499c0.37652,0.37652 0.53788,-0.48409 0.53788,-2.79697c0,-3.17349 -0.69924,-4.41061 -1.45227,-2.52803zM198.31441,147.01221c-0.26894,0 -0.53788,0.26894 -0.53788,0.59167c0,0.26894 0.26894,0.37652 0.53788,0.21515c0.32273,-0.16136 0.53788,-0.4303 0.53788,-0.59167c0,-0.10758 -0.21515,-0.21515 -0.53788,-0.21515zM175.66973,148.08797c-0.75303,0 -0.53788,1.39849 0.32273,2.15152c0.86061,0.69924 1.07576,0.16136 0.48409,-1.29091c-0.16136,-0.48409 -0.53788,-0.86061 -0.80682,-0.86061zM284.75151,148.46449c-1.18333,1.18333 0.21515,4.4644 2.47423,5.8091l1.66743,0.96818l-1.18333,-1.88258c-1.29091,-2.04394 -1.50606,-2.85076 -0.64546,-2.31288c0.32273,0.16136 0.53788,0.10758 0.53788,-0.16136c0,-0.75303 -2.47423,-2.85076 -2.85076,-2.42046zM182.07049,149.64782l-0.16136,-1.12955l-1.50606,1.18333c-1.12955,0.91439 -1.3447,1.3447 -0.91439,1.88258c0.4303,0.53788 0.37652,1.18333 -0.26894,2.42046c-0.86061,1.66743 -0.86061,1.72121 0.16136,1.39849c0.53788,-0.21515 2.20529,-0.4303 3.65758,-0.53788c2.6894,-0.16136 5.05605,-1.07576 5.05605,-1.88258c0,-0.86061 -1.18333,-3.81893 -1.50606,-3.81893c-0.21515,0.05379 -0.96818,0.37652 -1.72121,0.80682c-0.75303,0.4303 -1.61364,0.75303 -1.99015,0.80682c-0.32273,0 -0.69924,-0.48409 -0.80682,-1.12955zM164.53564,153.57434c0.26894,0.80682 2.6894,2.09773 3.1197,1.72121c0.16136,-0.16136 -0.32273,-0.75303 -1.02197,-1.3447c-1.45227,-1.18333 -2.42046,-1.3447 -2.09773,-0.37652zM189.00911,157.23192c-0.53788,0 -2.09773,2.20529 -1.82879,2.47423c0.64546,0.64546 1.99015,-0.32273 1.99015,-1.39849c0,-0.59167 -0.10758,-1.07576 -0.16136,-1.07576zM289.21592,158.68418c0.05379,2.95834 1.29091,4.24925 2.63561,2.63561c0.4303,-0.53788 0.32273,-1.02197 -0.53788,-2.15152c-1.29091,-1.61364 -2.09773,-1.82879 -2.09773,-0.48409zM183.20004,159.59858c-0.80682,1.66743 -0.4303,2.15152 1.12955,1.66743c0.75303,-0.26894 1.07576,-0.69924 0.96818,-1.50606c-0.21515,-1.66743 -1.39849,-1.72121 -2.09773,-0.16136zM176.15383,159.9213c-0.16136,-1.02197 -0.16136,-1.02197 -1.88258,0.05379c-0.96818,0.64546 -1.775,1.45227 -1.775,1.82879c0,0.37652 -0.37652,0.96818 -0.86061,1.39849c-0.75303,0.64546 -0.75303,0.75303 0.32273,1.12955c1.18333,0.4303 1.18333,1.39849 -0.10758,4.03408c-0.4303,0.91439 -0.4303,1.775 0,3.22728c0.64546,2.15152 0.37652,3.22728 -0.69924,2.31288c-0.75303,-0.64546 -1.3447,0.75303 -1.3447,3.28105c0,1.82879 -0.53788,2.31288 -1.3447,1.18333c-0.37652,-0.48409 -0.91439,-0.69924 -1.23712,-0.48409c-0.64546,0.37652 -0.48409,2.6894 0.69924,9.7356c0.4303,2.63561 0.96818,5.8091 1.18333,6.93863l0.32273,2.15152l-1.50606,-1.18333c-0.80682,-0.64546 -1.61364,-1.12955 -1.72121,-0.96818c-0.10758,0.10758 0.37652,1.55985 1.12955,3.22728c1.12955,2.52803 1.55985,3.01211 2.6894,3.01211c1.50606,0 1.93637,-1.39849 0.75303,-2.58182c-0.4303,-0.4303 -0.4303,-0.64546 -0.05379,-0.64546c0.32273,0 0.86061,0.32273 1.18333,0.75303c0.86061,1.02197 2.74317,1.45227 2.74317,0.64546c0,-0.37652 -0.21515,-0.86061 -0.53788,-1.18333c-0.53788,-0.53788 0.64546,-4.4644 1.775,-6.02425c0.75303,-0.96818 1.45227,-0.75303 1.45227,0.48409c0,0.80682 0.21515,1.02197 0.86061,0.80682c0.48409,-0.16136 1.02197,-0.32273 1.29091,-0.32273c0.21515,0 0.53788,-0.48409 0.69924,-1.07576c0.21515,-0.80682 0,-1.07576 -0.80682,-1.07576c-1.50606,0 -3.1197,-0.96818 -3.1197,-1.93637c0,-0.4303 0.64546,-1.07576 1.39849,-1.39849c1.02197,-0.48409 1.29091,-0.91439 1.02197,-1.72121c-0.86061,-2.63561 -0.91439,-3.54999 -0.32273,-3.54999c0.37652,0 0.48409,0.21515 0.32273,0.53788c-0.4303,0.64546 0.26894,0.69924 1.29091,0.05379c0.59167,-0.37652 0.53788,-0.69924 -0.16136,-1.775c-0.80682,-1.23712 -0.80682,-1.3447 1.29091,-3.38864c2.42046,-2.36667 2.58182,-2.95834 1.12955,-3.87273c-0.53788,-0.32273 -1.23712,-1.72121 -1.61364,-3.06591c-0.32273,-1.3447 -1.3447,-3.28105 -2.20529,-4.30302c-1.29091,-1.45227 -1.55985,-2.09773 -1.29091,-3.4962c0.21515,-1.02197 0.10758,-1.66743 -0.21515,-1.66743c-0.32273,0 -0.64546,-0.48409 -0.75303,-1.07576zM307.98787,162.87964c-1.39849,-0.75303 -1.55985,-0.75303 -1.55985,0c0,0.48409 0.64546,1.07576 1.39849,1.3447c1.775,0.69924 2.52803,0.69924 2.09773,0c-0.16136,-0.32273 -1.02197,-0.91439 -1.93637,-1.3447zM183.30761,163.90161c-0.53788,0.64546 -0.4303,0.69924 0.4303,0.48409c0.64546,-0.16136 1.12955,-0.48409 1.12955,-0.75303c0,-0.75303 -0.86061,-0.59167 -1.55985,0.26894zM187.07277,163.14858c-0.64546,0 -1.3447,1.07576 -0.96818,1.45227c0.37652,0.37652 1.45227,-0.32273 1.45227,-0.96818c0,-0.26894 -0.21515,-0.48409 -0.48409,-0.48409zM180.51064,163.68646c-0.26894,0 -0.48409,0.21515 -0.48409,0.53788c0,0.26894 0.37652,0.53788 0.86061,0.53788c0.4303,0 0.64546,-0.26894 0.48409,-0.53788c-0.16136,-0.32273 -0.53788,-0.53788 -0.86061,-0.53788zM190.03109,163.84782c-0.10758,-0.10758 -0.4303,0.53788 -0.75303,1.39849c-0.69924,2.04394 -0.26894,2.20529 0.48409,0.26894c0.26894,-0.80682 0.4303,-1.55985 0.26894,-1.66743zM306.96591,165.51525c0,0.4303 0.21515,0.91439 0.48409,1.07576c0.26894,0.21515 0.37652,-0.16136 0.21515,-0.75303c-0.32273,-1.23712 -0.69924,-1.39849 -0.69924,-0.32273zM291.95909,168.09706c-0.64546,2.09773 -0.59167,2.31288 0.4303,3.17349c0.75303,0.64546 1.12955,1.55985 1.12955,2.90455c0,1.12955 0.21515,1.82879 0.53788,1.61364c0.64546,-0.4303 0.69924,-4.41061 0.05379,-4.78711c-0.26894,-0.16136 -0.32273,-1.39849 -0.16136,-2.74317c0.32273,-3.28105 -1.07576,-3.38864 -1.99015,-0.16136zM310.13939,167.4516c-0.26894,0 -0.37652,0.21515 -0.21515,0.53788c0.16136,0.26894 0.4303,0.53788 0.59167,0.53788c0.10758,0 0.21515,-0.26894 0.21515,-0.53788c0,-0.32273 -0.26894,-0.53788 -0.59167,-0.53788zM157.11291,172.02358c-0.4303,-1.18333 -0.64546,-1.55985 -0.48409,-0.80682c0.16136,0.75303 0.26894,2.85076 0.26894,4.67955c0,3.38864 0,3.38864 1.55985,3.38864c0.86061,0 2.20529,0.21515 2.95834,0.53788c1.29091,0.48409 1.3447,0.37652 1.72121,-1.93637c0.4303,-3.01211 -0.16136,-3.71137 -3.1197,-3.71137c-2.09773,0 -2.25909,-0.10758 -2.90455,-2.15152zM316.91666,175.73493c-0.75303,-0.96818 -0.80682,-0.86061 -0.69924,1.3447c0.16136,2.6894 1.50606,3.81893 1.50606,1.29091c0,-0.86061 -0.37652,-2.04394 -0.80682,-2.63561zM314.38863,179.28493l-0.16136,-1.3447l-0.37652,1.3447c-0.21515,0.75303 -0.37652,2.31288 -0.37652,3.4962l0.05379,2.15152l0.48409,-2.15152c0.32273,-1.18333 0.4303,-2.74317 0.37652,-3.4962zM317.6159,184.87888c-0.16136,-0.96818 -0.21515,-0.96818 -0.59167,-0.05379c-0.59167,1.55985 -0.48409,2.31288 0.21515,1.61364c0.32273,-0.32273 0.48409,-1.02197 0.37652,-1.55985zM153.93944,185.20161c-1.3447,0 -1.3447,0.05379 -1.02197,3.06591c0.32273,2.79697 1.45227,6.07802 2.09773,6.07802c0.16136,0 0.26894,-2.04394 0.26894,-4.57196c0,-4.51819 0,-4.57196 -1.3447,-4.57196zM180.56443,188.37508c0,0.32273 0.21515,0.69924 0.53788,0.86061c0.32273,0.16136 0.37652,-0.05379 0.21515,-0.48409c-0.37652,-0.96818 -0.75303,-1.12955 -0.75303,-0.37652zM312.34469,187.89099c-0.26894,0 -0.37652,0.37652 -0.21515,0.80682c0.21515,0.4303 0.4303,0.80682 0.53788,0.80682c0.10758,0 0.21515,-0.37652 0.21515,-0.80682c0,-0.4303 -0.21515,-0.80682 -0.53788,-0.80682zM315.89468,192.3016c-0.21515,1.55985 -0.53788,3.44243 -0.69924,4.14167l-0.32273,1.29091l2.90455,-1.55985c3.60379,-1.93637 4.14167,-3.76514 1.66743,-5.54016c-2.52803,-1.775 -3.17349,-1.50606 -3.54999,1.66743zM183.20004,193.80765c-0.21515,0 -0.32273,0.37652 -0.16136,0.80682c0.21515,0.4303 0.53788,0.80682 0.80682,0.80682c0.21515,0 0.32273,-0.37652 0.16136,-0.80682c-0.21515,-0.4303 -0.53788,-0.80682 -0.80682,-0.80682zM177.9826,194.88341c-1.50606,0.64546 -1.3447,1.45227 0.48409,2.79697c1.61364,1.18333 6.6159,1.99015 5.32499,0.86061c-0.4303,-0.37652 -1.18333,-1.45227 -1.61364,-2.31288c-0.91439,-1.72121 -2.20529,-2.15152 -4.19546,-1.3447zM308.25682,194.39933c-0.59167,0 -0.75303,0.16136 -0.32273,0.32273c0.37652,0.16136 0.86061,0.10758 1.02197,-0.05379c0.21515,-0.16136 -0.10758,-0.32273 -0.69924,-0.26894zM162.38412,198.11069c-2.63561,1.07576 -1.93637,3.54999 1.45227,5.10984c1.23712,0.53788 2.36667,0.86061 2.47423,0.69924c0.53788,-0.53788 -0.37652,-4.78711 -1.18333,-5.59393c-0.86061,-0.86061 -1.02197,-0.86061 -2.74317,-0.21515zM190.08487,199.61675c0.21515,0.53788 0.4303,0.53788 0.96818,0.10758c0.4303,-0.32273 0.59167,-0.96818 0.4303,-1.39849c-0.59167,-1.50606 -1.93637,-0.26894 -1.39849,1.29091zM180.45684,201.01523l-2.42046,-2.47423l-0.26894,1.72121c-0.26894,1.61364 -0.10758,1.775 2.15152,2.74317c1.3447,0.59167 2.52803,0.91439 2.6894,0.75303c0.21515,-0.16136 -0.80682,-1.39849 -2.15152,-2.74317zM291.20607,200.47735c-0.4303,-0.4303 -1.55985,1.3447 -1.3447,2.04394c0.16136,0.4303 0.48409,0.21515 0.91439,-0.53788c0.37652,-0.69924 0.59167,-1.39849 0.4303,-1.50606zM292.98106,202.25236c-1.72121,1.93637 -3.92652,6.07802 -3.44243,6.56213c0.10758,0.10758 0.64546,-0.16136 1.18333,-0.64546c1.3447,-1.23712 1.66743,-1.12955 2.25909,0.4303c0.59167,1.61364 1.29091,1.66743 2.6894,0.26894c1.39849,-1.39849 1.3447,-3.44243 0,-5.37878c-0.59167,-0.86061 -0.91439,-1.88258 -0.75303,-2.36667c0.53788,-1.3447 -0.05379,-1.02197 -1.93637,1.12955zM157.9735,201.55311c0,1.50606 0.64546,2.47423 1.72121,2.47423c1.02197,0 1.02197,-0.05379 0.05379,-1.61364c-1.02197,-1.72121 -1.775,-2.09773 -1.775,-0.86061zM169.37655,201.71448c-1.66743,0.21515 -1.775,0.32273 -1.45227,1.93637c1.23712,6.45454 6.6159,18.44924 8.65984,19.47121c0.64546,0.32273 1.82879,1.3447 2.63561,2.31288c0.80682,0.96818 1.66743,1.72121 1.99015,1.72121c0.32273,0 -0.37652,-1.02197 -1.50606,-2.31288c-4.57196,-4.89469 -5.27122,-6.1856 -6.93863,-12.74773c-0.26894,-1.23712 -0.26894,-1.23712 0.37652,-0.32273c1.82879,2.6894 3.33485,4.14167 5.64772,5.37878c1.3447,0.80682 2.52803,1.3447 2.58182,1.29091c0.10758,-0.10758 0.32273,-0.69924 0.48409,-1.3447c0.26894,-0.91439 -0.05379,-1.45227 -1.45227,-2.52803c-1.07576,-0.86061 -2.20529,-1.29091 -2.6894,-1.07576c-0.91439,0.32273 -4.14167,-1.61364 -4.14167,-2.52803c0,-0.37652 0.69924,-0.4303 1.775,-0.21515c1.66743,0.37652 1.66743,0.32273 -1.61364,-3.06591c-1.88258,-1.88258 -3.38864,-3.60379 -3.38864,-3.81893c0,-0.21515 0.69924,-0.05379 1.61364,0.4303c1.88258,0.96818 3.22728,1.02197 3.22728,0.10758c0,-0.32273 0.64546,0.10758 1.3447,1.07576c0.86061,1.07576 2.47423,2.15152 4.4644,2.85076c1.66743,0.64546 4.08787,1.66743 5.32499,2.25909c1.29091,0.64546 2.63561,0.96818 3.17349,0.75303c0.80682,-0.32273 0.59167,-0.69924 -1.29091,-2.63561c-2.63561,-2.6894 -2.79697,-3.22728 -0.75303,-2.74317c1.39849,0.32273 1.3447,0.21515 -0.96818,-2.15152c-1.3447,-1.39849 -2.47423,-2.31288 -2.58182,-2.04394c-0.05379,0.21515 0.37652,1.82879 0.96818,3.60379c0.59167,1.72121 0.96818,3.22728 0.91439,3.33485c-0.10758,0.10758 -1.39849,-0.86061 -2.79697,-2.09773c-1.61364,-1.45227 -2.6894,-2.04394 -2.85076,-1.61364c-0.32273,1.02197 -0.96818,0.80682 -3.60379,-1.50606c-2.52803,-2.15152 -2.95834,-2.25909 -7.15378,-1.775zM189.97731,203.48948c-1.07576,-0.91439 -1.12955,0.48409 0,1.93637c0.75303,1.02197 0.75303,1.02197 0.80682,-0.10758c0,-0.64546 -0.37652,-1.45227 -0.80682,-1.82879zM179.59624,210.26675c-2.47423,-2.25909 -2.85076,-2.09773 -1.23712,0.53788c0.69924,1.18333 1.82879,1.99015 3.54999,2.58182c3.54999,1.18333 4.62575,0.32273 2.31288,-1.82879c-1.45227,-1.29091 -1.93637,-1.3447 -2.15152,-0.16136c-0.16136,0.75303 -0.59167,0.53788 -2.47423,-1.12955zM192.82806,209.94402c-1.55985,-1.18333 -1.99015,-0.86061 -0.80682,0.64546c0.91439,1.18333 5.75531,3.87273 5.75531,3.22728c0,-0.32273 -0.80682,-1.02197 -1.72121,-1.61364c-0.96818,-0.64546 -2.42046,-1.61364 -3.22728,-2.25909zM199.33638,211.55766c-0.26894,0 -0.48409,0.21515 -0.48409,0.53788c0,0.26894 0.37652,0.53788 0.86061,0.53788c0.4303,0 0.64546,-0.26894 0.48409,-0.53788c-0.16136,-0.32273 -0.53788,-0.53788 -0.86061,-0.53788zM283.78334,212.6334c-0.69924,0.53788 -1.02197,1.02197 -0.69924,1.07576c0.32273,0 1.02197,-0.48409 1.55985,-1.07576c1.23712,-1.39849 0.75303,-1.39849 -0.86061,0zM202.07958,214.78492c0,0.26894 1.12955,0.48409 2.58182,0.48409c2.25909,-0.05379 2.36667,-0.10758 0.91439,-0.48409c-2.36667,-0.59167 -3.4962,-0.59167 -3.4962,0zM194.872,214.78492c-0.32273,0 -0.16136,0.37652 0.37652,0.80682c0.53788,0.37652 1.3447,1.18333 1.82879,1.72121c0.4303,0.53788 0.59167,0.59167 0.37652,0.16136c-0.21515,-0.4303 -0.75303,-1.23712 -1.18333,-1.775c-0.4303,-0.48409 -1.07576,-0.91439 -1.39849,-0.91439zM184.22201,216.23719c-1.12955,1.29091 -2.58182,4.8409 -2.58182,6.40075c0,1.50606 1.07576,3.98031 1.72121,3.98031c0.26894,0 0.32273,-0.59167 0.10758,-1.3447c-0.48409,-1.93637 0.10758,-1.66743 1.18333,0.59167c0.53788,1.12955 4.24925,5.00228 8.76742,9.19772c7.74545,7.20757 10.11212,9.14394 10.54242,8.71363c0.48409,-0.48409 -8.49848,-9.14394 -11.56439,-11.13409l-3.22728,-2.09773l2.85076,-2.31288c2.04394,-1.66743 2.42046,-2.20529 1.45227,-1.93637c-3.71137,1.12955 -4.24925,1.02197 -6.1856,-0.91439c-1.61364,-1.61364 -1.88258,-2.25909 -1.88258,-4.41061c0,-2.04394 -0.16136,-2.47423 -0.80682,-2.20529c-1.12955,0.4303 -1.02197,-0.37652 0.32273,-2.04394c1.23712,-1.55985 0.59167,-1.93637 -0.69924,-0.48409zM188.20229,217.74326c-0.96818,0.80682 -1.72121,1.93637 -1.72121,2.63561c0,1.72121 2.79697,4.24925 4.35681,3.92652c1.18333,-0.21515 1.18333,-0.21515 0.16136,-0.32273c-1.18333,-0.05379 -2.74317,-1.45227 -2.25909,-1.99015c0.16136,-0.16136 1.23712,0.10758 2.31288,0.53788c2.47423,1.07576 2.25909,1.07576 2.95834,-0.21515c0.48409,-0.86061 0.32273,-1.18333 -1.02197,-1.88258c-0.91439,-0.4303 -2.25909,-0.80682 -3.06591,-0.80682c-1.775,0 -1.45227,-0.4303 0.80682,-1.07576c1.39849,-0.37652 1.88258,-0.26894 2.95834,0.69924c1.18333,1.07576 1.66743,2.31288 3.60379,9.52045c0.16136,0.53788 -0.53788,1.02197 -2.20529,1.55985c-2.90455,0.96818 -1.72121,1.39849 2.04394,0.69924c2.36667,-0.4303 2.90455,-0.32273 5.16363,1.02197c3.22728,1.82879 4.08787,2.63561 2.85076,2.63561c-1.29091,0 -1.12955,0.48409 0.53788,2.25909c2.31288,2.36667 0.75303,1.775 -3.4962,-1.45227c-2.58182,-1.93637 -4.4644,-2.95834 -5.37878,-2.95834c-1.3447,0.05379 -1.23712,0.21515 1.82879,3.1197c4.19546,3.92652 6.88484,5.43257 8.33712,4.51819c0.53788,-0.37652 1.45227,-0.64546 1.93637,-0.64546c0.64546,0 0.4303,0.32273 -0.69924,1.02197c-1.72121,1.07576 -3.65758,4.08787 -3.1197,4.94849c0.4303,0.75303 2.36667,0.53788 2.6894,-0.26894c0.16136,-0.4303 1.02197,-1.07576 1.93637,-1.45227c1.39849,-0.59167 1.55985,-0.86061 1.39849,-2.47423c-0.26894,-2.09773 0.86061,-2.42046 2.79697,-0.69924c1.61364,1.39849 2.52803,1.3447 3.28105,-0.16136c0.32273,-0.64546 1.07576,-1.66743 1.61364,-2.25909c0.96818,-1.12955 1.93637,-4.03408 1.29091,-4.03408c-0.16136,0 -0.80682,0.26894 -1.39849,0.59167c-1.45227,0.75303 -3.17349,0.10758 -3.17349,-1.18333c0,-0.53788 -0.26894,-1.02197 -0.53788,-1.02197c-0.32273,0 -0.80682,-0.59167 -1.07576,-1.3447c-0.53788,-1.3447 -1.93637,-2.31288 -2.52803,-1.72121c-0.16136,0.21515 0,1.45227 0.37652,2.74317c0.59167,2.20529 0.53788,2.58182 -0.53788,4.30302c-1.29091,2.15152 -1.72121,2.31288 -2.90455,1.07576c-1.12955,-1.07576 -1.07576,-1.3447 0.10758,-0.96818c1.07576,0.37652 -2.52803,-3.06591 -5.75531,-5.43257c-3.01211,-2.25909 -5.32499,-5.59393 -5.97045,-8.76742c-0.37652,-1.66743 -1.12955,-3.17349 -2.04394,-4.03408c-2.25909,-2.20529 -4.41061,-2.36667 -6.45454,-0.64546zM284.85908,216.93644c-3.22728,0.91439 -5.00228,2.6894 -2.63561,2.6894c0.59167,0 1.07576,0.32273 1.07576,0.75303c0,0.53788 -0.86061,0.91439 -2.42046,1.18333c-2.74317,0.37652 -2.74317,1.07576 0.05379,1.61364c1.66743,0.32273 2.15152,0.10758 3.76514,-1.39849c1.39849,-1.39849 1.66743,-1.99015 1.23712,-2.52803c-0.48409,-0.48409 -0.4303,-0.91439 0.05379,-1.50606c0.91439,-1.07576 0.59167,-1.29091 -1.12955,-0.80682zM176.10003,218.60386c1.12955,1.99015 3.17349,3.71137 4.35681,3.71137c0.53788,0 -0.10758,-1.02197 -1.775,-2.6894c-3.01211,-3.06591 -3.98031,-3.44243 -2.58182,-1.02197zM207.67351,218.55007c-1.775,0 -1.88258,0.10758 -1.23712,0.91439c0.37652,0.53788 0.75303,1.02197 0.80682,1.12955c0.21515,0.37652 2.36667,-1.02197 2.36667,-1.50606c0,-0.32273 -0.86061,-0.53788 -1.93637,-0.53788zM198.31441,221.18568c0,2.42046 0.80682,3.33485 1.3447,1.61364c0.21515,-0.59167 1.12955,-1.45227 2.04394,-1.82879l1.66743,-0.69924l-2.09773,-0.59167c-3.01211,-0.80682 -2.95834,-0.80682 -2.95834,1.50606zM214.98867,221.88493c0,0.69924 -0.4303,0.96818 -1.50606,0.96818c-0.80682,0 -1.72121,-0.21515 -1.99015,-0.48409c-0.32273,-0.26894 -1.3447,-0.59167 -2.36667,-0.69924c-1.45227,-0.10758 -1.88258,0.05379 -2.25909,1.02197c-0.37652,1.02197 -0.26894,1.23712 0.53788,1.23712c0.59167,0 1.55985,0.64546 2.15152,1.45227c0.64546,0.86061 1.07576,1.12955 1.02197,0.75303c-0.10758,-0.53788 0.59167,-0.96818 2.25909,-1.29091c4.73334,-0.91439 6.72348,-1.50606 8.06818,-2.52803l1.29091,-0.96818l-1.50606,-0.69924c-1.18333,-0.59167 -1.66743,-0.53788 -2.63561,0c-0.80682,0.53788 -1.18333,0.59167 -1.3447,0.10758c-0.4303,-1.29091 -1.72121,-0.4303 -1.72121,1.12955zM274.04772,221.5622c-1.55985,0.80682 -1.99015,1.82879 -0.80682,1.82879c0.69924,-0.05379 3.06591,-1.82879 3.06591,-2.36667c0,-0.48409 -0.69924,-0.32273 -2.25909,0.53788zM200.95003,222.85311c-0.32273,0 -0.37652,0.21515 -0.21515,0.53788c0.16136,0.26894 0.59167,0.53788 0.86061,0.53788c0.32273,0 0.37652,-0.26894 0.21515,-0.53788c-0.16136,-0.32273 -0.59167,-0.53788 -0.86061,-0.53788zM205.79093,224.6281c-0.10758,-0.26894 -0.64546,-0.37652 -1.18333,-0.26894c-0.48409,0.10758 -0.75303,0.4303 -0.59167,0.69924c0.16136,0.32273 -0.10758,0.86061 -0.59167,1.23712c-0.91439,0.64546 -0.91439,0.69924 0,1.02197c0.64546,0.26894 0.80682,0.75303 0.59167,1.72121c-0.37652,1.55985 0.05379,1.775 1.02197,0.48409c0.48409,-0.75303 0.86061,-0.75303 1.775,-0.26894c1.55985,0.80682 1.50606,-0.10758 0,-1.18333l-1.23712,-0.86061h1.50606c1.775,-0.05379 1.88258,-0.96818 0.16136,-1.66743c-0.69924,-0.26894 -1.3447,-0.69924 -1.45227,-0.91439zM200.41214,226.08037l-1.66743,-1.88258l1.02197,1.775c1.02197,1.88258 2.31288,3.28105 2.31288,2.47423c0,-0.26894 -0.75303,-1.3447 -1.66743,-2.36667zM273.50985,225.38113c-1.07576,0.26894 -1.23712,0.96818 -0.4303,1.50606c0.37652,0.26894 0.4303,0.59167 0.05379,1.02197c-0.26894,0.32273 -0.32273,0.91439 -0.10758,1.29091c0.32273,0.48409 1.07576,0.4303 3.38864,-0.37652c4.08787,-1.39849 6.45454,-2.6894 6.07802,-3.28105c-0.32273,-0.53788 -7.20757,-0.64546 -8.98257,-0.16136zM262.2144,229.36144c-0.86061,-0.05379 -1.50606,0.16136 -1.50606,0.48409c0,0.64546 0.4303,0.64546 1.88258,0c0.96818,-0.4303 0.91439,-0.48409 -0.37652,-0.48409zM255.49092,231.67432c0.37652,0.80682 0.91439,1.12955 1.55985,0.96818c1.23712,-0.32273 1.23712,-1.02197 -0.05379,-1.72121c-1.72121,-0.86061 -2.15152,-0.64546 -1.50606,0.75303zM207.7273,231.56674c-1.55985,-0.64546 -1.55985,-0.59167 0.48409,1.23712c1.18333,1.02197 2.31288,1.88258 2.58182,1.88258c0.75303,0 0.48409,-0.86061 -0.48409,-1.72121c-0.53788,-0.4303 -1.66743,-1.07576 -2.58182,-1.39849zM234.08336,233.12658c-1.23712,-0.05379 -1.39849,0.10758 -0.80682,0.48409c0.4303,0.26894 1.66743,0.48409 2.6894,0.48409c1.55985,0 1.66743,-0.10758 0.80682,-0.48409c-0.59167,-0.26894 -1.775,-0.48409 -2.6894,-0.48409zM189.60079,233.61067c-0.53788,0 -0.16136,0.86061 1.02197,2.25909c0.4303,0.48409 0.69924,1.23712 0.59167,1.66743c-0.16136,0.86061 3.1197,5.75531 3.87273,5.75531c0.26894,0 0.86061,0.16136 1.39849,0.37652c0.75303,0.26894 0.86061,0.10758 0.59167,-0.86061l-0.26894,-1.18333l1.93637,1.12955c1.39849,0.75303 0.48409,-0.37652 -3.28105,-4.03408c-2.95834,-2.79697 -5.54016,-5.10984 -5.86287,-5.10984zM206.11366,247.97204c-2.52803,-0.37652 -1.39849,0.37652 1.3447,0.91439c1.07576,0.21515 1.61364,0.16136 1.3447,-0.16136c-0.32273,-0.21515 -1.50606,-0.59167 -2.6894,-0.75303zM205.73716,256.95461c-1.72121,-0.53788 -0.96818,0.53788 1.88258,2.58182c3.22728,2.36667 4.30302,2.52803 5.43257,0.86061c1.18333,-1.66743 1.12955,-1.88258 -0.80682,-2.90455c-1.29091,-0.64546 -1.775,-0.69924 -2.09773,-0.21515c-0.26894,0.4303 -0.96818,0.53788 -1.93637,0.32273c-0.86061,-0.21515 -1.99015,-0.48409 -2.47423,-0.64546zM218.7538,261.84931c0,0.59167 0.59167,0.80682 2.15152,0.80682c1.18333,0 3.06591,0.37652 4.19546,0.86061c1.07576,0.4303 4.14167,1.39849 6.72348,2.04394c4.51819,1.18333 4.73334,1.23712 5.21743,0.26894c1.12955,-2.04394 0.69924,-2.47423 -3.60379,-3.1197c-2.31288,-0.37652 -5.37878,-0.91439 -6.77727,-1.18333c-4.14167,-0.80682 -7.90681,-0.64546 -7.90681,0.32273z" fill="#49d398" stroke="none" stroke-width="1" stroke-linecap="butt"/><path d="M180.58646,173.85237c0.59167,0.59167 -0.10758,2.20529 -1.02197,2.20529c-0.91439,0 -0.91439,-0.26894 -0.10758,-1.61364c0.37652,-0.59167 0.86061,-0.86061 1.12955,-0.59167z" fill="#49d398" stroke="none" stroke-width="1" stroke-linecap="butt"/><path d="M177.35919,173.90614c0.91439,0 0.96818,0.10758 0.32273,0.86061c-0.37652,0.48409 -0.96818,1.39849 -1.29091,1.99015c-0.32273,0.64546 -1.02197,1.23712 -1.61364,1.3447c-0.86061,0.16136 -0.96818,0.05379 -0.37652,-0.48409c0.32273,-0.37652 0.64546,-1.07576 0.64546,-1.55985c0,-0.48409 0.26894,-1.12955 0.64546,-1.50606c0.37652,-0.37652 1.12955,-0.64546 1.66743,-0.64546z" fill="#49d398" stroke="none" stroke-width="1" stroke-linecap="butt"/><path d="M173.97056,187.08417c0,0.4303 -0.37652,0.80682 -0.80682,0.80682c-0.48409,0 -0.80682,0.48409 -0.80682,1.3447c0,0.75303 -0.21515,1.3447 -0.53788,1.3447c-0.86061,0 -1.23712,-2.63561 -0.53788,-3.4962c0.86061,-1.02197 2.6894,-1.02197 2.6894,0z" fill="#49d398" stroke="none" stroke-width="1" stroke-linecap="butt"/><path d="M183.11448,220.97053c0.32273,0.16136 0.53788,0.53788 0.53788,0.86061c0,0.26894 -0.21515,0.48409 -0.53788,0.48409c-0.26894,0 -0.53788,-0.37652 -0.53788,-0.86061c0,-0.4303 0.26894,-0.64546 0.53788,-0.48409z" fill="#49d398" stroke="none" stroke-width="1" stroke-linecap="butt"/><path d="M190.69857,220.27129c0.37652,0.10758 0.80682,0.53788 0.91439,0.91439c0.16136,0.4303 -0.05379,0.64546 -0.48409,0.48409c-0.37652,-0.10758 -0.80682,-0.53788 -0.91439,-0.91439c-0.16136,-0.4303 0.05379,-0.64546 0.48409,-0.48409z" fill="#49d398" stroke="none" stroke-width="1" stroke-linecap="butt"/><path d="M297.62883,166.69857c0.16136,0.86061 0.05379,0.91439 -0.69924,0.26894c-0.48409,-0.37652 -0.86061,-0.96818 -0.86061,-1.23712c0,-0.91439 1.3447,-0.10758 1.55985,0.96818z" fill="#49d398" stroke="none" stroke-width="1" stroke-linecap="butt"/><path d="M327.75005,166.69857c0.4303,0.4303 1.07576,15.65226 0.80682,18.34166l-0.32273,2.85076h-2.90455c-1.61364,0 -2.90455,-0.26894 -2.90455,-0.53788c0,-0.32273 0.59167,-0.53788 1.29091,-0.53788c0.75303,0 1.99015,-0.53788 2.74317,-1.23712c1.23712,-1.02197 1.3447,-1.3447 0.86061,-2.6894c-0.32273,-0.86061 -0.59167,-2.25909 -0.59167,-3.1197c0,-0.91439 -0.26894,-2.15152 -0.64546,-2.79697c-0.32273,-0.64546 -0.75303,-3.1197 -0.91439,-5.48637c-0.26894,-3.92652 -0.4303,-4.30302 -1.50606,-4.4644c-0.69924,-0.10758 -1.23712,-0.4303 -1.23712,-0.69924c0,-0.48409 4.73334,-0.16136 5.32499,0.37652z" fill="#49d398" stroke="none" stroke-width="1" stroke-linecap="butt"/><path d="M300.64096,179.82281c0.4303,0.69924 -0.21515,2.6894 -0.86061,2.6894c-0.59167,0 -1.55985,-2.20529 -1.18333,-2.85076c0.32273,-0.53788 1.66743,-0.48409 2.04394,0.16136z" fill="#49d398" stroke="none" stroke-width="1" stroke-linecap="butt"/><path d="M304.83642,184.87888c0.16136,0.4303 -0.05379,1.18333 -0.4303,1.775c-0.69924,0.91439 -0.75303,0.86061 -0.80682,-0.80682c0,-1.775 0.69924,-2.31288 1.23712,-0.96818z" fill="#49d398" stroke="none" stroke-width="1" stroke-linecap="butt"/><path d="M299.18869,186.81523c0.16136,0.37652 -0.05379,0.91439 -0.37652,1.23712c-0.4303,0.4303 -0.59167,0.37652 -0.59167,-0.21515c0,-0.48409 0.16136,-1.02197 0.37652,-1.23712c0.21515,-0.21515 0.48409,-0.10758 0.59167,0.21515z" fill="#49d398" stroke="none" stroke-width="1" stroke-linecap="butt"/><path d="M303.49172,208.00765c0.10758,0.53788 -0.05379,1.23712 -0.37652,1.55985c-0.91439,0.91439 -1.29091,0.05379 -0.53788,-1.3447c0.64546,-1.12955 0.75303,-1.12955 0.91439,-0.21515z" fill="#49d398" stroke="none" stroke-width="1" stroke-linecap="butt"/><path d="M162.35237,212.04175c-0.21515,1.07576 0.21515,2.95834 1.3447,5.97045c0.96818,2.42046 1.61364,4.57196 1.45227,4.73334c-0.32273,0.26894 -2.15152,-3.4962 -4.03408,-8.33712c-1.02197,-2.63561 -1.02197,-2.85076 -0.16136,-3.33485c1.45227,-0.86061 1.72121,-0.69924 1.39849,0.96818z" fill="#49d398" stroke="none" stroke-width="1" stroke-linecap="butt"/><path d="M289.34551,228.23189c0.37652,0.59167 -2.25909,1.99015 -2.74317,1.45227c-0.21515,-0.16136 -0.21515,-0.69924 -0.05379,-1.18333c0.37652,-0.91439 2.25909,-1.12955 2.79697,-0.26894z" fill="#49d398" stroke="none" stroke-width="1" stroke-linecap="butt"/><path d="M176.65994,237.4834c1.72121,1.82879 1.23712,2.42046 -0.53788,0.69924c-0.86061,-0.86061 -1.61364,-1.61364 -1.61364,-1.72121c0,-0.53788 1.18333,0 2.15152,1.02197z" fill="#49d398" stroke="none" stroke-width="1" stroke-linecap="butt"/><path d="M-13.01425,180c0,-139.73592 113.27834,-253.01426 253.01426,-253.01426c139.73592,0 253.01426,113.27834 253.01426,253.01426c0,139.73592 -113.27834,253.01426 -253.01426,253.01426c-139.73592,0 -253.01426,-113.27834 -253.01426,-253.01426z" fill="url(#color-1)" stroke="none" stroke-width="2.5" stroke-linecap="butt"/><text transform="translate(166.31985,228.15698) scale(4.01308,4.01308)" font-size="40" xml:space="preserve" fill="url(#color-2)" fill-rule="nonzero" stroke="none" stroke-width="1" stroke-linecap="butt" stroke-linejoin="miter" stroke-miterlimit="10" stroke-dasharray="" stroke-dashoffset="0" font-family="Sans Serif" font-weight="normal" text-anchor="start" style="mix-blend-mode: normal"><tspan x="0" dy="0">M</tspan></text><path d="M230.93104,227.73961l44.22358,-113.50719" fill="none" stroke="#000000" stroke-width="5" stroke-linecap="round"/><path d="M251.84368,122.8377l63.58179,94.86467" data-paper-data="{&quot;origRot&quot;:0}" fill="#4d0000" stroke="#393939" stroke-width="21" stroke-linecap="round"/><text transform="translate(133.50004,273.99724) scale(1.10833,1.10833)" font-size="40" xml:space="preserve" fill="#ffffff" fill-rule="nonzero" stroke="none" stroke-width="1" stroke-linecap="butt" stroke-linejoin="miter" stroke-miterlimit="10" stroke-dasharray="" stroke-dashoffset="0" font-family="&quot;Microsoft YaHei&quot;, &quot;&quot;, STXihei, &quot;&quot;" font-weight="normal" text-anchor="start" style="mix-blend-mode: normal"><tspan x="0" dy="0">MAX</tspan></text><text transform="translate(175.50002,-37.2031) scale(0.5,0.5)" font-size="40" xml:space="preserve" fill="#ffffff" fill-rule="nonzero" stroke="none" stroke-width="1" stroke-linecap="butt" stroke-linejoin="miter" stroke-miterlimit="10" stroke-dasharray="" stroke-dashoffset="0" font-family="Sans Serif" font-weight="normal" text-anchor="start" style="mix-blend-mode: normal"><tspan x="0" dy="0"> </tspan></text><text transform="translate(184.50002,156.89735) scale(1.12271,1.12271)" font-size="40" xml:space="preserve" fill="#ffffff" fill-rule="nonzero" stroke="none" stroke-width="1" stroke-linecap="butt" stroke-linejoin="miter" stroke-miterlimit="10" stroke-dasharray="" stroke-dashoffset="0" font-family="Curly" font-weight="normal" text-anchor="start" style="mix-blend-mode: normal"><tspan x="0" dy="0">Magic</tspan></text><text transform="translate(184.68067,189.26879) scale(0.80336,0.80336)" font-size="40" xml:space="preserve" fill="#ffffff" fill-rule="nonzero" stroke="none" stroke-width="1" stroke-linecap="butt" stroke-linejoin="miter" stroke-miterlimit="10" stroke-dasharray="" stroke-dashoffset="0" font-family="Curly" font-weight="normal" text-anchor="start" style="mix-blend-mode: normal"><tspan x="0" dy="0">Altruism</tspan></text><text transform="translate(185.50002,223.34392) scale(0.93337,0.93337)" font-size="40" xml:space="preserve" fill="#ffffff" fill-rule="nonzero" stroke="none" stroke-width="1" stroke-linecap="butt" stroke-linejoin="miter" stroke-miterlimit="10" stroke-dasharray="" stroke-dashoffset="0" font-family="Curly" font-weight="normal" text-anchor="start" style="mix-blend-mode: normal"><tspan x="0" dy="0">Xanadu</tspan></text><text transform="translate(104.50001,304.34391) scale(0.5,0.5)" font-size="40" xml:space="preserve" fill="#ffffff" fill-rule="nonzero" stroke="none" stroke-width="1" stroke-linecap="butt" stroke-linejoin="miter" stroke-miterlimit="10" stroke-dasharray="" stroke-dashoffset="0" font-family="&quot;Microsoft YaHei&quot;, &quot;&quot;, STXihei, &quot;&quot;" font-weight="normal" text-anchor="start" style="mix-blend-mode: normal"><tspan x="0" dy="0">Magic Altruism Xanadu Studio</tspan></text></g></g></svg>