<svg version="1.1" xmlns="http://www.w3.org/2000/svg" xmlns:xlink="http://www.w3.org/1999/xlink" width="346.86572" height="248.95395" viewBox="0,0,346.86572,248.95395"><defs><radialGradient cx="255.42112" cy="177.06171" r="173.43286" gradientUnits="userSpaceOnUse" id="color-1"><stop offset="0" stop-color="#ff0000"/><stop offset="1" stop-color="#000000"/></radialGradient><linearGradient x1="261.72902" y1="117.84029" x2="261.72902" y2="247.47264" gradientUnits="userSpaceOnUse" id="color-2"><stop offset="0" stop-color="#ffffff"/><stop offset="1" stop-color="#535353"/></linearGradient></defs><g transform="translate(-81.98826,-52.58473)"><g data-paper-data="{&quot;isPaintingLayer&quot;:true}" fill-rule="nonzero" stroke-linecap="butt" stroke-linejoin="miter" stroke-miterlimit="10" stroke-dasharray="" stroke-dashoffset="0" style="mix-blend-mode: normal"><path d="M81.98827,301.53868v-248.95395h346.86572v248.95395z" fill="url(#color-1)" stroke="none" stroke-width="0"/><path d="M205.67096,200.22663c0,0 -27.77322,-28.95093 -27.12211,-29.79053c1.4983,-1.9319 -10.62884,14.97305 -13.64106,14.79296c-4.87145,-0.29132 -1.72937,-25.87203 -1.72937,-25.87203c0,0 -2.68373,-4.26528 8.79193,-14.24894c1.28283,-1.11601 62.34213,-0.64766 75.67728,-0.70287c1.5465,-0.00638 7.95174,-0.00919 7.95174,-0.00919c0,0 -9.54769,22.4669 -8.98386,21.90923c0.12908,-0.12775 -4.04899,0.58321 -5.70238,0.55402c-5.76326,-0.10193 -16.16931,-0.36724 -16.51214,0.99903c-0.90865,3.6215 -2.92603,9.78324 -1.70452,8.58169c2.18848,-2.15272 11.93564,19.57968 14.17239,18.77775c3.47271,-1.24504 9.70547,-21.89591 11.80172,-30.99726c1.48771,-6.45924 -1.26971,-1.7953 1.08707,-3.96682c4.03586,-3.71865 9.05768,-22.68057 11.30545,-24.68801c4.85971,-4.34018 3.00163,-5.33329 4.74925,-6.77409c5.16545,-4.25865 5.07352,-0.17536 11.41924,-0.77649c8.49257,-0.80454 55.53911,0.75731 55.53911,0.75731l28.50592,-10.93208l-25.73633,40.81232c0,0 -50.85195,-1.67353 -52.17966,-0.70561c-1.58353,1.15438 -1.18001,9.27174 -1.6824,12.34955c-0.10639,0.65155 41.40949,0.24982 41.40949,0.24982l-10.69533,25.59946l-37.36554,1.76916l-19.18905,49.55776l-50.1668,-47.246z" fill="url(#color-2)" stroke="#000000" stroke-width="5"/></g></g></svg>