<svg version="1.1" xmlns="http://www.w3.org/2000/svg" xmlns:xlink="http://www.w3.org/1999/xlink" width="457.62402" height="95.80789" viewBox="0,0,457.62402,95.80789"><defs><linearGradient x1="404.11902" y1="78.17432" x2="531.64173" y2="88.48378" gradientTransform="translate(-215.6502,-35.90793) rotate(-4.62197) scale(0.52713,0.52713)" gradientUnits="userSpaceOnUse" id="color-1"><stop offset="0" stop-color="#ffd600"/><stop offset="1" stop-color="#ff3838"/></linearGradient></defs><g transform="translate(-11.43799,-23.90071)"><g data-paper-data="{&quot;isPaintingLayer&quot;:true}" fill-rule="nonzero" stroke-linecap="butt" stroke-linejoin="miter" stroke-miterlimit="10" stroke-dasharray="" stroke-dashoffset="0" style="mix-blend-mode: normal"><g stroke="#484848"><path d="M11.68799,107.13713v-59.27426h457.12402v59.27426z" fill-opacity="0.30588" fill="#000000" stroke-width="0"/><path d="M11.68799,107.13713v-59.27426h457.12402v59.27426z" fill="none" stroke-width="0.5"/></g><g stroke="none" stroke-width="0.25"><path d="M27.96028,90.60109c0,-5.67709 0,-23.24481 0,-26.29851c0,-0.88587 0.66281,-1.65102 1.41515,-1.65102c2.40685,0 15.38578,0 20.16616,0c1.10253,0 1.76896,0.82671 1.76896,1.76895c0,3.04606 0,19.62431 0,25.7089c0,1.39688 -1.11401,2.2407 -2.2407,2.2407c-2.67274,0 -19.27368,-0.11796 -19.45857,-0.11796c-1.10119,0 -1.65102,-0.53805 -1.65102,-1.65102z" fill="#ffffff"/><path d="M40.69682,74.62333c0,-0.24109 0,-0.52557 0,-0.66779c0,-0.16942 0.21413,-0.41095 0.46231,-0.41095c0.83834,0 5.58199,0 7.29431,0c0.38474,0 0.61643,0.2204 0.61643,0.46232c0,0.19003 0,0.39333 0,0.51367c0,0.19845 -0.17066,0.51368 -0.46231,0.51368c-1.57371,0 -6.67079,0 -7.49978,0c-0.22327,0 -0.41095,-0.1867 -0.41095,-0.41095z" fill="#2c2e28"/><path d="M30.20098,82.58179c0,-2.29182 0,-6.47003 0,-7.6655c0,-0.6287 0.76324,-1.29724 1.41514,-1.29724c0.94651,0 3.64707,0 5.4248,0c0.9601,0 1.65102,0.88241 1.65102,1.65102c0,1.23087 0,4.99255 0,7.19378c0,0.98026 -0.69018,1.65102 -1.29724,1.65102c-0.97653,0 -3.97581,0 -5.7786,0c-0.83635,0 -1.41515,-0.6153 -1.41515,-1.53311z" fill="#2c2e28"/><path d="M40.69682,78.86882c0,-0.24109 0,-0.52557 0,-0.66779c0,-0.16942 0.21413,-0.41095 0.46231,-0.41095c0.83834,0 5.58199,0 7.29431,0c0.38474,0 0.61643,0.22039 0.61643,0.46231c0,0.19003 0,0.39334 0,0.51368c0,0.19845 -0.17066,0.51367 -0.46231,0.51367c-1.57371,0 -6.67079,0 -7.49978,0c-0.22327,0 -0.41095,-0.1867 -0.41095,-0.41095z" fill="#2c2e28"/><path d="M40.69682,83.23222c0,-0.24109 0,-0.52557 0,-0.66779c0,-0.16942 0.21413,-0.41095 0.46231,-0.41095c0.83834,0 5.58199,0 7.29431,0c0.38474,0 0.61643,0.22039 0.61643,0.46231c0,0.19003 0,0.39334 0,0.51368c0,0.19845 -0.17066,0.51368 -0.46231,0.51368c-1.57371,0 -6.67079,0 -7.49978,0c-0.22327,0 -0.41095,-0.18671 -0.41095,-0.41096z" fill="#2c2e28"/><path d="M30.31889,70.36156c0,-0.52746 0,-1.14968 0,-1.46078c0,-0.37056 0.46836,-0.89895 1.01128,-0.89895c1.83389,0 12.21047,0 15.95616,0c0.8416,0 1.34839,0.48203 1.34839,1.01134c0,0.41567 0,0.86039 0,1.12367c0,0.43415 -0.37327,1.12367 -1.01134,1.12367c-3.44248,0 -14.59214,0 -16.4056,0c-0.48838,0 -0.89895,-0.40846 -0.89895,-0.89895z" fill="#2c2e28"/></g><text transform="translate(402.28397,100.86437) rotate(4.62197) scale(1.89707,1.89707)" font-size="40" xml:space="preserve" data-paper-data="{&quot;origRot&quot;:4.5122324547415635}" fill="url(#color-1)" fill-rule="nonzero" stroke="none" stroke-width="1" stroke-linecap="butt" stroke-linejoin="miter" stroke-miterlimit="10" stroke-dasharray="" stroke-dashoffset="0" font-family="Marker" font-weight="normal" text-anchor="start" style="mix-blend-mode: normal"><tspan x="0" dy="0">A</tspan></text></g></g></svg>