<svg version="1.1" xmlns="http://www.w3.org/2000/svg" xmlns:xlink="http://www.w3.org/1999/xlink" width="309.02853" height="309.02853" viewBox="0,0,309.02853,309.02853"><defs><radialGradient cx="240" cy="180" r="154.51426" gradientUnits="userSpaceOnUse" id="color-1"><stop offset="0" stop-color="#34946a" stop-opacity="0.33725"/><stop offset="1" stop-color="#34946a" stop-opacity="0"/></radialGradient></defs><g transform="translate(-85.48574,-25.48574)"><g data-paper-data="{&quot;isPaintingLayer&quot;:true}" fill-rule="nonzero" stroke="none" stroke-linecap="butt" stroke-linejoin="miter" stroke-miterlimit="10" stroke-dasharray="" stroke-dashoffset="0" style="mix-blend-mode: normal"><path d="M247.91635,127.17089c4.59871,0.78835 6.3725,1.28107 6.3725,1.67524c0,0.13139 -0.16424,0.78835 -0.39418,1.47816c-0.39418,1.34676 -0.91974,1.70809 -0.91974,0.68981c0,-0.36133 -0.32848,-0.78835 -0.72265,-0.98544l-0.7555,-0.36133h0.7555c0.85405,-0.03285 1.01829,-0.68981 0.16424,-0.68981c-0.32848,0 -1.14968,0.19709 -1.87233,0.45987l-1.24822,0.42702l1.67524,1.08398c1.511,0.98544 2.10227,1.6424 1.44531,1.6424c-0.16424,0 -1.74094,-0.29563 -3.54758,-0.62411c-1.80664,-0.36133 -3.35049,-0.59126 -3.41618,-0.49272c-0.22994,0.22994 0.19709,0.49272 1.34676,0.78835c0.59126,0.16424 1.74094,0.52557 2.56214,0.8212c0.8212,0.29563 2.3322,0.62411 3.38334,0.72265c1.83948,0.19709 1.87233,0.16424 1.87233,-0.65696c0,-0.42702 0.49272,-1.54385 1.11683,-2.3979c0.91974,-1.34676 1.24822,-1.60955 2.10227,-1.5767c1.05113,0.0657 10.31425,4.40162 10.70842,5.02573c0.26278,0.42702 -0.7555,2.23366 -1.77379,3.1534c-0.65696,0.62411 -0.72265,0.59126 -3.94175,-0.98544c-1.80664,-0.88689 -3.38334,-1.511 -3.51473,-1.34676c-0.52557,0.49272 0.55841,1.34676 3.9746,3.12055l3.51473,1.83948l0.55841,-0.78835c0.29563,-0.42702 1.18253,-1.44531 1.90518,-2.26651c1.31392,-1.44531 1.37961,-1.47816 2.36505,-1.08398c0.55841,0.22994 1.24822,0.68981 1.5767,1.05113c0.49272,0.55841 0.52557,0.65696 0,1.44531c-0.65696,0.98544 -0.55841,0.98544 -2.16796,0.16424c-0.72265,-0.36133 -1.37961,-0.65696 -1.47816,-0.65696c-0.36133,0 -0.13139,1.24822 0.32848,1.6424c0.59126,0.49272 0.65696,1.77379 0.0657,2.23366c-0.22994,0.19709 -1.44531,0.39418 -2.69353,0.45987c-1.87233,0.0657 -2.29935,0.19709 -2.3979,0.65696c-0.09854,0.45987 0.09854,0.59126 0.85405,0.59126c0.55841,0 1.80664,0.55841 3.05486,1.34676c1.14968,0.7555 1.87233,1.11683 1.6424,0.8212c-0.39418,-0.49272 -0.32848,-0.68981 0.65696,-1.70809c0.68981,-0.68981 1.08398,-1.41246 1.01829,-1.80664c-0.13139,-0.68981 1.18253,-3.18625 2.03657,-3.87605c0.42702,-0.36133 0.78835,-0.16424 2.23366,1.28107l1.70809,1.70809l-0.88689,0.65696c-1.54385,1.14968 -1.67524,1.74094 -0.55841,2.85777c0.88689,0.85405 0.95259,1.08398 0.59126,1.6424c-0.36133,0.59126 -0.29563,0.78835 0.42702,1.54385l0.85405,0.8212l1.21537,-0.8212c0.65696,-0.42702 1.74094,-0.98544 2.43075,-1.21537c1.14968,-0.39418 1.21537,-0.36133 2.20081,0.78835c0.98544,1.14968 4.76295,7.75211 4.76295,8.34337c0,0.42702 -1.511,1.08398 -2.49644,1.08398c-0.72265,0 -0.7555,-0.0657 -0.42702,-0.68981c0.39418,-0.78835 -0.19709,-2.79207 -1.31392,-4.20453l-0.62411,-0.78835l-0.36133,0.68981c-0.29563,0.55841 -0.22994,1.01829 0.29563,2.3322c0.36133,0.91974 0.59126,1.67524 0.49272,1.67524c-0.0657,0 -0.65696,-0.8212 -1.31392,-1.80664c-0.62411,-0.98544 -1.28107,-1.80664 -1.44531,-1.80664c-0.16424,0 -0.52557,0.36133 -0.8212,0.78835c-0.49272,0.7555 -0.45987,0.91974 0.49272,2.72638c1.34676,2.59499 2.10227,3.35049 2.85777,2.79207c0.88689,-0.62411 1.97088,-1.01829 3.38334,-1.24822l1.28107,-0.22994l0.78835,1.80664c0.95259,2.13511 3.61327,10.41279 3.41618,10.60988c-0.29563,0.32848 -3.1534,0.91974 -3.61327,0.7555c-0.26278,-0.09854 -0.78835,-1.37961 -1.21537,-2.92346c-0.98544,-3.51473 -1.511,-4.56586 -2.36505,-4.56586c-0.8212,0 -0.8212,0.22994 0.49272,5.05858c0.91974,3.44903 1.28107,4.13884 2.10227,4.13884c0.39418,0 0.29563,0.16424 -0.26278,0.55841c-1.80664,1.24822 -1.83948,2.23366 -0.03285,1.93803c1.24822,-0.19709 1.28107,-0.16424 1.80664,1.11683c0.59126,1.511 0.65696,2.49644 0.19709,2.79207c-0.19709,0.13139 -0.32848,-0.19709 -0.32848,-0.72265c0,-0.52557 -0.19709,-1.24822 -0.45987,-1.60955c-0.95259,-1.28107 -1.34676,-0.09854 -1.44531,4.6644c-0.13139,4.99288 0,5.38706 1.87233,5.38706c1.74094,0.03285 3.9746,1.11683 3.9746,1.97088c0,1.93803 -2.89062,11.49677 -3.54758,11.72671c-0.49272,0.19709 -3.35049,-0.8212 -3.35049,-1.21537c0,-0.13139 0.32848,-0.49272 0.7555,-0.7555c1.18253,-0.7555 2.92346,-5.18997 2.79207,-7.0623l-0.09854,-1.54385l-0.62411,1.11683c-0.42702,0.8212 -0.65696,0.98544 -0.85405,0.65696c-0.22994,-0.32848 -0.52557,-0.36133 -1.18253,-0.13139c-0.72265,0.29563 -1.05113,0.85405 -2.13511,3.94175l-1.28107,3.61327l0.8212,0.72265c0.49272,0.42702 1.11683,0.7555 1.44531,0.7555c0.29563,0 1.11683,0.59126 1.83948,1.31392l1.28107,1.31392l-0.78835,1.37961c-1.34676,2.49644 -5.97832,9.4602 -6.27395,9.4602c-0.36133,0 -2.59499,-1.97088 -2.59499,-2.29935c0,-0.13139 0.36133,-0.32848 0.8212,-0.39418c0.68981,-0.13139 0.7555,-0.09854 0.45987,0.45987c-0.26278,0.49272 -0.16424,0.65696 0.55841,0.98544c0.78835,0.36133 0.95259,0.32848 1.6424,-0.55841c0.42702,-0.55841 1.01829,-1.74094 1.28107,-2.69353c0.65696,-2.26651 0.62411,-2.62783 -0.16424,-1.90518c-0.52557,0.45987 -0.42702,0.0657 0.49272,-1.90518c0.62411,-1.34676 1.14968,-2.79207 1.14968,-3.18625c0,-0.85405 -0.88689,-1.80664 -1.97088,-2.06942c-0.68981,-0.16424 -0.91974,-0.03285 -1.41246,0.78835c-0.29563,0.55841 -0.55841,1.31392 -0.55841,1.67524c0,0.62411 0.16424,0.65696 1.47816,0.49272c1.47816,-0.16424 1.511,-0.13139 1.05113,0.52557c-0.36133,0.55841 -0.7555,0.68981 -1.80664,0.62411l-1.31392,-0.09854l-2.16796,3.25194c-1.18253,1.77379 -2.16796,3.41618 -2.16796,3.61327c0,0.19709 0.55841,0.78835 1.24822,1.31392c0.68981,0.55841 1.511,1.511 1.83948,2.13511c0.59126,1.05113 0.59126,1.14968 0.03285,2.00372c-0.32848,0.49272 -2.52929,2.52929 -4.89434,4.50016c-4.7301,3.94175 -4.53301,3.87605 -6.01117,1.34676l-0.88689,-1.47816l1.08398,-0.95259c1.24822,-1.11683 1.80664,-0.98544 0.7555,0.16424c-0.72265,0.78835 -0.98544,1.87233 -0.42702,1.87233c0.16424,0 0.55841,0.26278 0.88689,0.55841c0.52557,0.52557 0.59126,0.52557 1.14968,-0.19709c0.36133,-0.42702 0.62411,-0.95259 0.62411,-1.18253c0,-0.19709 0.29563,-0.65696 0.65696,-0.98544c0.65696,-0.59126 0.88689,-1.18253 0.42702,-1.11683c-0.8212,0.13139 -0.72265,-0.16424 0.39418,-1.11683c1.47816,-1.28107 1.41246,-1.87233 -0.32848,-2.79207c-1.01829,-0.49272 -1.11683,-0.65696 -0.72265,-0.98544c0.36133,-0.32848 0.68981,-0.29563 1.41246,0.09854c1.21537,0.62411 1.54385,0.62411 2.43075,-0.09854c0.55841,-0.42702 0.68981,-0.78835 0.52557,-1.31392c-0.22994,-0.65696 -0.45987,-0.72265 -2.36505,-0.72265c-2.23366,0 -2.49644,-0.19709 -1.44531,-1.14968c0.36133,-0.32848 0.65696,-0.91974 0.65696,-1.34676c0,-0.42702 0.29563,-0.91974 0.62411,-1.11683c0.88689,-0.45987 0.98544,-0.42702 0.78835,0.32848c-0.22994,0.85405 0.19709,0.8212 1.54385,-0.09854c1.14968,-0.78835 1.77379,-2.20081 2.13511,-4.86149c0.16424,-1.24822 0.42702,-1.74094 1.18253,-2.29935c1.11683,-0.78835 1.18253,-1.34676 0.29563,-2.20081l-0.68981,-0.62411l0.78835,-0.95259c1.01829,-1.24822 1.21537,-2.13511 0.8212,-3.74466c-0.36133,-1.44531 -0.72265,-1.60955 -1.6424,-0.7555c-0.78835,0.68981 -1.18253,0.29563 -0.45987,-0.52557c0.45987,-0.52557 0.49272,-0.62411 0.0657,-0.78835c-0.8212,-0.32848 -1.31392,-2.3979 -0.85405,-3.54758c0.22994,-0.55841 0.59126,-0.91974 0.8212,-0.8212c0.22994,0.0657 1.08398,-0.55841 1.90518,-1.37961c1.60955,-1.67524 2.43075,-3.61327 1.93803,-4.56586c-0.16424,-0.32848 -0.39418,-1.21537 -0.52557,-1.97088c-0.16424,-1.18253 -0.09854,-1.44531 0.45987,-1.74094c0.36133,-0.19709 0.65696,-0.65696 0.65696,-1.01829c0,-0.52557 -0.16424,-0.59126 -0.88689,-0.42702c-2.62783,0.59126 -3.35049,1.34676 -3.38334,3.58042c-0.03285,0.91974 -0.62411,2.13511 -1.11683,2.13511c-0.09854,0 -0.19709,-0.29563 -0.19709,-0.65696c0,-0.36133 0.22994,-0.65696 0.49272,-0.65696c0.36133,0 0.49272,-0.36133 0.49272,-1.41246c0,-0.7555 0.22994,-1.74094 0.52557,-2.13511c0.32848,-0.45987 0.45987,-1.08398 0.32848,-1.54385c-0.19709,-0.7555 -0.16424,-0.78835 0.62411,-0.42702c0.59126,0.26278 0.95259,0.26278 1.18253,0.03285c0.49272,-0.49272 0.09854,-1.08398 -0.65696,-1.08398c-0.32848,0 -0.78835,-0.22994 -1.01829,-0.49272c-0.59126,-0.72265 -1.24822,-0.59126 -1.37961,0.22994c-0.16424,1.31392 -1.08398,0.91974 -1.08398,-0.49272c0,-1.14968 -0.29563,-1.60955 -0.55841,-0.85405c-0.22994,0.68981 -1.5767,-0.45987 -2.59499,-2.26651c-0.95259,-1.6424 -2.10227,-2.66068 -2.52929,-2.23366c-0.22994,0.26278 0.85405,3.71181 1.24822,3.9746c0.19709,0.13139 0.32848,0.7555 0.32848,1.44531c0,0.91974 0.19709,1.37961 0.68981,1.70809c0.42702,0.29563 0.72265,0.95259 0.85405,1.83948c0.16424,1.21537 0.0657,1.47816 -0.59126,2.03657c-0.72265,0.55841 -0.78835,0.95259 -0.88689,3.61327c-0.13139,2.92346 -0.55841,4.04029 -0.78835,1.90518l-0.09854,-1.05113l-0.59126,1.28107c-0.29563,0.72265 -0.68981,1.18253 -0.8212,1.05113c-0.13139,-0.13139 -0.22994,-2.06942 -0.22994,-4.23738c0,-4.20453 -0.95259,-9.82153 -2.03657,-11.89095c-2.56214,-4.96004 -3.12055,-6.20826 -3.28479,-7.45648c-0.22994,-1.67524 -1.511,-3.51473 -4.33593,-6.33965c-1.11683,-1.08398 -2.00372,-2.20081 -2.00372,-2.52929c0,-0.32848 -0.49272,-0.88689 -1.05113,-1.24822c-1.511,-0.91974 -2.13511,-0.8212 -1.01829,0.13139c1.77379,1.54385 0.32848,1.41246 -4.6644,-0.45987c-4.30308,-1.5767 -16.06263,-2.59499 -18.29629,-1.5767c-0.59126,0.29563 -2.49644,0.85405 -4.20453,1.24822c-1.70809,0.42702 -3.35049,0.91974 -3.61327,1.14968c-0.91974,0.72265 -5.32136,3.12055 -6.10971,3.31764c-0.42702,0.09854 -0.78835,0.39418 -0.78835,0.59126c0,0.22994 -1.24822,1.60955 -2.75923,3.12055c-2.3979,2.3322 -2.89062,2.66068 -3.61327,2.46359c-0.65696,-0.16424 -0.91974,-0.0657 -1.08398,0.39418c-0.16424,0.36133 -0.68981,1.34676 -1.21537,2.20081c-1.31392,2.23366 -0.88689,2.23366 0.65696,0c1.28107,-1.87233 2.10227,-2.52929 2.10227,-1.67524c0,0.22994 -0.88689,1.97088 -1.97088,3.87605c-1.08398,1.90518 -1.97088,3.74466 -1.97088,4.10599c0,0.36133 -0.36133,2.00372 -0.8212,3.67897c-0.65696,2.52929 -0.78835,3.67897 -0.72265,6.79952c0.03285,2.62783 -0.0657,3.9089 -0.32848,4.17169c-0.65696,0.65696 -0.85405,-0.39418 -0.68981,-3.9746c0.0657,-1.80664 0,-3.28479 -0.09854,-3.28479c-0.98544,0 -0.59126,6.96376 0.42702,7.68641c0.52557,0.39418 0.55841,0.45987 0.09854,0.62411c-0.32848,0.16424 -0.49272,0.62411 -0.45987,1.60955c0.03285,1.21537 0.0657,1.28107 0.26278,0.45987c0.36133,-1.6424 0.98544,-1.37961 1.97088,0.85405c1.41246,3.12055 1.87233,4.7958 1.41246,5.25567c-0.59126,0.59126 -0.49272,0.78835 0.59126,1.24822c0.52557,0.22994 1.18253,0.72265 1.44531,1.14968c0.29563,0.42702 0.91974,0.85405 1.44531,0.98544c0.52557,0.09854 1.28107,0.55841 1.6424,0.98544c0.39418,0.42702 1.31392,0.95259 2.06942,1.14968c0.88689,0.22994 1.41246,0.59126 1.511,1.01829c0.16424,0.62411 0.68981,0.8212 2.3979,1.01829c0.49272,0.0657 0.85405,0.36133 0.98544,0.8212l0.16424,0.72265l1.34676,-0.59126l1.34676,-0.62411l1.41246,1.21537c0.98544,0.85405 1.37961,1.37961 1.21537,1.77379c-0.22994,0.65696 -2.56214,1.87233 -3.58042,1.87233c-1.08398,0 -2.23366,0.36133 -2.23366,0.68981c0,0.13139 0.7555,0.52557 1.70809,0.85405c1.24822,0.42702 1.77379,0.8212 2.03657,1.47816c0.32848,0.85405 1.18253,1.54385 1.18253,0.95259c0,-0.16424 -0.19709,-0.36133 -0.39418,-0.45987c-0.32848,-0.09854 -0.32848,-0.26278 -0.0657,-0.52557c0.29563,-0.29563 1.08398,-0.26278 3.44903,0.16424c2.00372,0.36133 4.92719,0.55841 8.34337,0.55841c4.53301,0.03285 5.71554,-0.0657 8.54046,-0.78835c6.86521,-1.67524 14.45308,-6.96376 18.29629,-12.74499c0.91974,-1.37961 1.90518,-2.79207 2.23366,-3.1534c0.29563,-0.36133 0.95259,-2.06942 1.44531,-3.77751c1.11683,-3.9089 1.54385,-4.59871 2.82492,-4.59871c0.95259,0 0.98544,0.0657 0.98544,1.37961c0.03285,1.37961 0.03285,1.41246 0.49272,0.59126c0.26278,-0.45987 0.45987,-1.05113 0.49272,-1.34676c0,-0.42702 0.32848,-0.55841 1.31392,-0.55841c1.24822,-0.03285 1.31392,0.03285 1.31392,0.95259c0,0.52557 -0.16424,0.95259 -0.36133,0.95259c-0.26278,0 -0.29563,0.45987 -0.16424,1.41246c0.13139,0.78835 0.0657,2.16796 -0.16424,3.05486c-0.19709,0.88689 -0.42702,2.3979 -0.45987,3.35049c-0.0657,1.41246 -0.26278,1.93803 -0.98544,2.69353c-0.49272,0.52557 -1.37961,1.05113 -1.93803,1.18253c-1.44531,0.29563 -1.83948,0.72265 -1.83948,1.93803c0,0.85405 0.13139,1.01829 0.7555,1.01829c0.39418,-0.03285 0.98544,-0.32848 1.28107,-0.68981c0.65696,-0.7555 0.78835,-0.19709 0.26278,0.85405c-0.22994,0.36133 -0.22994,0.62411 -0.03285,0.62411c0.16424,0 0.39418,-0.19709 0.45987,-0.42702c0.13139,-0.26278 0.19709,-0.22994 0.19709,0.13139c0.03285,0.26278 -0.32848,0.85405 -0.7555,1.24822c-0.68981,0.65696 -0.8212,0.68981 -1.08398,0.22994c-0.26278,-0.45987 -0.39418,-0.42702 -1.08398,0.29563c-0.72265,0.78835 -0.52557,1.21537 0.22994,0.45987c0.22994,-0.22994 0.42702,-0.22994 0.55841,0c0.29563,0.45987 -1.31392,1.47816 -1.93803,1.21537c-0.8212,-0.29563 -1.70809,0.22994 -2.75923,1.67524c-0.91974,1.28107 -0.95259,1.34676 -0.32848,1.511c0.55841,0.16424 0.62411,0.29563 0.32848,0.78835c-0.42702,0.8212 -2.79207,2.92346 -4.82864,4.30308l-1.60955,1.11683l2.06942,-0.22994c1.37961,-0.16424 2.03657,-0.13139 2.03657,0.13139c0,0.19709 -0.16424,0.36133 -0.39418,0.36133c-1.05113,0 0.42702,0.62411 1.93803,0.8212c1.511,0.19709 1.70809,0.16424 1.90518,-0.49272c0.29563,-0.88689 -0.26278,-1.54385 -1.54385,-1.80664l-0.98544,-0.22994l0.7555,-0.78835c0.59126,-0.62411 0.78835,-0.68981 1.08398,-0.32848c0.19709,0.26278 0.88689,0.55841 1.54385,0.65696c1.511,0.26278 2.43075,0.95259 2.16796,1.60955c-0.36133,0.91974 -2.89062,2.52929 -4.00745,2.52929c-0.55841,0 -1.80664,0.22994 -2.72638,0.49272c-1.08398,0.32848 -1.90518,0.42702 -2.26651,0.22994c-0.88689,-0.42702 -1.87233,-0.03285 -2.85777,1.14968l-0.85405,1.01829l2.52929,-0.13139c2.00372,-0.09854 2.79207,-0.29563 3.77751,-0.95259c1.44531,-0.95259 1.90518,-1.01829 1.90518,-0.29563c0,0.26278 0.39418,1.01829 0.85405,1.60955c0.59126,0.8212 0.85405,1.5767 0.88689,2.69353l0.0657,1.5767l-2.46359,1.21537c-1.34676,0.68981 -2.59499,1.24822 -2.79207,1.24822c-0.26278,-0.03285 1.24822,-1.511 2.72638,-2.69353c0.7555,-0.59126 0.13139,-0.68981 -1.18253,-0.16424c-0.68981,0.29563 -2.20081,0.68981 -3.35049,0.88689c-3.05486,0.55841 -4.50016,1.21537 -4.86149,2.23366l-0.32848,0.88689l-0.36133,-0.91974c-0.7555,-1.90518 -0.59126,-2.06942 3.41618,-3.64612c2.79207,-1.05113 3.87605,-1.83948 2.59499,-1.83948c-0.32848,0 -1.511,0.39418 -2.69353,0.85405c-1.18253,0.45987 -3.35049,1.08398 -4.86149,1.37961c-2.75923,0.55841 -3.41618,0.91974 -2.03657,1.11683c0.95259,0.13139 1.5767,1.37961 1.5767,3.0877c0,2.10227 -0.7555,2.82492 -3.44903,3.12055c-1.24822,0.16424 -2.29935,0.22994 -2.36505,0.16424c-0.09854,-0.0657 0.49272,-0.32848 1.24822,-0.59126c2.82492,-0.95259 1.54385,-1.54385 -3.48188,-1.67524c-3.0877,-0.09854 -3.9746,0.19709 -4.36877,1.41246c-0.19709,0.52557 -0.52557,0.98544 -0.68981,0.98544c-0.49272,0 -0.45987,-3.84321 0,-4.13884c0.19709,-0.09854 1.74094,-0.32848 3.44903,-0.45987c1.70809,-0.13139 3.18625,-0.32848 3.35049,-0.45987c0.13139,-0.16424 -0.49272,-0.19709 -1.41246,-0.09854c-0.88689,0.13139 -2.75923,0.29563 -4.13884,0.39418l-2.49644,0.19709l-0.39418,1.70809c-0.19709,0.95259 -0.65696,2.20081 -1.01829,2.75923c-0.55841,0.95259 -0.7555,1.01829 -1.87233,0.88689c-1.87233,-0.29563 -9.36166,-2.43075 -10.18285,-2.95631c-0.62411,-0.39418 -0.65696,-0.55841 -0.39418,-1.83948c0.19709,-0.7555 0.49272,-1.5767 0.68981,-1.80664c0.26278,-0.32848 0.19709,-0.42702 -0.29563,-0.42702c-0.39418,0 -1.01829,0.59126 -1.67524,1.5767c-2.03657,3.18625 -1.74094,3.1534 -6.99661,0.55841c-2.52929,-1.28107 -4.99288,-2.62783 -5.4856,-3.02201l-0.88689,-0.72265l0.78835,-1.47816c0.98544,-1.87233 1.47816,-1.90518 4.89434,-0.36133c1.34676,0.65696 2.43075,1.08398 2.3322,1.01829c-0.22994,-0.22994 -7.29224,-4.46732 -7.42363,-4.46732c-0.0657,0 -0.85405,0.59126 -1.77379,1.31392c-0.91974,0.72265 -1.97088,1.31392 -2.3322,1.31392c-0.68981,0 -4.20453,-2.79207 -4.20453,-3.35049c0,-0.16424 0.32848,-0.26278 0.7555,-0.19709c0.62411,0.09854 0.72265,-0.03285 0.59126,-0.88689c-0.03285,-0.52557 -0.52557,-1.47816 -1.05113,-2.06942c-0.68981,-0.78835 -0.95259,-1.41246 -0.95259,-2.36505c0,-0.68981 -0.09854,-1.54385 -0.22994,-1.87233c-0.13139,-0.39418 0.22994,-0.19709 1.05113,0.55841c1.21537,1.11683 1.21537,1.08398 -0.36133,-0.95259c-0.88689,-1.18253 -1.70809,-2.26651 -1.80664,-2.43075c-0.13139,-0.16424 -0.62411,0 -1.14968,0.36133c-0.52557,0.39418 -1.67524,0.88689 -2.52929,1.11683c-1.47816,0.39418 -1.6424,0.36133 -2.06942,-0.22994c-0.26278,-0.32848 -0.45987,-0.8212 -0.45987,-1.08398c0,-0.39418 0.13139,-0.39418 0.65696,0.09854c0.65696,0.59126 1.6424,0.45987 1.6424,-0.22994c0,-0.22994 -0.52557,-1.24822 -1.14968,-2.23366c-0.62411,-0.98544 -1.14968,-2.00372 -1.14968,-2.29935c0,-0.29563 -0.29563,-1.41246 -0.65696,-2.46359c-0.62411,-1.80664 -0.62411,-1.97088 -0.09854,-2.75923l0.52557,-0.8212l1.41246,2.92346c0.7555,1.6424 1.41246,2.79207 1.41246,2.59499c0.03285,-0.19709 -0.45987,-1.47816 -1.05113,-2.79207c-0.62411,-1.34676 -1.28107,-2.95631 -1.511,-3.61327c-0.59126,-1.87233 -1.37961,-2.3979 -3.1534,-2.13511c-3.61327,0.49272 -4.30308,0.52557 -4.6644,0.29563c-0.49272,-0.36133 -1.34676,-5.4856 -1.6424,-9.88722l-0.19709,-3.35049h2.00372c1.11683,0 2.03657,0.03285 2.06942,0.0657c0,0.0657 0.19709,1.77379 0.42702,3.81036c0.22994,2.03657 0.52557,3.77751 0.62411,3.87605c0.09854,0.13139 0.65696,0 1.24822,-0.22994l1.01829,-0.45987l-0.16424,-3.77751c-0.16424,-3.54758 -0.22994,-3.81036 -1.05113,-4.50016c-0.65696,-0.55841 -1.28107,-0.7555 -2.49644,-0.7555c-1.70809,0 -3.9089,-0.72265 -3.9089,-1.28107c0,-0.7555 1.01829,-5.58415 1.54385,-7.25939l0.55841,-1.80664l0.19709,1.47816l0.19709,1.47816l0.42702,-2.3979c0.36133,-1.80664 0.39418,-2.56214 0.09854,-3.18625c-0.32848,-0.72265 -0.29563,-0.8212 0.29563,-0.8212c0.36133,0 1.14968,0.22994 1.77379,0.45987c1.37961,0.59126 1.37961,0.85405 0.49272,4.7958c-0.8212,3.54758 -0.8212,3.61327 0.13139,3.61327c1.47816,0 2.23366,-1.01829 2.3322,-2.98916c0.03285,-0.98544 0.26278,-2.56214 0.49272,-3.51473c0.62411,-2.3979 0.26278,-3.25194 -1.70809,-4.00745c-1.74094,-0.65696 -3.51473,-1.93803 -3.51473,-2.56214c-0.0657,-1.18253 2.59499,-5.81408 6.2411,-11.00405c0.26278,-0.39418 1.90518,0.49272 2.89062,1.54385c0.91974,0.98544 0.68981,1.54385 -0.36133,0.88689c-0.65696,-0.39418 -0.78835,-0.36133 -1.41246,0.42702c-0.7555,0.91974 -1.34676,1.14968 -1.05113,0.36133c0.13139,-0.26278 0.0657,-0.55841 -0.09854,-0.65696c-0.45987,-0.29563 -1.511,0.49272 -2.13511,1.5767c-0.55841,0.95259 -0.55841,1.01829 0,1.44531c0.36133,0.22994 0.72265,0.42702 0.88689,0.42702c0.55841,0 0.22994,1.08398 -0.65696,1.93803c-0.78835,0.8212 -1.93803,3.84321 -1.5767,4.20453c0.09854,0.09854 0.52557,-0.59126 0.98544,-1.47816c0.95259,-1.87233 1.41246,-2.26651 1.93803,-1.74094c0.19709,0.19709 0.8212,0.36133 1.41246,0.36133c0.98544,0 1.14968,-0.19709 2.95631,-3.35049c1.08398,-1.87233 2.03657,-3.61327 2.13511,-3.87605c0.32848,-0.78835 -0.22994,-1.83948 -1.24822,-2.46359c-0.52557,-0.29563 -1.31392,-1.05113 -1.70809,-1.67524c-0.72265,-1.01829 -0.7555,-1.21537 -0.32848,-1.97088c0.55841,-1.05113 7.09515,-7.35793 8.27768,-7.98204c0.68981,-0.36133 0.95259,-0.39418 1.37961,-0.03285c0.62411,0.52557 0.52557,0.65696 -2.13511,2.79207c-2.20081,1.74094 -4.20453,3.9746 -3.87605,4.27023c0.19709,0.22994 3.84321,-2.36505 5.51845,-3.9089c2.3322,-2.13511 1.87233,-1.01829 -0.78835,1.90518c-1.37961,1.511 -2.49644,2.89062 -2.49644,3.0877c0,0.16424 0.36133,0.42702 0.85405,0.52557c0.8212,0.22994 2.13511,-0.45987 3.0877,-1.60955c0.22994,-0.26278 0.65696,-0.49272 0.95259,-0.49272c0.29563,0 1.18253,-0.32848 2.00372,-0.68981c1.37961,-0.65696 1.44531,-0.72265 0.7555,-1.01829c-0.68981,-0.32848 -0.68981,-0.39418 -0.19709,-1.14968c0.49272,-0.72265 0.49272,-0.85405 -0.13139,-1.67524c-1.05113,-1.44531 -1.74094,-2.92346 -1.74094,-3.81036c0,-0.68981 0.49272,-1.08398 3.38334,-2.62783c4.04029,-2.16796 7.62072,-3.61327 8.24483,-3.38334c0.26278,0.09854 0.68981,0.8212 0.88689,1.5767c0.42702,1.31392 0.39418,1.37961 -0.45987,2.10227c-0.49272,0.39418 -2.06942,1.28107 -3.51473,1.97088c-2.03657,0.98544 -2.52929,1.37961 -2.23366,1.70809c0.19709,0.22994 0.49272,0.42702 0.72265,0.42702c0.32848,0 6.56958,-2.62783 7.75211,-3.25194c0.52557,-0.29563 0.59126,-1.60955 0.16424,-2.92346c-0.22994,-0.72265 -0.22994,-0.72265 0.72265,-0.16424c0.55841,0.29563 0.98544,0.72265 0.98544,0.88689c-0.03285,1.97088 0.13139,2.43075 1.01829,2.75923c1.93803,0.78835 3.1534,0.78835 4.07314,0.09854c0.45987,-0.39418 1.31392,-0.78835 1.87233,-0.88689c0.72265,-0.16424 1.01829,-0.39418 1.01829,-0.85405c0,-0.7555 -0.88689,-1.14968 -1.41246,-0.62411c-0.19709,0.19709 -0.98544,0.36133 -1.77379,0.36133c-1.24822,0 -1.47816,-0.09854 -1.77379,-0.88689c-0.52557,-1.44531 -0.22994,-1.87233 1.67524,-2.49644c0.98544,-0.32848 1.97088,-0.7555 2.13511,-0.95259c0.45987,-0.45987 -4.6644,-0.03285 -6.66813,0.59126c-2.00372,0.59126 -2.03657,0.59126 -2.03657,-0.29563c0,-1.14968 0.39418,-1.47816 2.03657,-1.83948c2.26651,-0.52557 8.37622,-1.34676 9.85438,-1.34676h1.24822v1.77379c0,1.08398 -0.16424,1.90518 -0.45987,2.13511c-0.22994,0.19709 -1.93803,0.55841 -3.77751,0.78835c-1.80664,0.26278 -3.41618,0.55841 -3.54758,0.65696c-0.13139,0.13139 0.03285,0.49272 0.32848,0.78835c0.49272,0.49272 0.7555,0.49272 3.74466,0c1.77379,-0.32848 3.84321,-0.55841 4.56586,-0.55841c1.6424,0 2.23366,-0.59126 1.97088,-1.87233c-0.22994,-0.95259 0.45987,-3.41618 1.14968,-4.27023c0.49272,-0.59126 1.08398,-0.55841 6.40534,0.39418zM242.3979,128.45195c-1.11683,-0.19709 -1.24822,-0.13139 -1.24822,0.49272c0,0.78835 0,0.78835 2.13511,0.19709c0.91974,-0.22994 1.34676,-0.45987 0.98544,-0.45987c-0.36133,-0.03285 -1.21537,-0.13139 -1.87233,-0.22994zM256.25972,131.11264c0,0.09854 0.13139,0.49272 0.32848,0.8212c0.22994,0.42702 0.19709,0.68981 -0.16424,0.98544c-0.22994,0.19709 -0.36133,0.59126 -0.26278,0.85405c0.26278,0.72265 -0.52557,1.44531 -1.67524,1.44531c-0.91974,0.03285 -0.95259,0.0657 -0.45987,0.45987c0.42702,0.32848 0.95259,0.32848 2.23366,0.0657c1.80664,-0.36133 1.87233,-0.42702 1.18253,-1.34676c-0.42702,-0.59126 -0.36133,-0.68981 0.49272,-1.21537c0.52557,-0.32848 1.28107,-0.59126 1.70809,-0.62411c0.55841,0 0.42702,-0.16424 -0.59126,-0.62411c-1.70809,-0.7555 -2.79207,-1.08398 -2.79207,-0.8212zM219.14157,134.36458c-2.06942,0.45987 -5.97832,2.36505 -7.52217,3.67897l-1.05113,0.88689l0.8212,0.85405c0.45987,0.49272 1.01829,1.34676 1.21537,1.93803c0.39418,1.14968 0.88689,1.28107 2.56214,0.68981c1.44531,-0.49272 1.28107,-0.91974 -0.29563,-0.72265c-1.41246,0.19709 -1.511,0.09854 -0.91974,-0.85405c0.29563,-0.49272 0.26278,-0.91974 -0.13139,-1.97088c-0.52557,-1.31392 -0.52557,-1.37961 0.16424,-1.83948c0.39418,-0.26278 2.06942,-0.91974 3.67897,-1.47816c1.6424,-0.59126 3.18625,-1.18253 3.44903,-1.34676c0.65696,-0.36133 0.22994,-0.32848 -1.97088,0.16424zM276.65828,140.80277h-0.78835c-0.98544,0 -1.08398,0.13139 -1.90518,1.93803c-0.36133,0.8212 -0.88689,1.74094 -1.14968,2.03657c-0.45987,0.49272 -0.42702,0.62411 0.26278,1.08398c1.05113,0.7555 1.14968,0.68981 1.37961,-1.01829c0.13139,-1.01829 0.55841,-2.00372 1.21537,-2.79207zM262.10665,143.4306c-0.42702,0 -1.14968,0.36133 -1.5767,0.8212c-0.68981,0.7555 -0.72265,0.8212 -0.16424,1.01829c0.68981,0.26278 1.41246,-0.09854 2.06942,-1.11683c0.45987,-0.68981 0.42702,-0.72265 -0.32848,-0.72265zM265.75277,144.08756c-0.16424,0 -0.22994,0.13139 -0.13139,0.32848c0.09854,0.16424 0.26278,0.32848 0.36133,0.32848c0.0657,0 0.13139,-0.16424 0.13139,-0.32848c0,-0.19709 -0.16424,-0.32848 -0.36133,-0.32848zM263.48626,144.41604c-0.49272,0 -0.39418,0.32848 0.42702,1.44531c0.42702,0.55841 1.41246,2.13511 2.20081,3.48188c1.80664,3.12055 2.43075,3.84321 4.30308,4.76295c0.8212,0.42702 1.67524,1.01829 1.90518,1.28107c0.26278,0.29563 0.72265,0.52557 1.05113,0.52557c0.88689,0 1.14968,1.44531 0.45987,2.49644c-0.52557,0.8212 -0.52557,0.8212 0.13139,0.45987c0.91974,-0.45987 1.24822,-1.87233 0.65696,-2.92346c-0.26278,-0.49272 -1.31392,-1.24822 -2.49644,-1.83948c-2.56214,-1.24822 -4.17169,-2.75923 -5.35421,-5.09143c-0.49272,-0.98544 -1.37961,-2.43075 -1.93803,-3.2191c-0.55841,-0.7555 -1.18253,-1.37961 -1.34676,-1.37961zM275.31151,145.69711c-0.59126,1.11683 -0.36133,2.03657 0.95259,4.00745c0.72265,1.05113 1.34676,2.10227 1.44531,2.3322c0.0657,0.22994 0.26278,0.32848 0.39418,0.19709c0.13139,-0.13139 0,-0.62411 -0.29563,-1.05113c-0.29563,-0.45987 -0.52557,-1.01829 -0.52557,-1.21537c0,-0.22994 -0.22994,-0.55841 -0.52557,-0.78835c-0.36133,-0.26278 -0.55841,-0.95259 -0.59126,-2.23366c-0.03285,-1.97088 -0.26278,-2.29935 -0.85405,-1.24822zM257.90212,146.38692c0,0.72265 -0.32848,1.31392 -1.18253,2.10227l-1.18253,1.11683l1.01829,0.22994c1.18253,0.26278 1.54385,0.16424 1.41246,-0.39418c-0.03285,-0.19709 0.29563,-0.91974 0.7555,-1.60955c0.78835,-1.14968 0.78835,-1.24822 0.29563,-1.83948c-0.78835,-0.85405 -1.11683,-0.72265 -1.11683,0.39418zM261.51539,146.41977c0,0.62411 4.13884,6.20826 4.59871,6.20826c0.52557,0 0.36133,-1.08398 -0.26278,-1.97088c-1.08398,-1.5767 -4.33593,-4.7301 -4.33593,-4.23738zM240.19709,147.56944c-0.72265,0.22994 -0.22994,0.49272 1.77379,0.95259c1.44531,0.36133 1.80664,0.36133 1.80664,0.03285c0,-1.08398 -1.87233,-1.5767 -3.58042,-0.98544zM202.06065,148.88336c-0.7555,1.18253 -0.7555,1.21537 -0.16424,2.3322c0.36133,0.62411 0.88689,1.28107 1.24822,1.47816c1.08398,0.55841 1.28107,-0.09854 0.78835,-2.3322c-0.65696,-2.75923 -0.95259,-2.98916 -1.87233,-1.47816zM262.17234,151.51119c2.46359,3.54758 3.28479,4.46732 3.28479,3.67897c0,-0.29563 -1.08398,-2.00372 -2.43075,-3.81036c-3.81036,-5.12428 -4.43447,-5.05858 -0.85405,0.13139zM270.05585,147.79938c-0.62411,0 -0.98544,0.16424 -0.98544,0.45987c0,0.55841 1.67524,0.45987 1.87233,-0.09854c0.0657,-0.19709 -0.29563,-0.36133 -0.88689,-0.36133zM214.73995,149.01475c-0.52557,0.16424 -1.05113,0.22994 -1.18253,0.16424c-0.13139,-0.0657 -0.78835,0.59126 -1.44531,1.47816c-0.8212,1.08398 -1.511,1.6424 -1.97088,1.6424c-0.68981,0 -2.10227,0.78835 -2.56214,1.44531c-0.16424,0.19709 -0.26278,0.88689 -0.22994,1.511c0,0.62411 -0.09854,1.511 -0.22994,1.97088c-0.19709,0.62411 0.16424,0.36133 1.5767,-1.05113c1.01829,-1.05113 1.90518,-2.13511 2.03657,-2.43075c0.09854,-0.29563 0.49272,-0.59126 0.85405,-0.68981c0.52557,-0.13139 0.59126,-0.29563 0.32848,-0.62411c-0.42702,-0.49272 0.09854,-1.74094 0.7555,-1.80664c1.14968,-0.09854 2.72638,0.13139 2.89062,0.42702c0.13139,0.16424 0.29563,-0.03285 0.42702,-0.49272c0.09854,-0.45987 0.29563,-1.05113 0.39418,-1.34676c0.22994,-0.59126 -0.16424,-0.62411 -1.6424,-0.19709zM249.92007,148.68627c-0.55841,0.03285 1.05113,1.31392 1.60955,1.31392c0.7555,0 0.52557,-0.65696 -0.39418,-0.98544c-0.45987,-0.19709 -1.01829,-0.32848 -1.21537,-0.32848zM272.81507,148.71912c-0.36133,0 -0.45987,0.09854 -0.19709,0.19709c0.22994,0.09854 0.52557,0.0657 0.62411,-0.03285c0.13139,-0.09854 -0.0657,-0.19709 -0.42702,-0.16424zM281.65116,148.75197c-0.22994,-0.0657 -0.42702,0.0657 -0.42702,0.32848c0,0.68981 0.95259,1.90518 1.511,1.90518c0.62411,0 0.59126,-0.32848 -0.09854,-0.85405c-0.32848,-0.22994 -0.59126,-0.59126 -0.59126,-0.8212c0,-0.22994 -0.19709,-0.45987 -0.39418,-0.55841zM205.04982,149.08045c-0.26278,-0.09854 -0.39418,0.03285 -0.29563,0.29563c0.0657,0.22994 0.32848,0.49272 0.55841,0.55841c0.26278,0.09854 0.39418,-0.03285 0.29563,-0.29563c-0.0657,-0.22994 -0.32848,-0.49272 -0.55841,-0.55841zM234.38301,149.0476c-0.36133,0 -0.45987,0.09854 -0.19709,0.19709c0.22994,0.09854 0.52557,0.0657 0.62411,-0.03285c0.13139,-0.09854 -0.0657,-0.19709 -0.42702,-0.16424zM232.9377,149.40893c-0.45987,0 -0.62411,0.0657 -0.39418,0.16424c0.19709,0.0657 0.59126,0.0657 0.8212,0c0.19709,-0.09854 0.03285,-0.16424 -0.42702,-0.16424zM261.28545,152.03676c-1.14968,-1.511 -2.06942,-2.59499 -2.06942,-2.46359c0,0.52557 3.84321,5.58415 4.07314,5.32136c0.03285,-0.0657 -0.85405,-1.34676 -2.00372,-2.85777zM270.38432,149.67171c-0.36133,0.26278 -0.26278,0.29563 0.39418,0.13139c1.08398,-0.22994 1.90518,0.88689 1.21537,1.70809c-0.59126,0.72265 -1.08398,0.55841 -2.16796,-0.68981c-0.55841,-0.62411 -1.21537,-1.14968 -1.41246,-1.14968c-0.42702,0 0.95259,1.77379 2.06942,2.62783c0.78835,0.62411 4.46732,1.14968 3.87605,0.55841c-0.59126,-0.59126 -0.39418,-0.91974 0.45987,-0.68981c0.62411,0.16424 0.8212,0.0657 0.8212,-0.32848c0,-0.29563 -0.26278,-0.52557 -0.65696,-0.52557c-0.78835,0 -0.8212,-0.26278 -0.09854,-1.05113c0.42702,-0.49272 0.45987,-0.59126 0.03285,-0.59126c-0.26278,0 -0.7555,0.22994 -1.11683,0.49272c-0.78835,0.59126 -1.44531,0.62411 -1.44531,0.03285c0,-0.26278 -0.22994,-0.55841 -0.52557,-0.65696c-0.68981,-0.26278 -0.85405,-0.22994 -1.44531,0.13139zM224.72572,152.16815c-0.98544,0.72265 -1.01829,0.8212 -0.32848,0.62411c1.31392,-0.39418 2.95631,-1.08398 2.95631,-1.28107c0,-0.49272 -1.60955,-0.0657 -2.62783,0.65696zM267.29662,155.02592c-0.59126,1.60955 -0.68981,2.3322 -0.19709,2.03657c0.19709,-0.09854 0.32848,-0.52557 0.32848,-0.91974c0,-0.39418 0.22994,-1.01829 0.49272,-1.34676c0.26278,-0.36133 0.49272,-0.7555 0.49272,-0.91974c0,-0.7555 -0.62411,-0.09854 -1.11683,1.14968zM275.47575,154.50035c1.01829,2.3979 0.98544,2.92346 -0.26278,4.63156c-1.18253,1.5767 -1.70809,2.98916 -0.8212,2.10227c0.59126,-0.59126 1.21537,-0.45987 1.01829,0.22994c-0.09854,0.32848 0.0657,1.05113 0.36133,1.60955c0.29563,0.55841 0.52557,1.28107 0.52557,1.5767c0,0.45987 -0.19709,0.39418 -0.98544,-0.36133c-0.52557,-0.52557 -0.98544,-1.21537 -0.98544,-1.54385c0,-0.49272 -0.09854,-0.55841 -0.62411,-0.26278c-0.36133,0.16424 -1.24822,0.32848 -2.00372,0.32848c-1.28107,0 -1.31392,0.03285 -1.11683,0.88689c0.42702,1.77379 0.72265,2.23366 1.77379,2.85777l1.05113,0.59126l-1.18253,-1.74094c-0.65696,-0.98544 -1.18253,-1.87233 -1.18253,-2.00372c0,-0.13139 0.52557,0 1.11683,0.29563c0.95259,0.42702 1.21537,0.8212 1.5767,2.13511c0.36133,1.511 0.8212,2.03657 2.52929,3.05486c0.52557,0.29563 0.39418,0 -1.01829,-1.93803c-1.31392,-1.80664 -1.21537,-2.36505 0.22994,-1.44531c0.8212,0.52557 1.24822,1.14968 1.511,2.03657c0.32848,1.24822 2.10227,3.41618 2.49644,3.05486c0.09854,-0.09854 -0.36133,-0.85405 -1.01829,-1.6424c-1.34676,-1.6424 -1.5767,-2.43075 -0.49272,-1.87233c1.34676,0.72265 1.28107,0.09854 -0.19709,-1.77379c-0.8212,-1.05113 -1.41246,-2.00372 -1.34676,-2.10227c0.09854,-0.0657 0.68981,0.16424 1.31392,0.55841c0.78835,0.49272 1.28107,1.14968 1.5767,2.06942c0.26278,0.78835 0.91974,1.70809 1.511,2.16796c1.31392,1.01829 1.31392,0.8212 0.0657,-0.7555c-1.21537,-1.511 -1.24822,-1.93803 -0.16424,-1.67524c1.11683,0.29563 1.05113,-0.22994 -0.32848,-1.74094c-0.62411,-0.68981 -1.14968,-1.44531 -1.14968,-1.6424c0,-0.45987 0.09854,-0.45987 1.14968,0.03285c0.62411,0.26278 0.95259,0.8212 1.31392,2.06942c0.49272,1.6424 0.68981,1.83948 2.56214,2.72638c0.16424,0.0657 -0.16424,-0.49272 -0.72265,-1.24822c-1.18253,-1.6424 -1.28107,-2.10227 -0.36133,-1.80664c0.95259,0.29563 0.8212,-0.03285 -0.65696,-2.03657c-1.47816,-1.93803 -1.80664,-2.13511 -1.511,-0.91974c0.29563,1.18253 -0.09854,1.01829 -1.44531,-0.55841c-0.85405,-0.98544 -1.34676,-1.31392 -1.77379,-1.14968c-0.49272,0.19709 -0.49272,0.29563 -0.0657,0.95259c0.26278,0.42702 0.59126,1.34676 0.72265,2.06942l0.22994,1.31392l-1.05113,-0.98544c-0.7555,-0.68981 -1.01829,-1.21537 -0.91974,-1.74094c0.09854,-0.52557 0,-0.72265 -0.49272,-0.72265c-0.55841,0 -0.59126,-0.0657 -0.09854,-0.98544c0.26278,-0.52557 0.49272,-1.47816 0.49272,-2.13511c0,-0.65696 -0.22994,-1.60955 -0.49272,-2.13511c-0.55841,-1.05113 -1.05113,-1.37961 -0.65696,-0.42702zM279.25326,154.92738c0.39418,0.52557 0.85405,0.98544 1.01829,0.98544c0.42702,0 0.36133,-0.13139 -0.52557,-1.11683c-1.08398,-1.14968 -1.34676,-1.08398 -0.49272,0.13139zM211.52086,155.05877c-0.26278,-0.22994 -1.6424,1.44531 -1.511,1.83948c0.0657,0.19709 0.45987,-0.09854 0.88689,-0.65696c0.39418,-0.55841 0.68981,-1.08398 0.62411,-1.18253zM219.60144,155.58433c-0.19709,0 -1.01829,0.59126 -1.80664,1.31392c-0.78835,0.68981 -1.28107,1.28107 -1.08398,1.31392c0.19709,0 1.01829,-0.59126 1.80664,-1.31392c0.78835,-0.68981 1.28107,-1.28107 1.08398,-1.31392zM278.92478,157.06249c-0.95259,-1.21537 -0.98544,-1.21537 -0.98544,-0.39418c0,0.8212 1.41246,2.20081 1.80664,1.80664c0.09854,-0.09854 -0.26278,-0.72265 -0.8212,-1.41246zM269.23465,156.24129c-0.42702,0 -1.47816,1.37961 -1.47816,1.93803c0,0.85405 1.34676,2.72638 2.29935,3.2191c0.95259,0.49272 3.02201,0.42702 3.18625,-0.09854c0.0657,-0.22994 -0.49272,-0.42702 -1.37961,-0.52557c-2.20081,-0.26278 -2.85777,-0.98544 -2.66068,-2.95631c0.09854,-0.85405 0.13139,-1.5767 0.03285,-1.5767zM270.18724,157.45667c-0.19709,0.65696 -0.0657,1.01829 0.52557,1.47816c0.39418,0.32848 0.91974,0.59126 1.18253,0.59126c0.72265,0 0.52557,-0.32848 -0.36133,-0.65696c-0.45987,-0.16424 -0.8212,-0.45987 -0.8212,-0.65696c0,-0.16424 0.36133,-0.32848 0.8212,-0.32848h0.8212l-0.65696,-0.65696c-0.88689,-0.88689 -1.24822,-0.8212 -1.511,0.22994zM211.75079,157.55521c-0.32848,0 -0.49272,0.19709 -0.42702,0.52557c0.13139,0.68981 0.72265,0.7555 0.85405,0.03285c0.0657,-0.32848 -0.09854,-0.55841 -0.42702,-0.55841zM285.23158,159.03337c-0.59126,0.42702 -1.21537,0.8212 -1.41246,0.88689c-0.19709,0.0657 -0.16424,0.49272 0.0657,1.18253c0.29563,0.8212 0.49272,1.01829 0.91974,0.85405c0.29563,-0.13139 0.88689,-0.22994 1.31392,-0.26278c0.85405,-0.03285 0.98544,0.13139 2.23366,2.89062c0.72265,1.60955 1.41246,1.90518 1.44531,0.62411c0.03285,-0.62411 0.29563,-0.13139 0.85405,1.60955c0.62411,2.03657 0.91974,2.56214 1.44531,2.56214c0.32848,0 0.62411,-0.13139 0.62411,-0.29563c0,-1.11683 -1.93803,-5.41991 -3.12055,-6.93091c-0.7555,-0.98544 -1.6424,-2.29935 -1.93803,-2.89062c-0.62411,-1.21537 -0.95259,-1.24822 -2.43075,-0.22994zM207.31632,159.52608c-0.42702,0.26278 -0.39418,0.32848 0.09854,0.32848c0.29563,0 0.55841,-0.16424 0.55841,-0.32848c0,-0.39418 -0.03285,-0.39418 -0.65696,0zM209.38574,160.34728c-0.22994,0.68981 0.09854,2.79207 0.55841,3.25194c0.22994,0.22994 0.32848,-0.29563 0.32848,-1.70809c0,-1.93803 -0.42702,-2.69353 -0.88689,-1.54385zM214.54286,159.85456c-0.16424,0 -0.32848,0.16424 -0.32848,0.36133c0,0.16424 0.16424,0.22994 0.32848,0.13139c0.19709,-0.09854 0.32848,-0.26278 0.32848,-0.36133c0,-0.0657 -0.13139,-0.13139 -0.32848,-0.13139zM200.71389,160.51152c-0.45987,0 -0.32848,0.85405 0.19709,1.31392c0.52557,0.42702 0.65696,0.09854 0.29563,-0.78835c-0.09854,-0.29563 -0.32848,-0.52557 -0.49272,-0.52557zM267.32947,160.74146c-0.72265,0.72265 0.13139,2.72638 1.511,3.54758l1.01829,0.59126l-0.72265,-1.14968c-0.78835,-1.24822 -0.91974,-1.74094 -0.39418,-1.41246c0.19709,0.09854 0.32848,0.0657 0.32848,-0.09854c0,-0.45987 -1.511,-1.74094 -1.74094,-1.47816zM204.62279,161.46411l-0.09854,-0.68981l-0.91974,0.72265c-0.68981,0.55841 -0.8212,0.8212 -0.55841,1.14968c0.26278,0.32848 0.22994,0.72265 -0.16424,1.47816c-0.52557,1.01829 -0.52557,1.05113 0.09854,0.85405c0.32848,-0.13139 1.34676,-0.26278 2.23366,-0.32848c1.6424,-0.09854 3.0877,-0.65696 3.0877,-1.14968c0,-0.52557 -0.72265,-2.3322 -0.91974,-2.3322c-0.13139,0.03285 -0.59126,0.22994 -1.05113,0.49272c-0.45987,0.26278 -0.98544,0.45987 -1.21537,0.49272c-0.19709,0 -0.42702,-0.29563 -0.49272,-0.68981zM193.91437,163.86201c0.16424,0.49272 1.6424,1.28107 1.90518,1.05113c0.09854,-0.09854 -0.19709,-0.45987 -0.62411,-0.8212c-0.88689,-0.72265 -1.47816,-0.8212 -1.28107,-0.22994zM208.86017,166.09567c-0.32848,0 -1.28107,1.34676 -1.11683,1.511c0.39418,0.39418 1.21537,-0.19709 1.21537,-0.85405c0,-0.36133 -0.0657,-0.65696 -0.09854,-0.65696zM270.05585,166.98256c0.03285,1.80664 0.78835,2.59499 1.60955,1.60955c0.26278,-0.32848 0.19709,-0.62411 -0.32848,-1.31392c-0.78835,-0.98544 -1.28107,-1.11683 -1.28107,-0.29563zM205.3126,167.54098c-0.49272,1.01829 -0.26278,1.31392 0.68981,1.01829c0.45987,-0.16424 0.65696,-0.42702 0.59126,-0.91974c-0.13139,-1.01829 -0.85405,-1.05113 -1.28107,-0.09854zM201.00952,167.73806c-0.09854,-0.62411 -0.09854,-0.62411 -1.14968,0.03285c-0.59126,0.39418 -1.08398,0.88689 -1.08398,1.11683c0,0.22994 -0.22994,0.59126 -0.52557,0.85405c-0.45987,0.39418 -0.45987,0.45987 0.19709,0.68981c0.72265,0.26278 0.72265,0.85405 -0.0657,2.46359c-0.26278,0.55841 -0.26278,1.08398 0,1.97088c0.39418,1.31392 0.22994,1.97088 -0.42702,1.41246c-0.45987,-0.39418 -0.8212,0.45987 -0.8212,2.00372c0,1.11683 -0.32848,1.41246 -0.8212,0.72265c-0.22994,-0.29563 -0.55841,-0.42702 -0.7555,-0.29563c-0.39418,0.22994 -0.29563,1.6424 0.42702,5.94547c0.26278,1.60955 0.59126,3.54758 0.72265,4.23738l0.19709,1.31392l-0.91974,-0.72265c-0.49272,-0.39418 -0.98544,-0.68981 -1.05113,-0.59126c-0.0657,0.0657 0.22994,0.95259 0.68981,1.97088c0.68981,1.54385 0.95259,1.83948 1.6424,1.83948c0.91974,0 1.18253,-0.85405 0.45987,-1.5767c-0.26278,-0.26278 -0.26278,-0.39418 -0.03285,-0.39418c0.19709,0 0.52557,0.19709 0.72265,0.45987c0.52557,0.62411 1.67524,0.88689 1.67524,0.39418c0,-0.22994 -0.13139,-0.52557 -0.32848,-0.72265c-0.32848,-0.32848 0.39418,-2.72638 1.08398,-3.67897c0.45987,-0.59126 0.88689,-0.45987 0.88689,0.29563c0,0.49272 0.13139,0.62411 0.52557,0.49272c0.29563,-0.09854 0.62411,-0.19709 0.78835,-0.19709c0.13139,0 0.32848,-0.29563 0.42702,-0.65696c0.13139,-0.49272 0,-0.65696 -0.49272,-0.65696c-0.91974,0 -1.90518,-0.59126 -1.90518,-1.18253c0,-0.26278 0.39418,-0.65696 0.85405,-0.85405c0.62411,-0.29563 0.78835,-0.55841 0.62411,-1.05113c-0.52557,-1.60955 -0.55841,-2.16796 -0.19709,-2.16796c0.22994,0 0.29563,0.13139 0.19709,0.32848c-0.26278,0.39418 0.16424,0.42702 0.78835,0.03285c0.36133,-0.22994 0.32848,-0.42702 -0.09854,-1.08398c-0.49272,-0.7555 -0.49272,-0.8212 0.78835,-2.06942c1.47816,-1.44531 1.5767,-1.80664 0.68981,-2.36505c-0.32848,-0.19709 -0.7555,-1.05113 -0.98544,-1.87233c-0.19709,-0.8212 -0.8212,-2.00372 -1.34676,-2.62783c-0.78835,-0.88689 -0.95259,-1.28107 -0.78835,-2.13511c0.13139,-0.62411 0.0657,-1.01829 -0.13139,-1.01829c-0.19709,0 -0.39418,-0.29563 -0.45987,-0.65696zM281.51977,169.5447c-0.85405,-0.45987 -0.95259,-0.45987 -0.95259,0c0,0.29563 0.39418,0.65696 0.85405,0.8212c1.08398,0.42702 1.54385,0.42702 1.28107,0c-0.09854,-0.19709 -0.62411,-0.55841 -1.18253,-0.8212zM205.37829,170.16881c-0.32848,0.39418 -0.26278,0.42702 0.26278,0.29563c0.39418,-0.09854 0.68981,-0.29563 0.68981,-0.45987c0,-0.45987 -0.52557,-0.36133 -0.95259,0.16424zM207.67765,169.70894c-0.39418,0 -0.8212,0.65696 -0.59126,0.88689c0.22994,0.22994 0.88689,-0.19709 0.88689,-0.59126c0,-0.16424 -0.13139,-0.29563 -0.29563,-0.29563zM203.6702,170.03742c-0.16424,0 -0.29563,0.13139 -0.29563,0.32848c0,0.16424 0.22994,0.32848 0.52557,0.32848c0.26278,0 0.39418,-0.16424 0.29563,-0.32848c-0.09854,-0.19709 -0.32848,-0.32848 -0.52557,-0.32848zM209.48428,170.13596c-0.0657,-0.0657 -0.26278,0.32848 -0.45987,0.85405c-0.42702,1.24822 -0.16424,1.34676 0.29563,0.16424c0.16424,-0.49272 0.26278,-0.95259 0.16424,-1.01829zM280.89566,171.15425c0,0.26278 0.13139,0.55841 0.29563,0.65696c0.16424,0.13139 0.22994,-0.09854 0.13139,-0.45987c-0.19709,-0.7555 -0.42702,-0.85405 -0.42702,-0.19709zM271.73109,172.73095c-0.39418,1.28107 -0.36133,1.41246 0.26278,1.93803c0.45987,0.39418 0.68981,0.95259 0.68981,1.77379c0,0.68981 0.13139,1.11683 0.32848,0.98544c0.39418,-0.26278 0.42702,-2.69353 0.03285,-2.92346c-0.16424,-0.09854 -0.19709,-0.85405 -0.09854,-1.67524c0.19709,-2.00372 -0.65696,-2.06942 -1.21537,-0.09854zM282.83369,172.33677c-0.16424,0 -0.22994,0.13139 -0.13139,0.32848c0.09854,0.16424 0.26278,0.32848 0.36133,0.32848c0.0657,0 0.13139,-0.16424 0.13139,-0.32848c0,-0.19709 -0.16424,-0.32848 -0.36133,-0.32848zM189.38136,175.12885c-0.26278,-0.72265 -0.39418,-0.95259 -0.29563,-0.49272c0.09854,0.45987 0.16424,1.74094 0.16424,2.85777c0,2.06942 0,2.06942 0.95259,2.06942c0.52557,0 1.34676,0.13139 1.80664,0.32848c0.78835,0.29563 0.8212,0.22994 1.05113,-1.18253c0.26278,-1.83948 -0.09854,-2.26651 -1.90518,-2.26651c-1.28107,0 -1.37961,-0.0657 -1.77379,-1.31392zM286.97252,177.39535c-0.45987,-0.59126 -0.49272,-0.52557 -0.42702,0.8212c0.09854,1.6424 0.91974,2.3322 0.91974,0.78835c0,-0.52557 -0.22994,-1.24822 -0.49272,-1.60955zM285.42867,179.56331l-0.09854,-0.8212l-0.22994,0.8212c-0.13139,0.45987 -0.22994,1.41246 -0.22994,2.13511l0.03285,1.31392l0.29563,-1.31392c0.19709,-0.72265 0.26278,-1.67524 0.22994,-2.13511zM287.39955,182.9795c-0.09854,-0.59126 -0.13139,-0.59126 -0.36133,-0.03285c-0.36133,0.95259 -0.29563,1.41246 0.13139,0.98544c0.19709,-0.19709 0.29563,-0.62411 0.22994,-0.95259zM187.44333,183.17659c-0.8212,0 -0.8212,0.03285 -0.62411,1.87233c0.19709,1.70809 0.88689,3.71181 1.28107,3.71181c0.09854,0 0.16424,-1.24822 0.16424,-2.79207c0,-2.75923 0,-2.79207 -0.8212,-2.79207zM203.70305,185.11461c0,0.19709 0.13139,0.42702 0.32848,0.52557c0.19709,0.09854 0.22994,-0.03285 0.13139,-0.29563c-0.22994,-0.59126 -0.45987,-0.68981 -0.45987,-0.22994zM284.18045,184.81898c-0.16424,0 -0.22994,0.22994 -0.13139,0.49272c0.13139,0.26278 0.26278,0.49272 0.32848,0.49272c0.0657,0 0.13139,-0.22994 0.13139,-0.49272c0,-0.26278 -0.13139,-0.49272 -0.32848,-0.49272zM286.34841,187.51251c-0.13139,0.95259 -0.32848,2.10227 -0.42702,2.52929l-0.19709,0.78835l1.77379,-0.95259c2.20081,-1.18253 2.52929,-2.29935 1.01829,-3.38334c-1.54385,-1.08398 -1.93803,-0.91974 -2.16796,1.01829zM205.3126,188.43225c-0.13139,0 -0.19709,0.22994 -0.09854,0.49272c0.13139,0.26278 0.32848,0.49272 0.49272,0.49272c0.13139,0 0.19709,-0.22994 0.09854,-0.49272c-0.13139,-0.26278 -0.32848,-0.49272 -0.49272,-0.49272zM202.12635,189.08921c-0.91974,0.39418 -0.8212,0.88689 0.29563,1.70809c0.98544,0.72265 4.04029,1.21537 3.25194,0.52557c-0.26278,-0.22994 -0.72265,-0.88689 -0.98544,-1.41246c-0.55841,-1.05113 -1.34676,-1.31392 -2.56214,-0.8212zM281.68401,188.79358c-0.36133,0 -0.45987,0.09854 -0.19709,0.19709c0.22994,0.09854 0.52557,0.0657 0.62411,-0.03285c0.13139,-0.09854 -0.0657,-0.19709 -0.42702,-0.16424zM192.60045,191.06009c-1.60955,0.65696 -1.18253,2.16796 0.88689,3.12055c0.7555,0.32848 1.44531,0.52557 1.511,0.42702c0.32848,-0.32848 -0.22994,-2.92346 -0.72265,-3.41618c-0.52557,-0.52557 -0.62411,-0.52557 -1.67524,-0.13139zM209.51713,191.97983c0.13139,0.32848 0.26278,0.32848 0.59126,0.0657c0.26278,-0.19709 0.36133,-0.59126 0.26278,-0.85405c-0.36133,-0.91974 -1.18253,-0.16424 -0.85405,0.78835zM203.63735,192.83387l-1.47816,-1.511l-0.16424,1.05113c-0.16424,0.98544 -0.0657,1.08398 1.31392,1.67524c0.8212,0.36133 1.54385,0.55841 1.6424,0.45987c0.13139,-0.09854 -0.49272,-0.85405 -1.31392,-1.67524zM271.27122,192.50539c-0.26278,-0.26278 -0.95259,0.8212 -0.8212,1.24822c0.09854,0.26278 0.29563,0.13139 0.55841,-0.32848c0.22994,-0.42702 0.36133,-0.85405 0.26278,-0.91974zM272.3552,193.58938c-1.05113,1.18253 -2.3979,3.71181 -2.10227,4.00745c0.0657,0.0657 0.39418,-0.09854 0.72265,-0.39418c0.8212,-0.7555 1.01829,-0.68981 1.37961,0.26278c0.36133,0.98544 0.78835,1.01829 1.6424,0.16424c0.85405,-0.85405 0.8212,-2.10227 0,-3.28479c-0.36133,-0.52557 -0.55841,-1.14968 -0.45987,-1.44531c0.32848,-0.8212 -0.03285,-0.62411 -1.18253,0.68981zM189.90692,193.16235c0,0.91974 0.39418,1.511 1.05113,1.511c0.62411,0 0.62411,-0.03285 0.03285,-0.98544c-0.62411,-1.05113 -1.08398,-1.28107 -1.08398,-0.52557zM196.87068,193.2609c-1.01829,0.13139 -1.08398,0.19709 -0.88689,1.18253c0.7555,3.94175 4.04029,11.26684 5.28851,11.89095c0.39418,0.19709 1.11683,0.8212 1.60955,1.41246c0.49272,0.59126 1.01829,1.05113 1.21537,1.05113c0.19709,0 -0.22994,-0.62411 -0.91974,-1.41246c-2.79207,-2.98916 -3.2191,-3.77751 -4.23738,-7.78496c-0.16424,-0.7555 -0.16424,-0.7555 0.22994,-0.19709c1.11683,1.6424 2.03657,2.52929 3.44903,3.28479c0.8212,0.49272 1.54385,0.8212 1.5767,0.78835c0.0657,-0.0657 0.19709,-0.42702 0.29563,-0.8212c0.16424,-0.55841 -0.03285,-0.88689 -0.88689,-1.54385c-0.65696,-0.52557 -1.34676,-0.78835 -1.6424,-0.65696c-0.55841,0.19709 -2.52929,-0.98544 -2.52929,-1.54385c0,-0.22994 0.42702,-0.26278 1.08398,-0.13139c1.01829,0.22994 1.01829,0.19709 -0.98544,-1.87233c-1.14968,-1.14968 -2.06942,-2.20081 -2.06942,-2.3322c0,-0.13139 0.42702,-0.03285 0.98544,0.26278c1.14968,0.59126 1.97088,0.62411 1.97088,0.0657c0,-0.19709 0.39418,0.0657 0.8212,0.65696c0.52557,0.65696 1.511,1.31392 2.72638,1.74094c1.01829,0.39418 2.49644,1.01829 3.25194,1.37961c0.78835,0.39418 1.60955,0.59126 1.93803,0.45987c0.49272,-0.19709 0.36133,-0.42702 -0.78835,-1.60955c-1.60955,-1.6424 -1.70809,-1.97088 -0.45987,-1.67524c0.85405,0.19709 0.8212,0.13139 -0.59126,-1.31392c-0.8212,-0.85405 -1.511,-1.41246 -1.5767,-1.24822c-0.03285,0.13139 0.22994,1.11683 0.59126,2.20081c0.36133,1.05113 0.59126,1.97088 0.55841,2.03657c-0.0657,0.0657 -0.85405,-0.52557 -1.70809,-1.28107c-0.98544,-0.88689 -1.6424,-1.24822 -1.74094,-0.98544c-0.19709,0.62411 -0.59126,0.49272 -2.20081,-0.91974c-1.54385,-1.31392 -1.80664,-1.37961 -4.36877,-1.08398zM209.45144,194.34488c-0.65696,-0.55841 -0.68981,0.29563 0,1.18253c0.45987,0.62411 0.45987,0.62411 0.49272,-0.0657c0,-0.39418 -0.22994,-0.88689 -0.49272,-1.11683zM203.11179,198.48372c-1.511,-1.37961 -1.74094,-1.28107 -0.7555,0.32848c0.42702,0.72265 1.11683,1.21537 2.16796,1.5767c2.16796,0.72265 2.82492,0.19709 1.41246,-1.11683c-0.88689,-0.78835 -1.18253,-0.8212 -1.31392,-0.09854c-0.09854,0.45987 -0.36133,0.32848 -1.511,-0.68981zM211.19238,198.28663c-0.95259,-0.72265 -1.21537,-0.52557 -0.49272,0.39418c0.55841,0.72265 3.51473,2.36505 3.51473,1.97088c0,-0.19709 -0.49272,-0.62411 -1.05113,-0.98544c-0.59126,-0.39418 -1.47816,-0.98544 -1.97088,-1.37961zM215.16697,199.27207c-0.16424,0 -0.29563,0.13139 -0.29563,0.32848c0,0.16424 0.22994,0.32848 0.52557,0.32848c0.26278,0 0.39418,-0.16424 0.29563,-0.32848c-0.09854,-0.19709 -0.32848,-0.32848 -0.52557,-0.32848zM266.73821,199.92902c-0.42702,0.32848 -0.62411,0.62411 -0.42702,0.65696c0.19709,0 0.62411,-0.29563 0.95259,-0.65696c0.7555,-0.85405 0.45987,-0.85405 -0.52557,0zM216.84222,201.24294c0,0.16424 0.68981,0.29563 1.5767,0.29563c1.37961,-0.03285 1.44531,-0.0657 0.55841,-0.29563c-1.44531,-0.36133 -2.13511,-0.36133 -2.13511,0zM212.4406,201.24294c-0.19709,0 -0.09854,0.22994 0.22994,0.49272c0.32848,0.22994 0.8212,0.72265 1.11683,1.05113c0.26278,0.32848 0.36133,0.36133 0.22994,0.09854c-0.13139,-0.26278 -0.45987,-0.7555 -0.72265,-1.08398c-0.26278,-0.29563 -0.65696,-0.55841 -0.85405,-0.55841zM205.93671,202.12983c-0.68981,0.78835 -1.5767,2.95631 -1.5767,3.9089c0,0.91974 0.65696,2.43075 1.05113,2.43075c0.16424,0 0.19709,-0.36133 0.0657,-0.8212c-0.29563,-1.18253 0.0657,-1.01829 0.72265,0.36133c0.32848,0.68981 2.59499,3.05486 5.35421,5.61699c4.7301,4.40162 6.17541,5.58415 6.43819,5.32136c0.29563,-0.29563 -5.18997,-5.58415 -7.0623,-6.79952l-1.97088,-1.28107l1.74094,-1.41246c1.24822,-1.01829 1.47816,-1.34676 0.88689,-1.18253c-2.26651,0.68981 -2.59499,0.62411 -3.77751,-0.55841c-0.98544,-0.98544 -1.14968,-1.37961 -1.14968,-2.69353c0,-1.24822 -0.09854,-1.511 -0.49272,-1.34676c-0.68981,0.26278 -0.62411,-0.22994 0.19709,-1.24822c0.7555,-0.95259 0.36133,-1.18253 -0.42702,-0.29563zM208.36745,203.04958c-0.59126,0.49272 -1.05113,1.18253 -1.05113,1.60955c0,1.05113 1.70809,2.59499 2.66068,2.3979c0.72265,-0.13139 0.72265,-0.13139 0.09854,-0.19709c-0.72265,-0.03285 -1.67524,-0.88689 -1.37961,-1.21537c0.09854,-0.09854 0.7555,0.0657 1.41246,0.32848c1.511,0.65696 1.37961,0.65696 1.80664,-0.13139c0.29563,-0.52557 0.19709,-0.72265 -0.62411,-1.14968c-0.55841,-0.26278 -1.37961,-0.49272 -1.87233,-0.49272c-1.08398,0 -0.88689,-0.26278 0.49272,-0.65696c0.85405,-0.22994 1.14968,-0.16424 1.80664,0.42702c0.72265,0.65696 1.01829,1.41246 2.20081,5.81408c0.09854,0.32848 -0.32848,0.62411 -1.34676,0.95259c-1.77379,0.59126 -1.05113,0.85405 1.24822,0.42702c1.44531,-0.26278 1.77379,-0.19709 3.1534,0.62411c1.97088,1.11683 2.49644,1.60955 1.74094,1.60955c-0.78835,0 -0.68981,0.29563 0.32848,1.37961c1.41246,1.44531 0.45987,1.08398 -2.13511,-0.88689c-1.5767,-1.18253 -2.72638,-1.80664 -3.28479,-1.80664c-0.8212,0.03285 -0.7555,0.13139 1.11683,1.90518c2.56214,2.3979 4.20453,3.31764 5.09143,2.75923c0.32848,-0.22994 0.88689,-0.39418 1.18253,-0.39418c0.39418,0 0.26278,0.19709 -0.42702,0.62411c-1.05113,0.65696 -2.23366,2.49644 -1.90518,3.02201c0.26278,0.45987 1.44531,0.32848 1.6424,-0.16424c0.09854,-0.26278 0.62411,-0.65696 1.18253,-0.88689c0.85405,-0.36133 0.95259,-0.52557 0.85405,-1.511c-0.16424,-1.28107 0.52557,-1.47816 1.70809,-0.42702c0.98544,0.85405 1.54385,0.8212 2.00372,-0.09854c0.19709,-0.39418 0.65696,-1.01829 0.98544,-1.37961c0.59126,-0.68981 1.18253,-2.46359 0.78835,-2.46359c-0.09854,0 -0.49272,0.16424 -0.85405,0.36133c-0.88689,0.45987 -1.93803,0.0657 -1.93803,-0.72265c0,-0.32848 -0.16424,-0.62411 -0.32848,-0.62411c-0.19709,0 -0.49272,-0.36133 -0.65696,-0.8212c-0.32848,-0.8212 -1.18253,-1.41246 -1.54385,-1.05113c-0.09854,0.13139 0,0.88689 0.22994,1.67524c0.36133,1.34676 0.32848,1.5767 -0.32848,2.62783c-0.78835,1.31392 -1.05113,1.41246 -1.77379,0.65696c-0.68981,-0.65696 -0.65696,-0.8212 0.0657,-0.59126c0.65696,0.22994 -1.54385,-1.87233 -3.51473,-3.31764c-1.83948,-1.37961 -3.25194,-3.41618 -3.64612,-5.35421c-0.22994,-1.01829 -0.68981,-1.93803 -1.24822,-2.46359c-1.37961,-1.34676 -2.69353,-1.44531 -3.94175,-0.39418zM267.39516,202.55686c-1.97088,0.55841 -3.05486,1.6424 -1.60955,1.6424c0.36133,0 0.65696,0.19709 0.65696,0.45987c0,0.32848 -0.52557,0.55841 -1.47816,0.72265c-1.67524,0.22994 -1.67524,0.65696 0.03285,0.98544c1.01829,0.19709 1.31392,0.0657 2.29935,-0.85405c0.85405,-0.85405 1.01829,-1.21537 0.7555,-1.54385c-0.29563,-0.29563 -0.26278,-0.55841 0.03285,-0.91974c0.55841,-0.65696 0.36133,-0.78835 -0.68981,-0.49272zM200.97667,203.57514c0.68981,1.21537 1.93803,2.26651 2.66068,2.26651c0.32848,0 -0.0657,-0.62411 -1.08398,-1.6424c-1.83948,-1.87233 -2.43075,-2.10227 -1.5767,-0.62411zM220.2584,203.54229c-1.08398,0 -1.14968,0.0657 -0.7555,0.55841c0.22994,0.32848 0.45987,0.62411 0.49272,0.68981c0.13139,0.22994 1.44531,-0.62411 1.44531,-0.91974c0,-0.19709 -0.52557,-0.32848 -1.18253,-0.32848zM214.54286,205.15184c0,1.47816 0.49272,2.03657 0.8212,0.98544c0.13139,-0.36133 0.68981,-0.88689 1.24822,-1.11683l1.01829,-0.42702l-1.28107,-0.36133c-1.83948,-0.49272 -1.80664,-0.49272 -1.80664,0.91974zM224.72572,205.57887c0,0.42702 -0.26278,0.59126 -0.91974,0.59126c-0.49272,0 -1.05113,-0.13139 -1.21537,-0.29563c-0.19709,-0.16424 -0.8212,-0.36133 -1.44531,-0.42702c-0.88689,-0.0657 -1.14968,0.03285 -1.37961,0.62411c-0.22994,0.62411 -0.16424,0.7555 0.32848,0.7555c0.36133,0 0.95259,0.39418 1.31392,0.88689c0.39418,0.52557 0.65696,0.68981 0.62411,0.45987c-0.0657,-0.32848 0.36133,-0.59126 1.37961,-0.78835c2.89062,-0.55841 4.10599,-0.91974 4.92719,-1.54385l0.78835,-0.59126l-0.91974,-0.42702c-0.72265,-0.36133 -1.01829,-0.32848 -1.60955,0c-0.49272,0.32848 -0.72265,0.36133 -0.8212,0.0657c-0.26278,-0.78835 -1.05113,-0.26278 -1.05113,0.68981zM260.79273,205.38178c-0.95259,0.49272 -1.21537,1.11683 -0.49272,1.11683c0.42702,-0.03285 1.87233,-1.11683 1.87233,-1.44531c0,-0.29563 -0.42702,-0.19709 -1.37961,0.32848zM216.15241,206.17013c-0.19709,0 -0.22994,0.13139 -0.13139,0.32848c0.09854,0.16424 0.36133,0.32848 0.52557,0.32848c0.19709,0 0.22994,-0.16424 0.13139,-0.32848c-0.09854,-0.19709 -0.36133,-0.32848 -0.52557,-0.32848zM219.10872,207.25411c-0.0657,-0.16424 -0.39418,-0.22994 -0.72265,-0.16424c-0.29563,0.0657 -0.45987,0.26278 -0.36133,0.42702c0.09854,0.19709 -0.0657,0.52557 -0.36133,0.7555c-0.55841,0.39418 -0.55841,0.42702 0,0.62411c0.39418,0.16424 0.49272,0.45987 0.36133,1.05113c-0.22994,0.95259 0.03285,1.08398 0.62411,0.29563c0.29563,-0.45987 0.52557,-0.45987 1.08398,-0.16424c0.95259,0.49272 0.91974,-0.0657 0,-0.72265l-0.7555,-0.52557h0.91974c1.08398,-0.03285 1.14968,-0.59126 0.09854,-1.01829c-0.42702,-0.16424 -0.8212,-0.42702 -0.88689,-0.55841zM215.82393,208.141l-1.01829,-1.14968l0.62411,1.08398c0.62411,1.14968 1.41246,2.00372 1.41246,1.511c0,-0.16424 -0.45987,-0.8212 -1.01829,-1.44531zM260.46425,207.71398c-0.65696,0.16424 -0.7555,0.59126 -0.26278,0.91974c0.22994,0.16424 0.26278,0.36133 0.03285,0.62411c-0.16424,0.19709 -0.19709,0.55841 -0.0657,0.78835c0.19709,0.29563 0.65696,0.26278 2.06942,-0.22994c2.49644,-0.85405 3.94175,-1.6424 3.71181,-2.00372c-0.19709,-0.32848 -4.40162,-0.39418 -5.4856,-0.09854zM253.56619,210.14473c-0.52557,-0.03285 -0.91974,0.09854 -0.91974,0.29563c0,0.39418 0.26278,0.39418 1.14968,0c0.59126,-0.26278 0.55841,-0.29563 -0.22994,-0.29563zM249.4602,211.55719c0.22994,0.49272 0.55841,0.68981 0.95259,0.59126c0.7555,-0.19709 0.7555,-0.62411 -0.03285,-1.05113c-1.05113,-0.52557 -1.31392,-0.39418 -0.91974,0.45987zM220.29125,211.49149c-0.95259,-0.39418 -0.95259,-0.36133 0.29563,0.7555c0.72265,0.62411 1.41246,1.14968 1.5767,1.14968c0.45987,0 0.29563,-0.52557 -0.29563,-1.05113c-0.32848,-0.26278 -1.01829,-0.65696 -1.5767,-0.85405zM236.38673,212.44408c-0.7555,-0.03285 -0.85405,0.0657 -0.49272,0.29563c0.26278,0.16424 1.01829,0.29563 1.6424,0.29563c0.95259,0 1.01829,-0.0657 0.49272,-0.29563c-0.36133,-0.16424 -1.08398,-0.29563 -1.6424,-0.29563zM209.2215,212.73971c-0.32848,0 -0.09854,0.52557 0.62411,1.37961c0.26278,0.29563 0.42702,0.7555 0.36133,1.01829c-0.09854,0.52557 1.90518,3.51473 2.36505,3.51473c0.16424,0 0.52557,0.09854 0.85405,0.22994c0.45987,0.16424 0.52557,0.0657 0.36133,-0.52557l-0.16424,-0.72265l1.18253,0.68981c0.85405,0.45987 0.29563,-0.22994 -2.00372,-2.46359c-1.80664,-1.70809 -3.38334,-3.12055 -3.58042,-3.12055zM219.30581,221.51011c-1.54385,-0.22994 -0.85405,0.22994 0.8212,0.55841c0.65696,0.13139 0.98544,0.09854 0.8212,-0.09854c-0.19709,-0.13139 -0.91974,-0.36133 -1.6424,-0.45987zM219.07588,226.99571c-1.05113,-0.32848 -0.59126,0.32848 1.14968,1.5767c1.97088,1.44531 2.62783,1.54385 3.31764,0.52557c0.72265,-1.01829 0.68981,-1.14968 -0.49272,-1.77379c-0.78835,-0.39418 -1.08398,-0.42702 -1.28107,-0.13139c-0.16424,0.26278 -0.59126,0.32848 -1.18253,0.19709c-0.52557,-0.13139 -1.21537,-0.29563 -1.511,-0.39418zM227.02507,229.98487c0,0.36133 0.36133,0.49272 1.31392,0.49272c0.72265,0 1.87233,0.22994 2.56214,0.52557c0.65696,0.26278 2.52929,0.85405 4.10599,1.24822c2.75923,0.72265 2.89062,0.7555 3.18625,0.16424c0.68981,-1.24822 0.42702,-1.511 -2.20081,-1.90518c-1.41246,-0.22994 -3.28479,-0.55841 -4.13884,-0.72265c-2.52929,-0.49272 -4.82864,-0.39418 -4.82864,0.19709z" fill="#49d398" stroke-width="1"/><path d="M203.7165,176.24568c0.36133,0.36133 -0.0657,1.34676 -0.62411,1.34676c-0.55841,0 -0.55841,-0.16424 -0.0657,-0.98544c0.22994,-0.36133 0.52557,-0.52557 0.68981,-0.36133z" fill="#49d398" stroke-width="1"/><path d="M201.74563,176.27852c0.55841,0 0.59126,0.0657 0.19709,0.52557c-0.22994,0.29563 -0.59126,0.85405 -0.78835,1.21537c-0.19709,0.39418 -0.62411,0.7555 -0.98544,0.8212c-0.52557,0.09854 -0.59126,0.03285 -0.22994,-0.29563c0.19709,-0.22994 0.39418,-0.65696 0.39418,-0.95259c0,-0.29563 0.16424,-0.68981 0.39418,-0.91974c0.22994,-0.22994 0.68981,-0.39418 1.01829,-0.39418z" fill="#49d398" stroke-width="1"/><path d="M199.67621,184.32626c0,0.26278 -0.22994,0.49272 -0.49272,0.49272c-0.29563,0 -0.49272,0.29563 -0.49272,0.8212c0,0.45987 -0.13139,0.8212 -0.32848,0.8212c-0.52557,0 -0.7555,-1.60955 -0.32848,-2.13511c0.52557,-0.62411 1.6424,-0.62411 1.6424,0z" fill="#49d398" stroke-width="1"/><path d="M205.26035,205.02045c0.19709,0.09854 0.32848,0.32848 0.32848,0.52557c0,0.16424 -0.13139,0.29563 -0.32848,0.29563c-0.16424,0 -0.32848,-0.22994 -0.32848,-0.52557c0,-0.26278 0.16424,-0.39418 0.32848,-0.29563z" fill="#49d398" stroke-width="1"/><path d="M209.89191,204.59343c0.22994,0.0657 0.49272,0.32848 0.55841,0.55841c0.09854,0.26278 -0.03285,0.39418 -0.29563,0.29563c-0.22994,-0.0657 -0.49272,-0.32848 -0.55841,-0.55841c-0.09854,-0.26278 0.03285,-0.39418 0.29563,-0.29563z" fill="#49d398" stroke-width="1"/><path d="M275.19357,171.8769c0.09854,0.52557 0.03285,0.55841 -0.42702,0.16424c-0.29563,-0.22994 -0.52557,-0.59126 -0.52557,-0.7555c0,-0.55841 0.8212,-0.0657 0.95259,0.59126z" fill="#49d398" stroke-width="1"/><path d="M293.58841,171.8769c0.26278,0.26278 0.65696,9.55874 0.49272,11.20114l-0.19709,1.74094h-1.77379c-0.98544,0 -1.77379,-0.16424 -1.77379,-0.32848c0,-0.19709 0.36133,-0.32848 0.78835,-0.32848c0.45987,0 1.21537,-0.32848 1.67524,-0.7555c0.7555,-0.62411 0.8212,-0.8212 0.52557,-1.6424c-0.19709,-0.52557 -0.36133,-1.37961 -0.36133,-1.90518c0,-0.55841 -0.16424,-1.31392 -0.39418,-1.70809c-0.19709,-0.39418 -0.45987,-1.90518 -0.55841,-3.35049c-0.16424,-2.3979 -0.26278,-2.62783 -0.91974,-2.72638c-0.42702,-0.0657 -0.7555,-0.26278 -0.7555,-0.42702c0,-0.29563 2.89062,-0.09854 3.25194,0.22994z" fill="#49d398" stroke-width="1"/><path d="M277.03306,179.89179c0.26278,0.42702 -0.13139,1.6424 -0.52557,1.6424c-0.36133,0 -0.95259,-1.34676 -0.72265,-1.74094c0.19709,-0.32848 1.01829,-0.29563 1.24822,0.09854z" fill="#49d398" stroke-width="1"/><path d="M279.59519,182.9795c0.09854,0.26278 -0.03285,0.72265 -0.26278,1.08398c-0.42702,0.55841 -0.45987,0.52557 -0.49272,-0.49272c0,-1.08398 0.42702,-1.41246 0.7555,-0.59126z" fill="#49d398" stroke-width="1"/><path d="M276.14616,184.16202c0.09854,0.22994 -0.03285,0.55841 -0.22994,0.7555c-0.26278,0.26278 -0.36133,0.22994 -0.36133,-0.13139c0,-0.29563 0.09854,-0.62411 0.22994,-0.7555c0.13139,-0.13139 0.29563,-0.0657 0.36133,0.13139z" fill="#49d398" stroke-width="1"/><path d="M278.774,197.1041c0.0657,0.32848 -0.03285,0.7555 -0.22994,0.95259c-0.55841,0.55841 -0.78835,0.03285 -0.32848,-0.8212c0.39418,-0.68981 0.45987,-0.68981 0.55841,-0.13139z" fill="#49d398" stroke-width="1"/><path d="M192.58106,199.5677c-0.13139,0.65696 0.13139,1.80664 0.8212,3.64612c0.59126,1.47816 0.98544,2.79207 0.88689,2.89062c-0.19709,0.16424 -1.31392,-2.13511 -2.46359,-5.09143c-0.62411,-1.60955 -0.62411,-1.74094 -0.09854,-2.03657c0.88689,-0.52557 1.05113,-0.42702 0.85405,0.59126z" fill="#49d398" stroke-width="1"/><path d="M270.13499,209.45492c0.22994,0.36133 -1.37961,1.21537 -1.67524,0.88689c-0.13139,-0.09854 -0.13139,-0.42702 -0.03285,-0.72265c0.22994,-0.55841 1.37961,-0.68981 1.70809,-0.16424z" fill="#49d398" stroke-width="1"/><path d="M201.3186,215.10476c1.05113,1.11683 0.7555,1.47816 -0.32848,0.42702c-0.52557,-0.52557 -0.98544,-0.98544 -0.98544,-1.05113c0,-0.32848 0.72265,0 1.31392,0.62411z" fill="#49d398" stroke-width="1"/><path d="M85.48574,180c0,-85.33587 69.17839,-154.51426 154.51426,-154.51426c85.33587,0 154.51426,69.17839 154.51426,154.51426c0,85.33587 -69.17839,154.51426 -154.51426,154.51426c-85.33587,0 -154.51426,-69.17839 -154.51426,-154.51426z" fill="url(#color-1)" stroke-width="2.5"/></g></g></svg>