<svg version="1.1" xmlns="http://www.w3.org/2000/svg" xmlns:xlink="http://www.w3.org/1999/xlink" width="221.24515" height="136.3269" viewBox="0,0,221.24515,136.3269"><g transform="translate(-129.27424,-111.45976)"><g data-paper-data="{&quot;isPaintingLayer&quot;:true}" fill-rule="nonzero" stroke-linejoin="miter" stroke-miterlimit="10" stroke-dasharray="" stroke-dashoffset="0" style="mix-blend-mode: normal"><path d="M294.6017,217.22228v29.35434z" fill="none" stroke="#555554" stroke-width="0.725" stroke-linecap="round"/><text transform="translate(132.4832,207.86842) scale(2.13931,2.26078)" font-size="4.4252" xml:space="preserve" fill="#fffe80" fill-rule="nonzero" stroke="none" stroke-width="1" stroke-linecap="butt" stroke-linejoin="miter" stroke-miterlimit="10" stroke-dasharray="" stroke-dashoffset="0" font-family="Sans Serif" font-weight="400" text-anchor="start" style="mix-blend-mode: normal"><tspan x="0" dy="0">功能操作</tspan></text><path d="M294.60319,247.78666v-29.33809z" fill="none" stroke="#555554" stroke-width="0.725" stroke-linecap="round"/><g fill="#ffffff" stroke="none" stroke-width="1" stroke-linecap="butt" font-family="Sans Serif" font-weight="400" font-size="4.4252" text-anchor="start"><text transform="translate(132.60729,224.62194) scale(1.5201,1.60641)" font-size="4.4252" xml:space="preserve" fill="#ffffff" fill-rule="nonzero" stroke="none" stroke-width="1" stroke-linecap="butt" stroke-linejoin="miter" stroke-miterlimit="10" stroke-dasharray="" stroke-dashoffset="0" font-family="Sans Serif" font-weight="400" text-anchor="start" style="mix-blend-mode: normal"><tspan x="0" dy="0">退出游戏至封面</tspan></text><text transform="translate(132.60729,243.33392) scale(1.5201,1.60641)" font-size="4.4252" xml:space="preserve" fill="#ffffff" fill-rule="nonzero" stroke="none" stroke-width="1" stroke-linecap="butt" stroke-linejoin="miter" stroke-miterlimit="10" stroke-dasharray="" stroke-dashoffset="0" font-family="Sans Serif" font-weight="400" text-anchor="start" style="mix-blend-mode: normal"><tspan x="0" dy="0">打开背包</tspan></text></g><g stroke-linecap="butt"><g><g><path d="M227.59023,227.48842c0,0.60826 -0.40552,1.01377 -1.01377,1.01377h-10.6446c-0.50689,0 -1.01377,-0.40552 -1.01377,-1.01377v-10.84733c0,-0.60826 0.50689,-1.01377 1.01377,-1.01377h10.74599c0.60825,0 1.01377,0.40552 1.01377,1.01377z" fill="#070708" stroke="#b1b5b6" stroke-width="0.5"/><text transform="translate(219.34161,225.11785) scale(0.82481,1.01377)" font-size="8.108" xml:space="preserve" fill="#ffffff" fill-rule="nonzero" stroke="none" stroke-width="1" stroke-linecap="butt" stroke-linejoin="miter" stroke-miterlimit="10" stroke-dasharray="" stroke-dashoffset="0" font-family="Sans Serif" font-weight="400" text-anchor="start" style="mix-blend-mode: normal"><tspan x="0" dy="0">0</tspan></text></g><g fill="none" stroke="none" stroke-width="1" font-family="sans-serif" font-weight="normal" font-size="12" text-anchor="start"/><g fill="none" stroke="none" stroke-width="1" font-family="sans-serif" font-weight="normal" font-size="12" text-anchor="start"/><g fill="none" stroke="none" stroke-width="1" font-family="sans-serif" font-weight="normal" font-size="12" text-anchor="start"/><g fill="none" stroke="none" stroke-width="1" font-family="sans-serif" font-weight="normal" font-size="12" text-anchor="start"/><g fill="none" stroke="none" stroke-width="1" font-family="sans-serif" font-weight="normal" font-size="12" text-anchor="start"><g/></g></g><g><path d="M227.59023,246.21021c0,0.60826 -0.40552,1.01378 -1.01377,1.01378h-10.6446c-0.50689,0 -1.01377,-0.40552 -1.01377,-1.01378v-10.84733c0,-0.60826 0.50689,-1.01377 1.01377,-1.01377h10.74599c0.60825,0 1.01377,0.40552 1.01377,1.01377z" fill="#070708" stroke="#b1b5b6" stroke-width="0.5"/><text transform="translate(218.73145,243.83964) scale(0.82481,1.01377)" font-size="8.108" xml:space="preserve" fill="#ffffff" fill-rule="nonzero" stroke="none" stroke-width="1" stroke-linecap="butt" stroke-linejoin="miter" stroke-miterlimit="10" stroke-dasharray="" stroke-dashoffset="0" font-family="Sans Serif" font-weight="400" text-anchor="start" style="mix-blend-mode: normal"><tspan x="0" dy="0">H</tspan></text></g></g><g fill="#ffffff" stroke="none" stroke-width="1" stroke-linecap="butt" font-family="Sans Serif" font-weight="400" font-size="4.4252" text-anchor="start"><text transform="translate(304.46453,224.71888) scale(1.5201,1.60641)" font-size="4.4252" xml:space="preserve" fill="#ffffff" fill-rule="nonzero" stroke="none" stroke-width="1" stroke-linecap="butt" stroke-linejoin="miter" stroke-miterlimit="10" stroke-dasharray="" stroke-dashoffset="0" font-family="Sans Serif" font-weight="400" text-anchor="start" style="mix-blend-mode: normal"><tspan x="0" dy="0">打开地图</tspan></text><text transform="translate(304.46453,243.33392) scale(1.5201,1.60641)" font-size="4.4252" xml:space="preserve" fill="#ffffff" fill-rule="nonzero" stroke="none" stroke-width="1" stroke-linecap="butt" stroke-linejoin="miter" stroke-miterlimit="10" stroke-dasharray="" stroke-dashoffset="0" font-family="Sans Serif" font-weight="400" text-anchor="start" style="mix-blend-mode: normal"><tspan x="0" dy="0">关闭地图/其它</tspan></text></g><path d="M294.60319,182.2444v-47.86718z" fill="none" stroke="#555554" stroke-width="0.725" stroke-linecap="round"/><g stroke-linecap="butt"><path d="M227.59023,143.51406c0,0.60825 -0.40552,1.01377 -1.01377,1.01377h-10.6446c-0.50689,0 -1.01377,-0.4055 -1.01377,-1.01377v-10.84734c0,-0.60825 0.50689,-1.01377 1.01377,-1.01377h10.74599c0.60825,0 1.01377,0.4055 1.01377,1.01377z" fill="#070708" stroke="#b1b5b6" stroke-width="0.5"/><text transform="translate(217.68695,141.14349) scale(0.82481,1.01377)" font-size="8.108" xml:space="preserve" fill="#ffffff" fill-rule="nonzero" stroke="none" stroke-width="1" stroke-linecap="butt" stroke-linejoin="miter" stroke-miterlimit="10" stroke-dasharray="" stroke-dashoffset="0" font-family="AdobeSongStd-Light-GBpc-EUC-H" font-weight="400" text-anchor="start" style="mix-blend-mode: normal"><tspan x="0" dy="0">W</tspan></text></g><g stroke-linecap="butt"><path d="M242.59907,143.51406c0,0.60825 -0.40552,1.01377 -1.01377,1.01377h-10.64459c-0.50689,0 -1.01377,-0.4055 -1.01377,-1.01377v-10.84734c0,-0.60825 0.50689,-1.01377 1.01377,-1.01377h10.74597c0.60825,0 1.01377,0.4055 1.01377,1.01377z" fill="#070708" stroke="#b1b5b6" stroke-width="0.5"/><text transform="translate(234.11408,141.14349) scale(0.82481,1.01377)" font-size="8.108" xml:space="preserve" fill="#ffffff" fill-rule="nonzero" stroke="none" stroke-width="1" stroke-linecap="butt" stroke-linejoin="miter" stroke-miterlimit="10" stroke-dasharray="" stroke-dashoffset="0" font-family="AdobeSongStd-Light-GBpc-EUC-H" font-weight="400" text-anchor="start" style="mix-blend-mode: normal"><tspan x="0" dy="0">A</tspan></text></g><g stroke-linecap="butt"><path d="M257.4629,143.51406c0,0.60825 -0.40552,1.01377 -1.01378,1.01377h-10.6446c-0.50689,0 -1.01378,-0.4055 -1.01378,-1.01377v-10.84734c0,-0.60825 0.50689,-1.01377 1.01378,-1.01377h10.74597c0.60825,0 1.01377,0.4055 1.01377,1.01377z" fill="#070708" stroke="#b1b5b6" stroke-width="0.5"/><text transform="translate(249.33246,141.14349) scale(0.82481,1.01377)" font-size="8.108" xml:space="preserve" fill="#ffffff" fill-rule="nonzero" stroke="none" stroke-width="1" stroke-linecap="butt" stroke-linejoin="miter" stroke-miterlimit="10" stroke-dasharray="" stroke-dashoffset="0" font-family="AdobeSongStd-Light-GBpc-EUC-H" font-weight="400" text-anchor="start" style="mix-blend-mode: normal"><tspan x="0" dy="0">S</tspan></text></g><g stroke-linecap="butt"><path d="M272.20582,143.51406c0,0.60825 -0.4055,1.01377 -1.01377,1.01377h-10.6446c-0.50689,0 -1.01377,-0.4055 -1.01377,-1.01377v-10.84734c0,-0.60825 0.50689,-1.01377 1.01377,-1.01377h10.74597c0.60825,0 1.01377,0.4055 1.01377,1.01377z" fill="#070708" stroke="#b1b5b6" stroke-width="0.5"/><text transform="translate(263.54353,141.14349) scale(0.82481,1.01377)" font-size="8.108" xml:space="preserve" fill="#ffffff" fill-rule="nonzero" stroke="none" stroke-width="1" stroke-linecap="butt" stroke-linejoin="miter" stroke-miterlimit="10" stroke-dasharray="" stroke-dashoffset="0" font-family="AdobeSongStd-Light-GBpc-EUC-H" font-weight="400" text-anchor="start" style="mix-blend-mode: normal"><tspan x="0" dy="0">D</tspan></text></g><g stroke-linecap="butt"><path d="M227.59023,180.74409c0,0.60826 -0.40552,1.01377 -1.01377,1.01377h-10.6446c-0.50689,0 -1.01377,-0.4055 -1.01377,-1.01377v-10.84733c0,-0.60825 0.50689,-1.01377 1.01377,-1.01377h10.74599c0.60825,0 1.01377,0.40552 1.01377,1.01377z" fill="#070708" stroke="#b1b5b6" stroke-width="0.5"/><text transform="translate(219.42433,178.37349) scale(0.82481,1.01377)" font-size="8.108" xml:space="preserve" fill="#ffffff" fill-rule="nonzero" stroke="none" stroke-width="1" stroke-linecap="butt" stroke-linejoin="miter" stroke-miterlimit="10" stroke-dasharray="" stroke-dashoffset="0" font-family="AdobeSongStd-Light-GBpc-EUC-H" font-weight="400" text-anchor="start" style="mix-blend-mode: normal"><tspan x="0" dy="0">F</tspan></text></g><g stroke-linecap="butt"><g fill="#070708" stroke="#b1b5b6" stroke-width="0.5"><path d="M258.2768,162.12905c0,0.60825 -0.40552,1.01377 -1.01377,1.01377h-41.33117c-0.50689,0 -1.01377,-0.40552 -1.01377,-1.01377v-10.84733c0,-0.60825 0.50689,-1.01378 1.01377,-1.01378h41.43257c0.60825,0 1.01377,0.40552 1.01377,1.01378z"/></g><text transform="translate(220.03105,159.79424) scale(1.30206,1.72072)" font-size="4.7908" xml:space="preserve" fill="#ffffff" fill-rule="nonzero" stroke="none" stroke-width="1" stroke-linecap="butt" stroke-linejoin="miter" stroke-miterlimit="10" stroke-dasharray="" stroke-dashoffset="0" font-family="AdobeSongStd-Light-GBpc-EUC-H" font-weight="400" text-anchor="start" style="mix-blend-mode: normal"><tspan x="0" dy="0">SPACE BAR</tspan></text></g><g fill="#ffffff" stroke="none" stroke-width="1" stroke-linecap="butt" font-family="Sans Serif" font-weight="400" font-size="4.4252" text-anchor="start"><text transform="translate(132.60729,140.64756) scale(1.5201,1.60641)" font-size="4.4252" xml:space="preserve" fill="#ffffff" fill-rule="nonzero" stroke="none" stroke-width="1" stroke-linecap="butt" stroke-linejoin="miter" stroke-miterlimit="10" stroke-dasharray="" stroke-dashoffset="0" font-family="Sans Serif" font-weight="400" text-anchor="start" style="mix-blend-mode: normal"><tspan x="0" dy="0">移动</tspan></text><text transform="translate(132.60729,159.26252) scale(1.5201,1.60641)" font-size="4.4252" xml:space="preserve" fill="#ffffff" fill-rule="nonzero" stroke="none" stroke-width="1" stroke-linecap="butt" stroke-linejoin="miter" stroke-miterlimit="10" stroke-dasharray="" stroke-dashoffset="0" font-family="Sans Serif" font-weight="400" text-anchor="start" style="mix-blend-mode: normal"><tspan x="0" dy="0">开火</tspan></text><text transform="translate(132.60729,177.87755) scale(1.5201,1.60641)" font-size="4.4252" xml:space="preserve" fill="#ffffff" fill-rule="nonzero" stroke="none" stroke-width="1" stroke-linecap="butt" stroke-linejoin="miter" stroke-miterlimit="10" stroke-dasharray="" stroke-dashoffset="0" font-family="Sans Serif" font-weight="400" text-anchor="start" style="mix-blend-mode: normal"><tspan x="0" dy="0">跳伞</tspan></text></g><text transform="translate(132.4832,123.89405) scale(2.13931,2.26078)" font-size="4.4252" xml:space="preserve" fill="#fffe80" fill-rule="nonzero" stroke="none" stroke-width="1" stroke-linecap="butt" stroke-linejoin="miter" stroke-miterlimit="10" stroke-dasharray="" stroke-dashoffset="0" font-family="Sans Serif" font-weight="400" text-anchor="start" style="mix-blend-mode: normal"><tspan x="0" dy="0">游戏操作</tspan></text><g fill="#ffffff" stroke="none" stroke-width="1" stroke-linecap="butt" font-family="Sans Serif" font-weight="400" font-size="4.4252" text-anchor="start"><text transform="translate(304.46453,140.64756) scale(1.5201,1.60641)" font-size="4.4252" xml:space="preserve" fill="#ffffff" fill-rule="nonzero" stroke="none" stroke-width="1" stroke-linecap="butt" stroke-linejoin="miter" stroke-miterlimit="10" stroke-dasharray="" stroke-dashoffset="0" font-family="Sans Serif" font-weight="400" text-anchor="start" style="mix-blend-mode: normal"><tspan x="0" dy="0">切换主武器</tspan></text><text transform="translate(304.46453,159.26252) scale(1.5201,1.60641)" font-size="4.4252" xml:space="preserve" fill="#ffffff" fill-rule="nonzero" stroke="none" stroke-width="1" stroke-linecap="butt" stroke-linejoin="miter" stroke-miterlimit="10" stroke-dasharray="" stroke-dashoffset="0" font-family="Sans Serif" font-weight="400" text-anchor="start" style="mix-blend-mode: normal"><tspan x="0" dy="0">切换副武器</tspan></text><text transform="translate(304.46453,177.87755) scale(1.5201,1.60641)" font-size="4.4252" xml:space="preserve" fill="#ffffff" fill-rule="nonzero" stroke="none" stroke-width="1" stroke-linecap="butt" stroke-linejoin="miter" stroke-miterlimit="10" stroke-dasharray="" stroke-dashoffset="0" font-family="Sans Serif" font-weight="400" text-anchor="start" style="mix-blend-mode: normal"><tspan x="0" dy="0">收枪/药品</tspan></text></g></g></g></svg>